<?xml version="1.0" encoding="utf-8"?>
<!-- Generator: Adobe Illustrator 24.3.0, SVG Export Plug-In . SVG Version: 6.00 Build 0)  -->
<svg version="1.1" id="Слой_1" xmlns="http://www.w3.org/2000/svg" xmlns:xlink="http://www.w3.org/1999/xlink" x="0px" y="0px"
	 viewBox="0 0 121.4814835 120" style="enable-background:new 0 0 121.4814835 120;" xml:space="preserve">
<style type="text/css">
	.st0{fill:#0D1117;}
	.st1{fill:none;stroke:#FFFFFF;stroke-width:9;stroke-linecap:round;stroke-linejoin:round;stroke-miterlimit:10;}
</style>
<rect class="st0" width="121.4814835" height="120"/>
<path class="st1" d="M55,66.2222214C61.3888893,72.8333359,68.6666641,74.5,75.4938278,69.4691391l12.3195114-12.3195152
	l23.3873062-23.3873024c6.5127869-6.5127945,6.5127869-17.0721149,0-23.5849075l-0.0000229-0.0000238
	c-6.5127945-6.5127921-17.0721207-6.5127921-23.5849075,0L63.9648933,33.8282127"/>
<path class="st1" d="M67.5134048,53.8366814c-6.3888931-6.6111107-13.6666679-8.2777786-20.4938278-3.2469139L34.7000618,62.9092789
	L11.3127584,86.2965851c-6.5127916,6.5127869-6.5127916,17.072113,0,23.5849075l0.0000238,0.0000229
	c6.5127926,6.5127869,17.0721149,6.5127869,23.5849075,0L58.5485115,86.23069"/>
</svg>
