<?xml version="1.0" encoding="utf-8"?>
<!-- Generator: Adobe Illustrator 24.3.0, SVG Export Plug-In . SVG Version: 6.00 Build 0)  -->
<svg version="1.1" id="Слой_1" xmlns="http://www.w3.org/2000/svg" xmlns:xlink="http://www.w3.org/1999/xlink" x="0px" y="0px"
	 viewBox="0 0 201.5555573 130.5226288" style="enable-background:new 0 0 201.5555573 130.5226288;" xml:space="preserve">
<style type="text/css">
	.st0{fill:#3399FF;}
</style>
<path class="st0" d="M191.3690186,130.5226288H10.1865435C4.5839448,130.5226288,0,125.9386826,0,120.3360825l0-4.2976837
	c0-5.6026001,4.5839448-10.1865463,10.1865435-10.1865463h181.1824799c5.6025848,0,10.1865387,4.5839462,10.1865387,10.1865463
	v4.2976837C201.5555573,125.9386826,196.9716034,130.5226288,191.3690186,130.5226288z"/>
<path class="st0" d="M191.3690186,24.6707726H10.1865435C4.5839448,24.6707726,0,20.0868282,0,14.4842291l0-4.2976856
	C0,4.5839448,4.5839448,0,10.1865435,0l181.1824799,0c5.6025848,0,10.1865387,4.5839448,10.1865387,10.1865435v4.2976856
	C201.5555573,20.0868282,196.9716034,24.6707726,191.3690186,24.6707726z"/>
<path class="st0" d="M191.3690186,77.5966949H10.1865435C4.5839448,77.5966949,0,73.0127563,0,67.4101562l0-4.2976875
	c0-5.6025963,4.5839448-10.1865425,10.1865435-10.1865425h181.1824799c5.6025848,0,10.1865387,4.5839462,10.1865387,10.1865425
	v4.2976875C201.5555573,73.0127563,196.9716034,77.5966949,191.3690186,77.5966949z"/>
</svg>
