<?xml version="1.0" encoding="utf-8"?>
<!-- Generator: Adobe Illustrator 24.3.0, SVG Export Plug-In . SVG Version: 6.00 Build 0)  -->
<svg version="1.1" id="Слой_1" xmlns="http://www.w3.org/2000/svg" xmlns:xlink="http://www.w3.org/1999/xlink" x="0px" y="0px"
	 viewBox="0 0 1920 1080" style="enable-background:new 0 0 1920 1080;" xml:space="preserve">
<style type="text/css">
	.st0{fill:#0D1117;}
	.st1{fill:#4AA4FF;}
	.st2{fill:#18184C;}
	.st3{fill:#202060;}
	.st4{fill:none;stroke:#0D1117;stroke-width:3;stroke-miterlimit:10;}
	.st5{fill:#262675;}
	.st6{fill:#2B2B89;}
	.st7{fill:#33339E;}
	.st8{fill:#3434B2;}
	.st9{fill:#3398FF;}
</style>
<rect y="0.3" class="st0" width="1920" height="1080"/>
<image style="overflow:visible;" width="2560" height="1440" xlink:href="499B62D5.jpg"  transform="matrix(1 0 0 1 -86.1111 -1539.8889)">
</image>
<g>
	<g>
		<g>
			<polygon class="st1" points="17.7,1028 17.7,104.7 4.5,110.3 24,64 43.5,110.3 30.3,104.7 30.3,1028 			"/>
		</g>
	</g>
</g>
<polygon class="st2" points="1673,1031 131,1031 231.9,913.6 1572.1,913.6 "/>
<polyline class="st3" points="231.9,913.6 355.8,769.4 1448.2,769.4 1572.1,913.6 "/>
<line class="st4" x1="1589.3" y1="913.6" x2="207.9" y2="913.6"/>
<polyline class="st5" points="355.8,769.4 479.7,625.3 1324.3,625.3 1448.2,769.4 "/>
<line class="st4" x1="1475.1" y1="769.4" x2="343.4" y2="769.4"/>
<polyline class="st6" points="479.7,625.3 603.6,481.2 1200.4,481.2 1324.3,625.3 "/>
<line class="st4" x1="1350.1" y1="625.3" x2="434.2" y2="625.3"/>
<polyline class="st7" points="603.6,481.2 727.4,337.1 1076.6,337.1 1200.4,481.2 "/>
<line class="st4" x1="1244.5" y1="481.2" x2="566.6" y2="481.2"/>
<polyline class="st8" points="727.4,337.1 901.8,134.3 902.2,134.3 1076.6,337.1 "/>
<line class="st4" x1="1107.8" y1="337.1" x2="691.5" y2="337.1"/>
<g>
	<path class="st9" d="M80,454.7l0-20.9l-10.3,17.3H67l-10.3-17v20.6h-5.5v-31.5h4.8L68.4,444l12.3-20.8h4.8l0.1,31.5H80z"/>
	<path class="st9" d="M116.2,444.5H97.3c0.3,1.8,1.2,3.2,2.6,4.2c1.4,1,3.1,1.6,5.2,1.6c2.6,0,4.8-0.9,6.5-2.6l3,3.5
		c-1.1,1.3-2.4,2.3-4.1,2.9c-1.7,0.7-3.5,1-5.6,1c-2.6,0-5-0.5-7-1.6c-2-1-3.6-2.5-4.7-4.4c-1.1-1.9-1.6-4-1.6-6.4
		c0-2.3,0.5-4.4,1.6-6.3c1.1-1.9,2.5-3.3,4.4-4.4c1.9-1,4-1.6,6.4-1.6c2.3,0,4.4,0.5,6.3,1.6c1.8,1,3.3,2.5,4.3,4.4
		c1,1.9,1.6,4,1.6,6.5C116.3,443.2,116.2,443.8,116.2,444.5z M99.5,436.5c-1.2,1.1-2,2.5-2.3,4.3h13.6c-0.2-1.7-1-3.1-2.2-4.2
		c-1.2-1.1-2.8-1.6-4.6-1.6C102.3,434.9,100.8,435.4,99.5,436.5z"/>
	<path class="st9" d="M122.4,430.7h5.6v9.8h12.1v-9.8h5.6v24h-5.6v-9.5h-12.1v9.5h-5.6V430.7z"/>
	<path class="st9" d="M172.4,440.7c1.6,1.4,2.5,3.3,2.5,5.9c0,2.6-0.9,4.7-2.7,6.1c-1.8,1.4-4.3,2.1-7.6,2.1l-11.2,0v-24h5.6v7.9
		l6.4,0C168.5,438.6,170.8,439.3,172.4,440.7z M167.9,449.6c0.9-0.7,1.3-1.8,1.3-3.1c0-1.4-0.4-2.3-1.3-3c-0.8-0.6-2.1-1-3.8-1
		l-5.1,0v8.1l5.1,0C165.7,450.6,167,450.3,167.9,449.6z"/>
	<path class="st9" d="M215.3,430.7v24h-35.4v-24h5.6v19.3h9.3v-19.3h5.6v19.3h9.2v-19.3H215.3z"/>
	<path class="st9" d="M245.2,444.5h-18.9c0.3,1.8,1.2,3.2,2.6,4.2c1.4,1,3.1,1.6,5.2,1.6c2.6,0,4.8-0.9,6.5-2.6l3,3.5
		c-1.1,1.3-2.4,2.3-4.1,2.9c-1.7,0.7-3.5,1-5.6,1c-2.6,0-5-0.5-7-1.6c-2-1-3.6-2.5-4.7-4.4c-1.1-1.9-1.6-4-1.6-6.4
		c0-2.3,0.5-4.4,1.6-6.3c1.1-1.9,2.5-3.3,4.4-4.4c1.9-1,4-1.6,6.4-1.6c2.3,0,4.4,0.5,6.3,1.6c1.8,1,3.3,2.5,4.3,4.4
		c1,1.9,1.6,4,1.6,6.5C245.3,443.2,245.3,443.8,245.2,444.5z M228.6,436.5c-1.2,1.1-2,2.5-2.3,4.3H240c-0.2-1.7-1-3.1-2.2-4.2
		c-1.2-1.1-2.8-1.6-4.6-1.6C231.4,434.9,229.8,435.4,228.6,436.5z"/>
	<path class="st9" d="M255.9,448.6c0.7,0.7,1,1.6,1,2.7c0,0.5-0.1,1-0.2,1.5c-0.1,0.5-0.4,1.3-0.8,2.4l-2.3,6.3h-3.6l1.8-6.9
		c-0.7-0.3-1.2-0.7-1.6-1.3c-0.4-0.6-0.6-1.3-0.6-2c0-1.1,0.3-2,1-2.7c0.7-0.7,1.6-1,2.6-1C254.3,447.5,255.2,447.9,255.9,448.6z"/>
	<path class="st9" d="M86.8,503.7v11.7h-5.4v-6.7H57.2v6.7h-5.4l0-11.7h1.4c2-0.1,3.4-1.6,4.2-4.4c0.8-2.8,1.3-6.9,1.5-12.2l0.4-10
		h23.1v26.5H86.8z M62.9,497.9c-0.5,2.7-1.3,4.7-2.4,5.8h16v-21.6H64.1l-0.2,5.6C63.8,491.8,63.4,495.2,62.9,497.9z"/>
	<path class="st9" d="M95.3,507.4c-2-1-3.5-2.5-4.6-4.4c-1.1-1.9-1.6-4-1.6-6.4c0-2.4,0.5-4.5,1.6-6.3c1.1-1.9,2.6-3.3,4.6-4.4
		c1.9-1,4.1-1.6,6.6-1.6c2.5,0,4.7,0.5,6.6,1.6c1.9,1.1,3.5,2.5,4.6,4.4c1.1,1.9,1.6,4,1.6,6.3c0,2.4-0.5,4.5-1.6,6.4
		c-1.1,1.9-2.6,3.3-4.6,4.4c-2,1.1-4.2,1.6-6.6,1.6C99.5,509,97.3,508.5,95.3,507.4z M107,502.1c1.4-1.4,2-3.2,2-5.4s-0.7-4.1-2-5.4
		c-1.4-1.4-3.1-2.1-5.1-2.1c-2.1,0-3.8,0.7-5.1,2.1c-1.3,1.4-2,3.2-2,5.4s0.7,4.1,2,5.4c1.3,1.4,3,2.1,5.1,2.1
		C104,504.2,105.7,503.5,107,502.1z"/>
	<path class="st9" d="M139.8,485.9c1.8,1,3.3,2.5,4.3,4.3c1,1.9,1.6,4,1.6,6.4c0,2.4-0.5,4.6-1.6,6.5c-1.1,1.9-2.5,3.3-4.3,4.3
		c-1.8,1-3.9,1.5-6.3,1.5c-3.2,0-5.8-1.1-7.7-3.2v11.7h-5.6v-32.8h5.4v3.1c0.9-1.1,2.1-2,3.4-2.6c1.4-0.6,2.9-0.9,4.5-0.9
		C135.9,484.4,138,484.9,139.8,485.9z M138,502.1c1.3-1.4,2-3.2,2-5.4s-0.7-4.1-2-5.4c-1.3-1.4-3-2.1-5.1-2.1
		c-1.4,0-2.6,0.3-3.6,0.9c-1.1,0.6-1.9,1.5-2.6,2.6c-0.6,1.1-0.9,2.5-0.9,4c0,1.5,0.3,2.8,0.9,4c0.6,1.1,1.5,2,2.6,2.6
		c1.1,0.6,2.3,0.9,3.6,0.9C135,504.2,136.7,503.5,138,502.1z"/>
	<path class="st9" d="M155.5,507.4c-2-1-3.5-2.5-4.6-4.4c-1.1-1.9-1.6-4-1.6-6.4c0-2.4,0.5-4.5,1.6-6.3c1.1-1.9,2.6-3.3,4.6-4.4
		c1.9-1,4.1-1.6,6.6-1.6c2.5,0,4.7,0.5,6.6,1.6c1.9,1.1,3.5,2.5,4.6,4.4c1.1,1.9,1.6,4,1.6,6.3c0,2.4-0.5,4.5-1.6,6.4
		c-1.1,1.9-2.6,3.3-4.6,4.4c-2,1.1-4.2,1.6-6.6,1.6C159.6,509,157.4,508.5,155.5,507.4z M167.2,502.1c1.4-1.4,2-3.2,2-5.4
		s-0.7-4.1-2-5.4c-1.4-1.4-3.1-2.1-5.1-2.1c-2.1,0-3.8,0.7-5.1,2.1c-1.3,1.4-2,3.2-2,5.4s0.7,4.1,2,5.4c1.3,1.4,3,2.1,5.1,2.1
		C164.1,504.2,165.8,503.5,167.2,502.1z"/>
	<path class="st9" d="M202.4,499.1h-4.1v9.6h-5.6v-9.6h-4l-5.9,9.6h-6.7l7.9-12.4l-7.3-11.6h6l5.9,9.7h4.1v-9.7h5.6v9.7h4.1l5.9-9.7
		h6l-7.3,11.6l7.9,12.4h-6.7L202.4,499.1z"/>
	<path class="st9" d="M240.8,498.5h-18.9c0.3,1.8,1.2,3.2,2.6,4.2c1.4,1,3.1,1.6,5.2,1.6c2.6,0,4.8-0.9,6.5-2.6l3,3.5
		c-1.1,1.3-2.4,2.3-4.1,2.9c-1.7,0.7-3.5,1-5.6,1c-2.6,0-5-0.5-7-1.6c-2-1-3.6-2.5-4.7-4.4c-1.1-1.9-1.6-4-1.6-6.4
		c0-2.3,0.5-4.4,1.6-6.3c1.1-1.9,2.5-3.3,4.4-4.4c1.9-1,4-1.6,6.4-1.6c2.3,0,4.4,0.5,6.3,1.6c1.8,1,3.3,2.5,4.3,4.4
		c1,1.9,1.6,4,1.6,6.5C240.8,497.2,240.8,497.8,240.8,498.5z M224.1,490.5c-1.2,1.1-2,2.5-2.3,4.3h13.6c-0.2-1.7-1-3.1-2.2-4.2
		c-1.2-1.1-2.8-1.6-4.6-1.6C226.9,488.9,225.4,489.4,224.1,490.5z"/>
	<path class="st9" d="M251.4,502.6c0.7,0.7,1,1.6,1,2.7c0,0.5-0.1,1-0.2,1.5c-0.1,0.5-0.4,1.3-0.8,2.4l-2.3,6.3h-3.6l1.8-6.9
		c-0.7-0.3-1.2-0.7-1.6-1.3c-0.4-0.6-0.6-1.3-0.6-2c0-1.1,0.3-2,1-2.7c0.7-0.7,1.6-1,2.6-1C249.8,501.5,250.7,501.9,251.4,502.6z"/>
	<path class="st9" d="M47.6,531.2h24.5v4.8H53.4v7.7h9.3c3.8,0,6.7,0.8,8.6,2.4c2,1.6,2.9,3.8,2.9,6.8c0,3.1-1.1,5.5-3.2,7.2
		c-2.2,1.7-5.2,2.5-9.2,2.5H47.6V531.2z M61.5,558.2c2.2,0,4-0.4,5.1-1.3c1.2-0.9,1.8-2.1,1.8-3.8c0-3.2-2.3-4.9-6.9-4.9h-8.1v9.9
		H61.5z"/>
	<path class="st9" d="M98.8,548.7c1.6,1.4,2.4,3.3,2.4,5.8c0,2.6-0.9,4.7-2.7,6.1c-1.8,1.4-4.3,2.1-7.6,2.1l-10.9,0v-24h5.6v7.9
		l6.1,0C94.8,546.6,97.1,547.3,98.8,548.7z M94.2,557.6c0.9-0.7,1.3-1.8,1.3-3.2c0-1.3-0.4-2.3-1.3-3c-0.8-0.6-2.1-1-3.8-1l-4.8,0
		v8.1l4.8,0C92.1,558.6,93.3,558.3,94.2,557.6z M104.3,538.7h5.6v24h-5.6V538.7z"/>
	<path class="st9" d="M121.7,561.4c-2-1-3.5-2.5-4.6-4.4c-1.1-1.9-1.7-4-1.7-6.4s0.6-4.5,1.7-6.3c1.1-1.9,2.6-3.3,4.6-4.4
		c2-1,4.2-1.6,6.7-1.6c2.4,0,4.4,0.5,6.2,1.4c1.8,1,3.1,2.3,4,4.1l-4.3,2.5c-0.7-1.1-1.6-1.9-2.6-2.5c-1-0.6-2.2-0.8-3.4-0.8
		c-2.1,0-3.8,0.7-5.2,2c-1.4,1.4-2.1,3.2-2.1,5.5s0.7,4.1,2,5.5c1.4,1.4,3.1,2,5.2,2c1.2,0,2.4-0.3,3.4-0.8c1-0.6,1.9-1.4,2.6-2.5
		l4.3,2.5c-0.9,1.8-2.3,3.2-4.1,4.2c-1.8,1-3.8,1.5-6.2,1.5C125.9,563,123.7,562.5,121.7,561.4z"/>
	<path class="st9" d="M162.4,543.4H154v19.3h-5.6v-19.3h-8.5v-4.8h22.5V543.4z"/>
	<path class="st9" d="M186.1,539.9c1.8,1,3.3,2.5,4.3,4.3c1,1.9,1.6,4,1.6,6.4c0,2.4-0.5,4.6-1.6,6.5c-1.1,1.9-2.5,3.3-4.3,4.3
		c-1.8,1-3.9,1.5-6.3,1.5c-3.2,0-5.8-1.1-7.7-3.2v11.7h-5.6v-32.8h5.4v3.1c0.9-1.1,2.1-2,3.4-2.6c1.4-0.6,2.9-0.9,4.5-0.9
		C182.2,538.4,184.3,538.9,186.1,539.9z M184.3,556.1c1.3-1.4,2-3.2,2-5.4s-0.7-4.1-2-5.4c-1.3-1.4-3-2.1-5.1-2.1
		c-1.4,0-2.6,0.3-3.6,0.9c-1.1,0.6-1.9,1.5-2.6,2.6c-0.6,1.1-0.9,2.5-0.9,4s0.3,2.8,0.9,4c0.6,1.1,1.5,2,2.6,2.6
		c1.1,0.6,2.3,0.9,3.6,0.9C181.3,558.2,183,557.5,184.3,556.1z"/>
	<path class="st9" d="M220,552.5h-18.9c0.3,1.8,1.2,3.2,2.6,4.2s3.1,1.6,5.2,1.6c2.6,0,4.8-0.9,6.5-2.6l3,3.5
		c-1.1,1.3-2.4,2.3-4.1,2.9c-1.7,0.7-3.5,1-5.6,1c-2.6,0-5-0.5-7-1.6s-3.6-2.5-4.7-4.4c-1.1-1.9-1.6-4-1.6-6.4
		c0-2.3,0.5-4.4,1.6-6.3c1.1-1.9,2.5-3.3,4.4-4.4c1.9-1,4-1.6,6.4-1.6c2.3,0,4.4,0.5,6.3,1.6c1.8,1,3.3,2.5,4.3,4.4
		c1,1.9,1.6,4,1.6,6.5C220.1,551.2,220.1,551.8,220,552.5z M203.4,544.5c-1.2,1.1-2,2.5-2.3,4.3h13.6c-0.2-1.7-1-3.1-2.2-4.2
		c-1.2-1.1-2.8-1.6-4.6-1.6C206.2,542.9,204.6,543.4,203.4,544.5z"/>
	<path class="st9" d="M248.7,552.5h-18.9c0.3,1.8,1.2,3.2,2.6,4.2s3.1,1.6,5.2,1.6c2.6,0,4.8-0.9,6.5-2.6l3,3.5
		c-1.1,1.3-2.4,2.3-4.1,2.9c-1.7,0.7-3.5,1-5.6,1c-2.6,0-5-0.5-7-1.6s-3.6-2.5-4.7-4.4c-1.1-1.9-1.6-4-1.6-6.4
		c0-2.3,0.5-4.4,1.6-6.3c1.1-1.9,2.5-3.3,4.4-4.4c1.9-1,4-1.6,6.4-1.6c2.3,0,4.4,0.5,6.3,1.6c1.8,1,3.3,2.5,4.3,4.4
		c1,1.9,1.6,4,1.6,6.5C248.8,551.2,248.8,551.8,248.7,552.5z M232.1,544.5c-1.2,1.1-2,2.5-2.3,4.3h13.6c-0.2-1.7-1-3.1-2.2-4.2
		c-1.2-1.1-2.8-1.6-4.6-1.6C234.8,542.9,233.3,543.4,232.1,544.5z"/>
	<path class="st9" d="M259.3,556.6c0.7,0.7,1,1.6,1,2.7c0,0.5-0.1,1-0.2,1.5c-0.1,0.5-0.4,1.3-0.8,2.4l-2.3,6.3h-3.6l1.8-6.9
		c-0.7-0.3-1.2-0.7-1.6-1.3c-0.4-0.6-0.6-1.3-0.6-2c0-1.1,0.3-2,1-2.7c0.7-0.7,1.6-1,2.6-1C257.8,555.5,258.6,555.9,259.3,556.6z"/>
	<path class="st9" d="M56.6,585.2h24.5v4.8H62.4v7.7h9.3c3.8,0,6.7,0.8,8.6,2.4c2,1.6,2.9,3.8,2.9,6.8c0,3.1-1.1,5.5-3.2,7.2
		c-2.2,1.7-5.2,2.5-9.2,2.5H56.6V585.2z M70.5,612.2c2.2,0,4-0.4,5.1-1.3c1.2-0.9,1.8-2.1,1.8-3.8c0-3.2-2.3-4.9-6.9-4.9h-8.1v9.9
		H70.5z"/>
	<path class="st9" d="M110.2,592.7v24h-5.6v-19.3h-9l-0.2,4.8c-0.2,3.2-0.4,5.8-0.9,8c-0.4,2.1-1.2,3.8-2.2,5.1
		c-1,1.2-2.5,1.9-4.3,1.9c-0.8,0-1.9-0.2-3.1-0.5l0.3-4.7c0.4,0.1,0.8,0.1,1.1,0.1c1.1,0,2-0.5,2.6-1.4c0.6-0.9,0.9-2,1.1-3.3
		c0.2-1.3,0.3-3.1,0.4-5.5l0.4-9.3H110.2z"/>
	<path class="st9" d="M117.7,592.7h5.6v15.8l13.3-15.8h5.1v24h-5.6v-15.8l-13.2,15.8h-5.2V592.7z"/>
	<path class="st9" d="M172.2,607.1h-4.1v9.6h-5.6v-9.6h-4l-5.9,9.6H146l7.9-12.4l-7.3-11.6h6l5.9,9.7h4.1v-9.7h5.6v9.7h4.1l5.9-9.7
		h6l-7.3,11.6l7.9,12.4H178L172.2,607.1z"/>
	<path class="st9" d="M210.5,606.5h-18.9c0.3,1.8,1.2,3.2,2.6,4.2s3.1,1.6,5.2,1.6c2.6,0,4.8-0.9,6.5-2.6l3,3.5
		c-1.1,1.3-2.4,2.3-4.1,2.9c-1.7,0.7-3.5,1-5.6,1c-2.6,0-5-0.5-7-1.6s-3.6-2.5-4.7-4.4c-1.1-1.9-1.6-4-1.6-6.4
		c0-2.3,0.5-4.4,1.6-6.3c1.1-1.9,2.5-3.3,4.4-4.4c1.9-1,4-1.6,6.4-1.6c2.3,0,4.4,0.5,6.3,1.6c1.8,1,3.3,2.5,4.3,4.4
		c1,1.9,1.6,4,1.6,6.5C210.6,605.2,210.6,605.8,210.5,606.5z M193.9,598.5c-1.2,1.1-2,2.5-2.3,4.3h13.6c-0.2-1.7-1-3.1-2.2-4.2
		c-1.2-1.1-2.8-1.6-4.6-1.6C196.6,596.9,195.1,597.4,193.9,598.5z"/>
	<path class="st9" d="M239.2,607.1h-4.4v9.6h-5.6v-24h5.6v9.7h4.5l7.1-9.7h6l-8.7,11.6l9.3,12.5h-6.6L239.2,607.1z"/>
	<path class="st9" d="M119,646.7v24h-5v-7.2h-6.3l-4.9,7.2h-6l5.7-8c-1.7-0.6-3.1-1.5-4-2.8c-0.9-1.2-1.4-2.8-1.4-4.6
		c0-2.8,1-4.9,2.9-6.4c1.9-1.5,4.6-2.2,8.1-2.2H119z M102.7,655.5c0,2.7,1.8,4,5.3,4h6v-8.1h-5.8
		C104.5,651.4,102.7,652.8,102.7,655.5z"/>
	<path class="st9" d="M152.2,665.9V676h-5.3v-5.4h-18.5v5.4h-5.2v-10.1h1.1c1.5-0.1,2.6-1,3.1-2.9c0.6-1.9,0.9-4.6,1.1-8.1l0.3-8.2
		h19.8v19.3H152.2z M133,662.1c-0.3,1.7-0.9,3-1.8,3.9H143v-14.5h-9.2l-0.1,3.9C133.5,658.1,133.3,660.3,133,662.1z"/>
	<path class="st9" d="M176.8,647.9c1.8,1,3.3,2.5,4.3,4.3c1,1.9,1.6,4,1.6,6.4c0,2.4-0.5,4.6-1.6,6.5c-1.1,1.9-2.5,3.3-4.3,4.3
		c-1.8,1-3.9,1.5-6.3,1.5c-3.2,0-5.8-1.1-7.7-3.2v11.7h-5.6v-32.8h5.4v3.2c0.9-1.1,2.1-2,3.4-2.6c1.4-0.6,2.9-0.9,4.5-0.9
		C172.9,646.4,175,646.9,176.8,647.9z M175,664.1c1.3-1.4,2-3.2,2-5.4s-0.7-4.1-2-5.4c-1.3-1.4-3-2.1-5.1-2.1
		c-1.4,0-2.6,0.3-3.6,0.9c-1.1,0.6-1.9,1.5-2.6,2.6c-0.6,1.1-0.9,2.5-0.9,4s0.3,2.8,0.9,4c0.6,1.1,1.5,2,2.6,2.6
		c1.1,0.6,2.3,0.9,3.6,0.9C172,666.2,173.7,665.5,175,664.1z"/>
	<path class="st9" d="M210.3,646.7l-11.2,26c-1.1,2.6-2.3,4.4-3.8,5.5c-1.5,1.1-3.3,1.6-5.4,1.6c-1.2,0-2.4-0.2-3.6-0.6
		c-1.2-0.4-2.1-0.9-2.9-1.6l2.2-4.1c0.5,0.5,1.2,0.9,1.9,1.2c0.7,0.3,1.5,0.5,2.2,0.5c1,0,1.8-0.3,2.5-0.8c0.6-0.5,1.2-1.4,1.8-2.6
		l0.4-0.9l-10.5-24.1h5.9l7.6,17.8l7.6-17.8H210.3z"/>
</g>
<g>
	<g>
		<path class="st9" d="M731.3,999.1c-3.8-1.2-6.8-2.7-9-4.6l3.4-7.6c2.1,1.7,4.8,3.1,7.9,4.2c3.1,1.1,6.3,1.6,9.4,1.6
			c3.9,0,6.8-0.6,8.7-1.9c1.9-1.2,2.9-2.9,2.9-5c0-1.5-0.5-2.7-1.6-3.7c-1.1-1-2.4-1.7-4.1-2.3c-1.6-0.5-3.9-1.2-6.8-1.9
			c-4-0.9-7.2-1.9-9.7-2.9c-2.5-0.9-4.6-2.4-6.4-4.5c-1.8-2-2.7-4.8-2.7-8.2c0-2.9,0.8-5.5,2.4-7.9c1.6-2.4,3.9-4.3,7.1-5.7
			c3.2-1.4,7.1-2.1,11.7-2.1c3.2,0,6.3,0.4,9.5,1.2c3.1,0.8,5.8,2,8,3.5l-3.1,7.6c-2.3-1.3-4.7-2.4-7.2-3.1
			c-2.5-0.7-4.9-1.1-7.3-1.1c-3.9,0-6.7,0.7-8.6,2c-1.9,1.3-2.8,3-2.8,5.2c0,1.5,0.5,2.7,1.6,3.7c1.1,1,2.4,1.7,4.1,2.2
			c1.6,0.6,3.9,1.2,6.8,1.9c3.9,0.9,7.1,1.8,9.6,2.8c2.5,1,4.6,2.5,6.4,4.5c1.8,2,2.7,4.7,2.7,8.1c0,2.9-0.8,5.5-2.4,7.9
			c-1.6,2.4-4,4.2-7.2,5.6c-3.2,1.4-7.1,2.1-11.7,2.1C739,1000.9,735.1,1000.3,731.3,999.1z"/>
		<path class="st9" d="M778.5,999.1c-3.8-1.2-6.8-2.7-9-4.6l3.4-7.6c2.1,1.7,4.8,3.1,7.9,4.2c3.1,1.1,6.3,1.6,9.4,1.6
			c3.9,0,6.8-0.6,8.7-1.9c1.9-1.2,2.9-2.9,2.9-5c0-1.5-0.5-2.7-1.6-3.7c-1.1-1-2.4-1.7-4.1-2.3c-1.6-0.5-3.9-1.2-6.8-1.9
			c-4-0.9-7.2-1.9-9.7-2.9c-2.5-0.9-4.6-2.4-6.4-4.5c-1.8-2-2.7-4.8-2.7-8.2c0-2.9,0.8-5.5,2.4-7.9c1.6-2.4,3.9-4.3,7.1-5.7
			c3.2-1.4,7.1-2.1,11.7-2.1c3.2,0,6.3,0.4,9.5,1.2c3.1,0.8,5.8,2,8,3.5l-3.1,7.6c-2.3-1.3-4.7-2.4-7.2-3.1
			c-2.5-0.7-4.9-1.1-7.3-1.1c-3.9,0-6.7,0.7-8.6,2c-1.9,1.3-2.8,3-2.8,5.2c0,1.5,0.5,2.7,1.6,3.7c1.1,1,2.4,1.7,4.1,2.2
			c1.6,0.6,3.9,1.2,6.8,1.9c3.9,0.9,7.1,1.8,9.6,2.8c2.5,1,4.6,2.5,6.4,4.5c1.8,2,2.7,4.7,2.7,8.1c0,2.9-0.8,5.5-2.4,7.9
			c-1.6,2.4-4,4.2-7.2,5.6c-3.2,1.4-7.1,2.1-11.7,2.1C786.2,1000.9,782.3,1000.3,778.5,999.1z"/>
		<path class="st9" d="M821.1,947.6h23c5.6,0,10.6,1.1,14.9,3.3c4.4,2.2,7.7,5.2,10.1,9.2c2.4,4,3.6,8.6,3.6,13.8
			c0,5.2-1.2,9.8-3.6,13.8c-2.4,4-5.8,7-10.1,9.2c-4.3,2.2-9.3,3.3-14.9,3.3h-23V947.6z M843.6,991.9c3.8,0,7.2-0.7,10.2-2.2
			c2.9-1.5,5.2-3.6,6.8-6.3c1.6-2.7,2.4-5.9,2.4-9.5s-0.8-6.8-2.4-9.5c-1.6-2.7-3.8-4.8-6.8-6.3c-2.9-1.5-6.3-2.2-10.2-2.2h-12.8v36
			H843.6z"/>
		<path class="st9" d="M897,937h8.4l-24.8,70.7h-8.4L897,937z"/>
		<path class="st9" d="M956.1,947.6v52.5h-9.8v-22.5h-27.2v22.5h-9.8v-52.5h9.8v21.7h27.2v-21.7H956.1z"/>
		<path class="st9" d="M970.2,947.6h23c5.6,0,10.6,1.1,14.9,3.3c4.4,2.2,7.7,5.2,10.1,9.2c2.4,4,3.6,8.6,3.6,13.8
			c0,5.2-1.2,9.8-3.6,13.8c-2.4,4-5.8,7-10.1,9.2c-4.3,2.2-9.3,3.3-14.9,3.3h-23V947.6z M992.7,991.9c3.8,0,7.2-0.7,10.2-2.2
			c2.9-1.5,5.2-3.6,6.8-6.3c1.6-2.7,2.4-5.9,2.4-9.5s-0.8-6.8-2.4-9.5c-1.6-2.7-3.8-4.8-6.8-6.3c-2.9-1.5-6.3-2.2-10.2-2.2h-12.8v36
			H992.7z"/>
		<path class="st9" d="M1032.1,947.6h23c5.6,0,10.6,1.1,14.9,3.3c4.4,2.2,7.7,5.2,10.1,9.2c2.4,4,3.6,8.6,3.6,13.8
			c0,5.2-1.2,9.8-3.6,13.8c-2.4,4-5.8,7-10.1,9.2c-4.3,2.2-9.3,3.3-14.9,3.3h-23V947.6z M1054.6,991.9c3.8,0,7.2-0.7,10.2-2.2
			c2.9-1.5,5.2-3.6,6.8-6.3c1.6-2.7,2.4-5.9,2.4-9.5s-0.8-6.8-2.4-9.5c-1.6-2.7-3.8-4.8-6.8-6.3c-2.9-1.5-6.3-2.2-10.2-2.2h-12.8v36
			H1054.6z"/>
	</g>
</g>
<g>
	<g>
		<path class="st9" d="M499.1,866.6c-4.3-2.3-7.6-5.5-10-9.7c-2.4-4.1-3.6-8.7-3.6-13.8s1.2-9.7,3.6-13.8c2.4-4.1,5.8-7.3,10-9.7
			c4.3-2.3,9.1-3.5,14.4-3.5c5.3,0,10.1,1.2,14.4,3.5c4.3,2.3,7.6,5.5,10,9.6c2.4,4.1,3.6,8.7,3.6,13.9c0,5.2-1.2,9.8-3.6,13.9
			c-2.4,4.1-5.8,7.3-10,9.6c-4.3,2.3-9.1,3.5-14.4,3.5C508.1,870.1,503.4,868.9,499.1,866.6z M522.8,859.2c2.8-1.6,5-3.8,6.5-6.6
			c1.6-2.8,2.4-6,2.4-9.5c0-3.5-0.8-6.7-2.4-9.5c-1.6-2.8-3.8-5-6.5-6.6c-2.8-1.6-5.9-2.4-9.4-2.4c-3.5,0-6.6,0.8-9.4,2.4
			c-2.8,1.6-5,3.8-6.5,6.6c-1.6,2.8-2.4,6-2.4,9.5c0,3.5,0.8,6.7,2.4,9.5c1.6,2.8,3.8,5,6.5,6.6c2.8,1.6,5.9,2.4,9.4,2.4
			C516.9,861.5,520.1,860.7,522.8,859.2z"/>
		<path class="st9" d="M589.3,829.3v40h-9.2v-32.1h-19.6v32.1h-9.3v-40H589.3z"/>
		<path class="st9" d="M638.9,852.3h-31.2c0.5,3,2,5.3,4.3,7c2.3,1.7,5.2,2.6,8.6,2.6c4.4,0,8-1.5,10.8-4.4l5,5.8
			c-1.8,2.2-4,3.8-6.8,4.9c-2.7,1.1-5.8,1.7-9.2,1.7c-4.4,0-8.2-0.9-11.5-2.6c-3.3-1.8-5.9-4.2-7.7-7.3c-1.8-3.1-2.7-6.7-2.7-10.6
			c0-3.9,0.9-7.4,2.6-10.5c1.8-3.1,4.2-5.6,7.3-7.3c3.1-1.8,6.6-2.6,10.6-2.6c3.9,0,7.3,0.9,10.4,2.6c3.1,1.7,5.4,4.2,7.1,7.3
			c1.7,3.1,2.6,6.7,2.6,10.8C639.1,850.2,639,851.1,638.9,852.3z M611.4,839c-2.1,1.8-3.3,4.1-3.8,7.1h22.6c-0.4-2.9-1.6-5.2-3.6-7
			c-2-1.8-4.6-2.7-7.6-2.7C616,836.3,613.5,837.2,611.4,839z"/>
		<path class="st9" d="M681.7,831.4c3.1,1.7,5.4,4.1,7.2,7.2c1.7,3.1,2.6,6.7,2.6,10.7c0,4.1-0.9,7.6-2.6,10.8
			c-1.7,3.1-4.1,5.5-7.2,7.2c-3.1,1.7-6.5,2.6-10.4,2.6c-5.4,0-9.6-1.8-12.7-5.4v19.4h-9.3v-54.6h8.9v5.2c1.5-1.9,3.4-3.3,5.7-4.3
			c2.3-0.9,4.8-1.4,7.5-1.4C675.2,828.8,678.7,829.7,681.7,831.4z M678.7,858.4c2.2-2.3,3.3-5.3,3.3-9.1s-1.1-6.8-3.3-9.1
			c-2.2-2.3-5-3.5-8.4-3.5c-2.2,0-4.2,0.5-6,1.5c-1.8,1-3.2,2.5-4.2,4.4c-1,1.9-1.6,4.1-1.6,6.6c0,2.5,0.5,4.7,1.6,6.6
			c1,1.9,2.5,3.4,4.2,4.4c1.8,1,3.8,1.5,6,1.5C673.7,861.8,676.5,860.7,678.7,858.4z"/>
		<path class="st9" d="M728.5,833.1c3.1,2.8,4.7,7.1,4.7,12.8v23.5h-8.8v-4.9c-1.1,1.8-2.8,3.1-4.9,4c-2.1,0.9-4.7,1.4-7.6,1.4
			c-3,0-5.6-0.5-7.8-1.5s-4-2.4-5.2-4.3c-1.2-1.8-1.8-3.9-1.8-6.2c0-3.6,1.3-6.5,4-8.7c2.7-2.2,6.8-3.3,12.5-3.3h10.3v-0.6
			c0-2.8-0.8-5-2.5-6.5c-1.7-1.5-4.1-2.2-7.4-2.2c-2.2,0-4.4,0.4-6.6,1c-2.2,0.7-4,1.7-5.5,2.9l-3.6-6.8c2.1-1.6,4.6-2.8,7.5-3.7
			c2.9-0.8,6-1.3,9.3-1.3C720.9,828.8,725.4,830.2,728.5,833.1z M720,861.4c1.8-1.1,3.1-2.6,3.8-4.6v-4.6h-9.6c-5.4,0-8,1.8-8,5.3
			c0,1.7,0.7,3,2,4c1.3,1,3.2,1.5,5.6,1.5C716.1,863,718.2,862.5,720,861.4z"/>
		<path class="st9" d="M776.1,837.2h-13.9v32.1h-9.3v-32.1h-14v-8h37.2V837.2z"/>
		<path class="st9" d="M782.9,829.3h9.3v26.4l22-26.4h8.5v40h-9.3v-26.4l-21.9,26.4h-8.6V829.3z"/>
		<path class="st9" d="M871.3,858.1c0,3.6-1.3,6.4-4,8.3s-6.6,2.9-11.9,2.9h-20.2v-40h19.4c4.9,0,8.7,0.9,11.4,2.7
			c2.7,1.8,4.1,4.3,4.1,7.6c0,2.1-0.5,3.8-1.6,5.3c-1.1,1.5-2.6,2.7-4.5,3.5C868.9,850,871.3,853.2,871.3,858.1z M844,846h9.8
			c4.8,0,7.2-1.7,7.2-5c0-3.2-2.4-4.9-7.2-4.9H844V846z M862.3,857.5c0-1.8-0.6-3.1-1.8-3.9s-3.1-1.3-5.6-1.3H844v10.3h10.6
			C859.8,862.5,862.3,860.8,862.3,857.5z"/>
		<path class="st9" d="M881.2,829.3h9.3v16.3h20v-16.3h9.3v40h-9.3v-15.8h-20v15.8h-9.3V829.3z"/>
		<path class="st9" d="M960.6,833.1c3.1,2.8,4.7,7.1,4.7,12.8v23.5h-8.8v-4.9c-1.1,1.8-2.8,3.1-4.9,4c-2.1,0.9-4.7,1.4-7.6,1.4
			c-3,0-5.6-0.5-7.8-1.5s-4-2.4-5.2-4.3c-1.2-1.8-1.8-3.9-1.8-6.2c0-3.6,1.3-6.5,4-8.7c2.7-2.2,6.8-3.3,12.5-3.3h10.3v-0.6
			c0-2.8-0.8-5-2.5-6.5c-1.7-1.5-4.1-2.2-7.4-2.2c-2.2,0-4.4,0.4-6.6,1c-2.2,0.7-4,1.7-5.5,2.9l-3.6-6.8c2.1-1.6,4.6-2.8,7.5-3.7
			c2.9-0.8,6-1.3,9.3-1.3C953,828.8,957.5,830.2,960.6,833.1z M952.1,861.4c1.8-1.1,3.1-2.6,3.8-4.6v-4.6h-9.6c-5.4,0-8,1.8-8,5.3
			c0,1.7,0.7,3,2,4c1.3,1,3.2,1.5,5.6,1.5C948.2,863,950.3,862.5,952.1,861.4z"/>
		<path class="st9" d="M1010.4,829.3v40h-8.3v-12.1h-10.5l-8.1,12.1h-10l9.4-13.3c-2.9-1-5.1-2.5-6.6-4.6c-1.5-2.1-2.3-4.6-2.3-7.7
			c0-4.6,1.6-8.1,4.8-10.6c3.2-2.5,7.7-3.8,13.3-3.8H1010.4z M983.4,844c0,4.5,2.9,6.8,8.7,6.8h9.9v-13.6h-9.6
			C986.4,837.2,983.4,839.4,983.4,844z"/>
		<path class="st9" d="M1081.5,829.3v40h-9.2v-32.1h-19.6v32.1h-9.3v-40H1081.5z"/>
		<path class="st9" d="M1122.3,833.1c3.1,2.8,4.7,7.1,4.7,12.8v23.5h-8.8v-4.9c-1.1,1.8-2.8,3.1-4.9,4c-2.1,0.9-4.7,1.4-7.6,1.4
			c-3,0-5.6-0.5-7.8-1.5c-2.2-1-4-2.4-5.2-4.3s-1.8-3.9-1.8-6.2c0-3.6,1.3-6.5,4-8.7c2.7-2.2,6.8-3.3,12.5-3.3h10.3v-0.6
			c0-2.8-0.8-5-2.5-6.5c-1.7-1.5-4.1-2.2-7.4-2.2c-2.2,0-4.4,0.4-6.6,1c-2.2,0.7-4,1.7-5.5,2.9l-3.6-6.8c2.1-1.6,4.6-2.8,7.5-3.7
			c2.9-0.8,6-1.3,9.3-1.3C1114.8,828.8,1119.2,830.2,1122.3,833.1z M1113.9,861.4c1.8-1.1,3.1-2.6,3.8-4.6v-4.6h-9.6
			c-5.4,0-8,1.8-8,5.3c0,1.7,0.7,3,2,4c1.3,1,3.2,1.5,5.6,1.5C1110,863,1112,862.5,1113.9,861.4z"/>
		<path class="st9" d="M1177.6,869.3v-26.5l-13.4,22.3h-4l-13.2-22.4v26.6h-8.5v-40h9.8l14.1,25l14.8-25h8.7l0.1,40H1177.6z"/>
		<path class="st9" d="M1232.1,829.3v40h-8.3v-12.1h-10.5l-8.1,12.1h-10l9.4-13.3c-2.9-1-5.1-2.5-6.6-4.6c-1.5-2.1-2.3-4.6-2.3-7.7
			c0-4.6,1.6-8.1,4.8-10.6c3.2-2.5,7.7-3.8,13.3-3.8H1232.1z M1205.1,844c0,4.5,2.9,6.8,8.7,6.8h9.9v-13.6h-9.6
			C1208.1,837.2,1205.1,839.4,1205.1,844z"/>
		<path class="st9" d="M1276.1,837.2h-13.9v32.1h-9.3v-32.1h-14v-8h37.2V837.2z"/>
		<path class="st9" d="M1314.4,845.9c2.7,2.3,4.1,5.6,4.1,9.8c0,4.4-1.5,7.8-4.5,10.2c-3,2.4-7.2,3.6-12.6,3.5l-18.6-0.1v-40h9.3
			v13.1l10.6,0.1C1307.9,842.5,1311.7,843.6,1314.4,845.9z M1306.9,860.8c1.4-1.2,2.2-3,2.2-5.2c0-2.2-0.7-3.9-2.1-5
			c-1.4-1-3.5-1.6-6.3-1.7l-8.5-0.1v13.6l8.5,0.1C1303.4,862.6,1305.4,862,1306.9,860.8z"/>
	</g>
</g>
<g>
	<g>
		<path class="st9" d="M770.7,672.7h9.8V717h27.5v8.2h-37.2V672.7z"/>
		<path class="st9" d="M845.7,699.3c2.5,2.7,3.8,6.1,3.8,10.1c0,3.1-0.8,5.8-2.3,8.3c-1.6,2.5-3.9,4.5-7,6
			c-3.1,1.5-6.9,2.2-11.4,2.2c-3.8,0-7.4-0.5-10.8-1.6c-3.5-1.1-6.4-2.6-8.9-4.5l4.2-7.6c1.9,1.6,4.2,2.9,6.9,3.8
			c2.7,0.9,5.5,1.4,8.4,1.4c3.5,0,6.2-0.7,8.1-2.1c2-1.4,3-3.4,3-5.8c0-2.4-0.9-4.4-2.8-5.7s-4.7-2.1-8.6-2.1h-4.8v-6.7l11.9-14.2
			h-23.9v-8.2h35.8v6.5l-12.8,15.1C839.4,695,843.1,696.6,845.7,699.3z"/>
		<path class="st9" d="M900,703.1h-9.8v22.1h-9.6v-52.5h9.6v22h10l15.1-22h10.3l-17.9,25.4l18.6,27.1h-11L900,703.1z"/>
		<path class="st9" d="M954.8,687.2c3.3,1.8,6,4.2,7.9,7.3c1.9,3.1,2.8,6.7,2.8,10.6c0,4-1,7.5-2.8,10.7c-1.9,3.2-4.5,5.6-7.9,7.4
			c-3.4,1.8-7.1,2.7-11.3,2.7c-3.7,0-7-0.6-9.9-1.8c-3-1.2-5.5-2.9-7.5-5.2l5.4-5.2c3.1,3.1,7,4.7,11.6,4.7c3.4,0,6.3-0.9,8.7-2.7
			c2.4-1.8,4-4.3,4.7-7.3H938v-6.8h18.5c-0.8-2.9-2.3-5.3-4.7-7c-2.4-1.7-5.3-2.6-8.6-2.6c-4.6,0-8.5,1.6-11.6,4.8l-5.4-5.2
			c2-2.3,4.5-4,7.5-5.2c3-1.2,6.3-1.8,9.9-1.8C947.7,684.6,951.4,685.5,954.8,687.2z"/>
		<path class="st9" d="M1033.6,685.2v40h-59v-40h9.4v32.1h15.5v-32.1h9.4v32.1h15.4v-32.1H1033.6z"/>
	</g>
</g>
<g>
	<g>
		<path class="st9" d="M771.3,528.3h9.7v44.2h27.2v8.2h-36.9V528.3z"/>
		<path class="st9" d="M849.9,572.6v8.2h-38.4v-6.5l20.7-19.8c2.3-2.2,3.9-4.2,4.7-5.9c0.8-1.7,1.2-3.3,1.2-5c0-2.4-0.8-4.3-2.5-5.6
			c-1.6-1.3-4-1.9-7.2-1.9c-5.3,0-9.4,1.8-12.2,5.5l-6.8-5.2c2-2.7,4.8-4.9,8.2-6.4c3.4-1.5,7.3-2.3,11.6-2.3c5.7,0,10.2,1.4,13.5,4
			c3.4,2.7,5.1,6.4,5.1,11c0,2.8-0.6,5.5-1.8,8c-1.2,2.5-3.5,5.4-6.8,8.6l-13.9,13.3H849.9z"/>
		<path class="st9" d="M899.3,558.7h-9.7v22.1h-9.5v-52.5h9.5v22h10l15-22h10.3L907,553.8l18.5,27.1h-10.9L899.3,558.7z"/>
		<path class="st9" d="M953.7,542.8c3.3,1.8,5.9,4.2,7.8,7.3c1.9,3.1,2.8,6.7,2.8,10.6c0,4-0.9,7.5-2.8,10.7
			c-1.9,3.2-4.5,5.6-7.8,7.4c-3.3,1.8-7.1,2.7-11.2,2.7c-3.6,0-6.9-0.6-9.8-1.8c-2.9-1.2-5.4-2.9-7.4-5.2l5.4-5.2
			c3.1,3.1,7,4.7,11.5,4.7c3.4,0,6.3-0.9,8.7-2.7c2.4-1.8,4-4.3,4.7-7.3H937v-6.8h18.3c-0.7-2.9-2.3-5.3-4.7-7
			c-2.4-1.7-5.2-2.6-8.6-2.6c-4.6,0-8.4,1.6-11.5,4.8l-5.4-5.2c2-2.3,4.5-4,7.4-5.2c3-1.2,6.2-1.8,9.9-1.8
			C946.6,540.2,950.4,541.1,953.7,542.8z"/>
		<path class="st9" d="M1031.9,540.8v40h-58.6v-40h9.3v32.1H998v-32.1h9.3v32.1h15.3v-32.1H1031.9z"/>
	</g>
</g>
<g>
	<g>
		<path class="st9" d="M780.6,384.5h9.7v44.2h27.2v8.2h-36.9V384.5z"/>
		<path class="st9" d="M836.9,384.5V437h-9.7v-44.3h-11v-8.2H836.9z"/>
		<path class="st9" d="M891,414.8h-9.7V437h-9.5v-52.5h9.5v22h10l15-22h10.3l-17.8,25.4l18.5,27.1h-10.9L891,414.8z"/>
		<path class="st9" d="M945.4,399c3.3,1.8,5.9,4.2,7.8,7.3c1.9,3.1,2.8,6.7,2.8,10.6c0,4-0.9,7.5-2.8,10.6c-1.9,3.1-4.5,5.6-7.8,7.4
			c-3.3,1.8-7.1,2.7-11.2,2.7c-3.6,0-6.9-0.6-9.8-1.8c-2.9-1.2-5.4-2.9-7.4-5.2l5.4-5.2c3.1,3.1,7,4.7,11.5,4.7
			c3.4,0,6.3-0.9,8.7-2.7c2.4-1.8,4-4.3,4.7-7.3h-18.4v-6.8h18.3c-0.7-2.9-2.3-5.3-4.7-7c-2.4-1.7-5.2-2.6-8.6-2.6
			c-4.6,0-8.4,1.6-11.5,4.8l-5.4-5.2c2-2.3,4.5-4,7.4-5.2c3-1.2,6.2-1.8,9.9-1.8C938.4,396.3,942.1,397.2,945.4,399z"/>
		<path class="st9" d="M1023.7,396.9v40h-58.6v-40h9.3V429h15.4v-32.1h9.3V429h15.3v-32.1H1023.7z"/>
	</g>
</g>
<g>
	<g>
		<path class="st9" d="M816,264.5c1.9,0.8,3.4,2.1,4.4,3.6c1,1.6,1.5,3.5,1.5,5.6c0,2.1-0.5,4-1.5,5.6c-1,1.6-2.5,2.8-4.4,3.7
			c-1.9,0.8-4.1,1.3-6.7,1.3h-6.7v8.6H797v-29.7h12.2C811.8,263.3,814.1,263.7,816,264.5z M814.5,278.2c1.2-1,1.9-2.5,1.9-4.4
			c0-1.9-0.6-3.4-1.9-4.4c-1.2-1-3.1-1.5-5.5-1.5h-6.4v11.8h6.4C811.4,279.7,813.2,279.2,814.5,278.2z"/>
		<path class="st9" d="M847.5,283.3h-17.8c0.3,1.7,1.1,3,2.4,4c1.3,1,2.9,1.5,4.9,1.5c2.5,0,4.5-0.8,6.1-2.5l2.8,3.3
			c-1,1.2-2.3,2.1-3.9,2.8c-1.6,0.6-3.3,0.9-5.3,0.9c-2.5,0-4.7-0.5-6.6-1.5c-1.9-1-3.4-2.4-4.4-4.1c-1-1.8-1.5-3.8-1.5-6
			c0-2.2,0.5-4.2,1.5-6c1-1.8,2.4-3.1,4.2-4.1c1.8-1,3.8-1.5,6-1.5c2.2,0,4.2,0.5,5.9,1.5c1.7,1,3.1,2.3,4.1,4.1
			c1,1.8,1.5,3.8,1.5,6.1C847.6,282.1,847.6,282.6,847.5,283.3z M831.9,275.8c-1.2,1-1.9,2.3-2.1,4h12.8c-0.2-1.6-0.9-3-2.1-4
			c-1.2-1-2.6-1.5-4.3-1.5C834.5,274.3,833,274.8,831.9,275.8z"/>
		<path class="st9" d="M870.8,274.8h-12.1v18.2h-5.3v-22.6h17.4V274.8z"/>
		<path class="st9" d="M874.7,270.3h5.3v14.9l12.5-14.9h4.8v22.6H892V278l-12.5,14.9h-4.9V270.3z"/>
		<path class="st9" d="M908.4,291.8c-1.9-1-3.3-2.4-4.4-4.1c-1-1.8-1.6-3.8-1.6-6c0-2.2,0.5-4.2,1.6-6c1-1.8,2.5-3.1,4.3-4.1
			c1.9-1,4-1.5,6.3-1.5c2.2,0,4.2,0.5,5.9,1.4c1.7,0.9,2.9,2.2,3.8,3.9l-4.1,2.4c-0.7-1-1.5-1.8-2.4-2.4c-1-0.5-2-0.8-3.2-0.8
			c-2,0-3.6,0.6-4.9,1.9c-1.3,1.3-2,3-2,5.2c0,2.1,0.6,3.9,1.9,5.2c1.3,1.3,2.9,1.9,4.9,1.9c1.2,0,2.2-0.3,3.2-0.8
			c1-0.5,1.8-1.3,2.4-2.4l4.1,2.4c-0.9,1.7-2.2,3-3.8,3.9c-1.7,0.9-3.6,1.4-5.8,1.4C912.4,293.2,910.3,292.7,908.4,291.8z"/>
		<path class="st9" d="M946.8,274.8h-7.9v18.2h-5.3v-18.2h-8v-4.5h21.2V274.8z"/>
		<path class="st9" d="M969.1,271.5c1.7,1,3.1,2.3,4.1,4.1c1,1.8,1.5,3.8,1.5,6.1s-0.5,4.3-1.5,6.1c-1,1.8-2.4,3.1-4.1,4.1
			c-1.7,1-3.7,1.4-5.9,1.4c-3.1,0-5.5-1-7.3-3.1v11h-5.3v-30.9h5v3c0.9-1.1,2-1.9,3.2-2.4c1.3-0.5,2.7-0.8,4.3-0.8
			C965.4,270,967.4,270.5,969.1,271.5z M967.5,286.8c1.3-1.3,1.9-3,1.9-5.1c0-2.1-0.6-3.8-1.9-5.1c-1.3-1.3-2.9-2-4.8-2
			c-1.3,0-2.4,0.3-3.4,0.9c-1,0.6-1.8,1.4-2.4,2.5c-0.6,1.1-0.9,2.3-0.9,3.7c0,1.4,0.3,2.7,0.9,3.7c0.6,1.1,1.4,1.9,2.4,2.5
			c1,0.6,2.2,0.9,3.4,0.9C964.6,288.7,966.2,288.1,967.5,286.8z"/>
		<path class="st9" d="M997.6,279.7c1.5,1.3,2.3,3.1,2.3,5.5c0,2.5-0.8,4.4-2.5,5.8c-1.7,1.4-4.1,2-7.1,2l-10.3,0v-22.6h5.3v7.4
			l5.7,0C993.9,277.8,996.1,278.4,997.6,279.7z M993.3,288.1c0.8-0.7,1.2-1.7,1.2-3c0-1.3-0.4-2.2-1.2-2.8c-0.8-0.6-2-0.9-3.6-0.9
			l-4.5,0v7.7l4.5,0C991.3,289.1,992.5,288.8,993.3,288.1z M1002.8,270.3h5.3v22.6h-5.3V270.3z"/>
	</g>
</g>
<g>
	<g>
		<path class="st9" d="M1077.4,216.9c-0.7-0.3-1.4-0.8-2.1-1.5c-0.7-0.5-1.2-0.9-1.5-1c-0.3-0.2-0.7-0.3-1.1-0.3
			c-0.7,0-1.3,0.3-1.7,0.8c-0.4,0.6-0.7,1.3-0.7,2.2h-2.9c0-2.1,0.5-3.7,1.4-4.8c0.9-1.1,2.1-1.6,3.6-1.6c0.9,0,1.7,0.2,2.3,0.5
			c0.7,0.3,1.4,0.8,2.2,1.5c0.6,0.5,1,0.8,1.4,1c0.4,0.2,0.8,0.3,1.1,0.3c0.7,0,1.3-0.3,1.7-0.8c0.4-0.6,0.7-1.3,0.7-2.2h2.8
			c0,2.1-0.5,3.7-1.4,4.8c-0.9,1.1-2.1,1.6-3.6,1.6C1078.8,217.5,1078.1,217.3,1077.4,216.9z"/>
		<path class="st9" d="M1096.3,201.6v25.2h-4.7v-21.3h-5.3v-3.9H1096.3z"/>
		<path class="st9" d="M1122.4,216.1h-4.7v10.6h-4.6v-25.2h4.6v10.5h4.8l7.2-10.5h5l-8.6,12.2l8.9,13h-5.3L1122.4,216.1z"/>
		<path class="st9" d="M1138.4,201.6h19.6v3.9h-15v6.2h7.5c3,0,5.3,0.6,6.9,1.9c1.6,1.3,2.4,3.1,2.4,5.5c0,2.5-0.9,4.4-2.6,5.8
			c-1.7,1.4-4.2,2-7.4,2h-11.3V201.6z M1149.4,223.2c1.8,0,3.2-0.3,4.1-1c0.9-0.7,1.4-1.7,1.4-3c0-2.6-1.8-3.9-5.5-3.9h-6.5v8
			H1149.4z"/>
		<path class="st9" d="M1035.9,244.8V270h-4.7v-21.3h-5.3v-3.9H1035.9z"/>
		<path class="st9" d="M1041.3,258.1h9.9v3.7h-9.9V258.1z"/>
		<path class="st9" d="M1072.5,266v4h-18.6v-3.1l10-9.5c1.1-1.1,1.9-2,2.3-2.8c0.4-0.8,0.6-1.6,0.6-2.4c0-1.2-0.4-2.1-1.2-2.7
			c-0.8-0.6-2-0.9-3.5-0.9c-2.6,0-4.5,0.9-5.9,2.6l-3.3-2.5c1-1.3,2.3-2.3,4-3.1c1.7-0.7,3.5-1.1,5.6-1.1c2.7,0,4.9,0.6,6.6,1.9
			c1.6,1.3,2.4,3.1,2.4,5.3c0,1.4-0.3,2.7-0.9,3.9c-0.6,1.2-1.7,2.6-3.3,4.1l-6.7,6.4H1072.5z"/>
		<path class="st9" d="M1107.6,266.1v8.2h-4.2V270h-16.9v-19.2h4.5v15.4h9.2v-15.4h4.5v15.4H1107.6z"/>
		<path class="st9" d="M1111.6,250.7h4.5v12.7l10.6-12.7h4.1V270h-4.5v-12.7l-10.6,12.7h-4.1V250.7z"/>
		<path class="st9" d="M1144.9,262.3h-3.5v7.7h-4.5v-19.2h4.5v7.8h3.6l5.7-7.8h4.8l-7,9.3l7.5,10h-5.3L1144.9,262.3z"/>
		<path class="st9" d="M1176.6,250.7V270h-4.5v-15.4h-7.2l-0.2,3.8c-0.1,2.5-0.4,4.7-0.7,6.4c-0.3,1.7-0.9,3.1-1.8,4.1
			c-0.8,1-2,1.5-3.4,1.5c-0.7,0-1.5-0.1-2.5-0.4l0.2-3.8c0.3,0.1,0.6,0.1,0.9,0.1c0.9,0,1.6-0.4,2.1-1.1c0.5-0.7,0.8-1.6,0.9-2.6
			c0.1-1,0.2-2.5,0.3-4.4l0.3-7.4H1176.6z"/>
		<path class="st9" d="M1196.3,252.6c1.5,1.4,2.2,3.4,2.2,6.1V270h-4.2v-2.3c-0.6,0.8-1.3,1.5-2.4,1.9c-1,0.4-2.2,0.7-3.7,0.7
			c-1.4,0-2.7-0.2-3.8-0.7s-1.9-1.2-2.5-2.1c-0.6-0.9-0.9-1.9-0.9-3c0-1.7,0.6-3.1,1.9-4.2c1.3-1,3.3-1.6,6.1-1.6h5v-0.3
			c0-1.3-0.4-2.4-1.2-3.1c-0.8-0.7-2-1.1-3.6-1.1c-1.1,0-2.1,0.2-3.2,0.5c-1,0.3-1.9,0.8-2.6,1.4l-1.8-3.3c1-0.8,2.2-1.4,3.6-1.8
			c1.4-0.4,2.9-0.6,4.5-0.6C1192.6,250.5,1194.8,251.2,1196.3,252.6z M1192.2,266.2c0.9-0.5,1.5-1.3,1.9-2.2v-2.2h-4.6
			c-2.6,0-3.9,0.9-3.9,2.6c0,0.8,0.3,1.5,1,1.9c0.6,0.5,1.5,0.7,2.7,0.7C1190.3,266.9,1191.3,266.7,1192.2,266.2z"/>
	</g>
</g>
<g>
	<g>
		<path class="st9" d="M1202.4,387c-0.7-0.3-1.4-0.8-2.1-1.5c-0.7-0.5-1.2-0.9-1.5-1c-0.3-0.2-0.7-0.3-1.1-0.3
			c-0.7,0-1.3,0.3-1.7,0.8c-0.4,0.6-0.7,1.3-0.7,2.2h-2.9c0-2.1,0.5-3.7,1.4-4.8c0.9-1.1,2.1-1.6,3.6-1.6c0.9,0,1.7,0.2,2.3,0.5
			c0.7,0.3,1.4,0.8,2.2,1.5c0.6,0.5,1,0.8,1.4,1c0.4,0.2,0.8,0.3,1.1,0.3c0.7,0,1.3-0.3,1.7-0.8c0.4-0.6,0.7-1.3,0.7-2.2h2.8
			c0,2.1-0.5,3.7-1.4,4.8c-0.9,1.1-2.1,1.6-3.6,1.6C1203.8,387.5,1203.1,387.3,1202.4,387z"/>
		<path class="st9" d="M1221.3,371.6v25.2h-4.7v-21.3h-5.3v-3.9H1221.3z"/>
		<path class="st9" d="M1231.4,395.6c-1.6-1-2.8-2.5-3.7-4.5s-1.4-4.3-1.4-7c0-2.7,0.5-5,1.4-7s2.2-3.4,3.7-4.5s3.4-1.5,5.4-1.5
			c2,0,3.8,0.5,5.4,1.5s2.8,2.5,3.8,4.5c0.9,2,1.4,4.3,1.4,7c0,2.7-0.5,5-1.4,7c-0.9,2-2.2,3.4-3.8,4.5c-1.6,1-3.4,1.5-5.4,1.5
			C1234.8,397.1,1233,396.6,1231.4,395.6z M1241,390.8c1-1.5,1.6-3.7,1.6-6.7c0-3-0.5-5.2-1.6-6.7s-2.5-2.2-4.3-2.2
			c-1.8,0-3.2,0.7-4.2,2.2s-1.6,3.7-1.6,6.7c0,3,0.5,5.2,1.6,6.7c1,1.5,2.5,2.2,4.2,2.2C1238.6,393.1,1240,392.3,1241,390.8z"/>
		<path class="st9" d="M1255.6,395.6c-1.6-1-2.8-2.5-3.7-4.5s-1.4-4.3-1.4-7c0-2.7,0.5-5,1.4-7s2.2-3.4,3.7-4.5s3.4-1.5,5.4-1.5
			c2,0,3.8,0.5,5.4,1.5s2.8,2.5,3.8,4.5c0.9,2,1.4,4.3,1.4,7c0,2.7-0.5,5-1.4,7c-0.9,2-2.2,3.4-3.8,4.5c-1.6,1-3.4,1.5-5.4,1.5
			C1259,397.1,1257.2,396.6,1255.6,395.6z M1265.3,390.8c1-1.5,1.6-3.7,1.6-6.7c0-3-0.5-5.2-1.6-6.7s-2.5-2.2-4.3-2.2
			c-1.8,0-3.2,0.7-4.2,2.2s-1.6,3.7-1.6,6.7c0,3,0.5,5.2,1.6,6.7c1,1.5,2.5,2.2,4.2,2.2C1262.8,393.1,1264.2,392.3,1265.3,390.8z"/>
		<path class="st9" d="M1295.9,386.2h-4.7v10.6h-4.6v-25.2h4.6v10.5h4.8l7.2-10.5h5l-8.6,12.2l8.9,13h-5.3L1295.9,386.2z"/>
		<path class="st9" d="M1311.8,371.6h19.6v3.9h-15v6.2h7.5c3,0,5.3,0.6,6.9,1.9c1.6,1.3,2.4,3.1,2.4,5.5c0,2.5-0.9,4.4-2.6,5.8
			c-1.7,1.4-4.2,2-7.4,2h-11.3V371.6z M1322.9,393.2c1.8,0,3.2-0.3,4.1-1c0.9-0.7,1.4-1.7,1.4-3c0-2.6-1.8-3.9-5.5-3.9h-6.5v8
			H1322.9z"/>
		<path class="st9" d="M1191.2,436v4h-18.6v-3.1l10-9.5c1.1-1.1,1.9-2,2.3-2.8c0.4-0.8,0.6-1.6,0.6-2.4c0-1.2-0.4-2.1-1.2-2.7
			c-0.8-0.6-2-0.9-3.5-0.9c-2.6,0-4.5,0.9-5.9,2.6l-3.3-2.5c1-1.3,2.3-2.3,4-3.1c1.7-0.7,3.5-1.1,5.6-1.1c2.7,0,4.9,0.6,6.6,1.9
			c1.6,1.3,2.4,3.1,2.4,5.3c0,1.4-0.3,2.7-0.9,3.9c-0.6,1.2-1.7,2.6-3.3,4.1l-6.7,6.4H1191.2z"/>
		<path class="st9" d="M1194.1,428.1h9.9v3.7h-9.9V428.1z"/>
		<path class="st9" d="M1222.9,427.6c1.2,1.3,1.8,2.9,1.8,4.9c0,1.5-0.4,2.8-1.1,4c-0.7,1.2-1.9,2.2-3.4,2.9
			c-1.5,0.7-3.3,1.1-5.5,1.1c-1.8,0-3.5-0.3-5.2-0.8c-1.7-0.5-3.1-1.2-4.3-2.1l2-3.6c0.9,0.8,2,1.4,3.3,1.8c1.3,0.4,2.7,0.7,4,0.7
			c1.7,0,3-0.3,3.9-1s1.4-1.6,1.4-2.8c0-1.2-0.5-2.1-1.3-2.8c-0.9-0.7-2.3-1-4.1-1h-2.3v-3.2l5.7-6.8h-11.4v-3.9h17.2v3.1l-6.1,7.3
			C1219.9,425.5,1221.7,426.3,1222.9,427.6z"/>
		<path class="st9" d="M1260.3,436.2v8.2h-4.2V440h-16.9v-19.2h4.5v15.4h9.2v-15.4h4.5v15.4H1260.3z"/>
		<path class="st9" d="M1264.3,420.8h4.5v12.7l10.6-12.7h4.1V440h-4.5v-12.7l-10.6,12.7h-4.1V420.8z"/>
		<path class="st9" d="M1297.6,432.3h-3.5v7.7h-4.5v-19.2h4.5v7.8h3.6l5.7-7.8h4.8l-7,9.3l7.5,10h-5.3L1297.6,432.3z"/>
		<path class="st9" d="M1329.2,420.8V440h-4.5v-15.4h-7.2l-0.2,3.8c-0.1,2.5-0.4,4.7-0.7,6.4c-0.3,1.7-0.9,3.1-1.8,4.1
			c-0.8,1-2,1.5-3.4,1.5c-0.7,0-1.5-0.1-2.5-0.4l0.2-3.8c0.3,0.1,0.6,0.1,0.9,0.1c0.9,0,1.6-0.4,2.1-1.1c0.5-0.7,0.8-1.6,0.9-2.6
			c0.1-1,0.2-2.5,0.3-4.4l0.3-7.4H1329.2z"/>
		<path class="st9" d="M1349,422.6c1.5,1.4,2.2,3.4,2.2,6.1V440h-4.2v-2.3c-0.6,0.8-1.3,1.5-2.4,1.9c-1,0.4-2.2,0.7-3.7,0.7
			c-1.4,0-2.7-0.2-3.8-0.7s-1.9-1.2-2.5-2.1c-0.6-0.9-0.9-1.9-0.9-3c0-1.7,0.6-3.1,1.9-4.2c1.3-1,3.3-1.6,6.1-1.6h5v-0.3
			c0-1.3-0.4-2.4-1.2-3.1c-0.8-0.7-2-1.1-3.6-1.1c-1.1,0-2.1,0.2-3.2,0.5c-1,0.3-1.9,0.8-2.6,1.4l-1.8-3.3c1-0.8,2.2-1.4,3.6-1.8
			c1.4-0.4,2.9-0.6,4.5-0.6C1345.3,420.5,1347.5,421.2,1349,422.6z M1344.8,436.2c0.9-0.5,1.5-1.3,1.9-2.2v-2.2h-4.6
			c-2.6,0-3.9,0.9-3.9,2.6c0,0.8,0.3,1.5,1,1.9c0.6,0.5,1.5,0.7,2.7,0.7C1343,437,1344,436.7,1344.8,436.2z"/>
	</g>
</g>
<g>
	<g>
		<path class="st9" d="M1329.3,535.4c-0.7-0.3-1.4-0.8-2.1-1.5c-0.7-0.5-1.2-0.9-1.5-1c-0.3-0.2-0.7-0.3-1.1-0.3
			c-0.7,0-1.3,0.3-1.7,0.8c-0.4,0.6-0.7,1.3-0.7,2.2h-2.9c0-2.1,0.5-3.7,1.4-4.8c0.9-1.1,2.1-1.6,3.6-1.6c0.9,0,1.7,0.2,2.3,0.5
			c0.7,0.3,1.4,0.8,2.2,1.5c0.6,0.5,1,0.8,1.4,1c0.4,0.2,0.8,0.3,1.1,0.3c0.7,0,1.3-0.3,1.7-0.8c0.4-0.6,0.7-1.3,0.7-2.2h2.8
			c0,2.1-0.5,3.7-1.4,4.8c-0.9,1.1-2.1,1.6-3.6,1.6C1330.7,536,1329.9,535.8,1329.3,535.4z"/>
		<path class="st9" d="M1355.9,531.9c1.7,1.4,2.6,3.3,2.6,5.6c0,1.5-0.4,2.9-1.1,4.1c-0.7,1.2-1.9,2.2-3.3,2.9
			c-1.5,0.7-3.3,1.1-5.5,1.1c-1.8,0-3.5-0.3-5.2-0.8c-1.7-0.5-3.1-1.2-4.2-2.1l2-3.6c0.9,0.8,2.1,1.4,3.4,1.8c1.3,0.4,2.7,0.7,4,0.7
			c1.7,0,3-0.3,3.9-1s1.4-1.6,1.4-2.8c0-1.3-0.5-2.3-1.5-2.9c-1-0.7-2.8-1-5.2-1h-6.1l1.3-13.7h14.8v3.9h-10.8l-0.5,5.8h2.4
			C1351.6,529.8,1354.2,530.5,1355.9,531.9z"/>
		<path class="st9" d="M1366.3,544.1c-1.6-1-2.8-2.5-3.7-4.5s-1.4-4.3-1.4-7c0-2.7,0.5-5,1.4-7s2.2-3.4,3.7-4.5s3.4-1.5,5.4-1.5
			c2,0,3.8,0.5,5.4,1.5s2.8,2.5,3.8,4.5c0.9,2,1.4,4.3,1.4,7c0,2.7-0.5,5-1.4,7c-0.9,2-2.2,3.4-3.8,4.5c-1.6,1-3.4,1.5-5.4,1.5
			C1369.6,545.6,1367.8,545.1,1366.3,544.1z M1375.9,539.3c1-1.5,1.6-3.7,1.6-6.7c0-3-0.5-5.2-1.6-6.7s-2.5-2.2-4.3-2.2
			c-1.8,0-3.2,0.7-4.2,2.2s-1.6,3.7-1.6,6.7c0,3,0.5,5.2,1.6,6.7c1,1.5,2.5,2.2,4.2,2.2C1373.5,541.5,1374.9,540.8,1375.9,539.3z"/>
		<path class="st9" d="M1390.5,544.1c-1.6-1-2.8-2.5-3.7-4.5s-1.4-4.3-1.4-7c0-2.7,0.5-5,1.4-7s2.2-3.4,3.7-4.5s3.4-1.5,5.4-1.5
			c2,0,3.8,0.5,5.4,1.5s2.8,2.5,3.8,4.5c0.9,2,1.4,4.3,1.4,7c0,2.7-0.5,5-1.4,7c-0.9,2-2.2,3.4-3.8,4.5c-1.6,1-3.4,1.5-5.4,1.5
			C1393.9,545.6,1392.1,545.1,1390.5,544.1z M1400.2,539.3c1-1.5,1.6-3.7,1.6-6.7c0-3-0.5-5.2-1.6-6.7s-2.5-2.2-4.3-2.2
			c-1.8,0-3.2,0.7-4.2,2.2s-1.6,3.7-1.6,6.7c0,3,0.5,5.2,1.6,6.7c1,1.5,2.5,2.2,4.2,2.2C1397.7,541.5,1399.1,540.8,1400.2,539.3z"/>
		<path class="st9" d="M1430.8,534.6h-4.7v10.6h-4.6v-25.2h4.6v10.5h4.8l7.2-10.5h5l-8.6,12.2l8.9,13h-5.3L1430.8,534.6z"/>
		<path class="st9" d="M1446.7,520.1h19.6v3.9h-15v6.2h7.5c3,0,5.3,0.6,6.9,1.9c1.6,1.3,2.4,3.1,2.4,5.5c0,2.5-0.9,4.4-2.6,5.8
			c-1.7,1.4-4.2,2-7.4,2h-11.3V520.1z M1457.8,541.7c1.8,0,3.2-0.3,4.1-1c0.9-0.7,1.4-1.7,1.4-3c0-2.6-1.8-3.9-5.5-3.9h-6.5v8
			H1457.8z"/>
		<path class="st9" d="M1319.4,576c1.2,1.3,1.8,2.9,1.8,4.9c0,1.5-0.4,2.8-1.1,4c-0.7,1.2-1.9,2.2-3.4,2.9c-1.5,0.7-3.3,1.1-5.5,1.1
			c-1.8,0-3.5-0.3-5.2-0.8s-3.1-1.2-4.3-2.1l2-3.6c0.9,0.8,2,1.4,3.3,1.8c1.3,0.4,2.7,0.7,4,0.7c1.7,0,3-0.3,3.9-1
			c0.9-0.7,1.4-1.6,1.4-2.8c0-1.2-0.5-2.1-1.3-2.8c-0.9-0.7-2.3-1-4.1-1h-2.3V574l5.7-6.8H1303v-3.9h17.2v3.1l-6.1,7.3
			C1316.4,573.9,1318.2,574.7,1319.4,576z"/>
		<path class="st9" d="M1324.7,576.6h9.9v3.7h-9.9V576.6z"/>
		<path class="st9" d="M1353.9,575.1c1.7,1.4,2.6,3.3,2.6,5.6c0,1.5-0.4,2.9-1.1,4.1c-0.7,1.2-1.9,2.2-3.3,2.9
			c-1.5,0.7-3.3,1.1-5.5,1.1c-1.8,0-3.5-0.3-5.2-0.8s-3.1-1.2-4.2-2.1l2-3.6c0.9,0.8,2.1,1.4,3.4,1.8c1.3,0.4,2.7,0.7,4,0.7
			c1.7,0,3-0.3,3.9-1c0.9-0.7,1.4-1.6,1.4-2.8c0-1.3-0.5-2.3-1.5-2.9c-1-0.7-2.8-1-5.2-1h-6.1l1.3-13.7h14.8v3.9h-10.8l-0.5,5.8h2.4
			C1349.6,573,1352.2,573.7,1353.9,575.1z"/>
		<path class="st9" d="M1391.7,584.6v8.2h-4.2v-4.4h-16.9v-19.2h4.5v15.4h9.2v-15.4h4.5v15.4H1391.7z"/>
		<path class="st9" d="M1395.7,569.2h4.5v12.7l10.6-12.7h4.1v19.2h-4.5v-12.7l-10.6,12.7h-4.1V569.2z"/>
		<path class="st9" d="M1428.9,580.8h-3.5v7.7h-4.5v-19.2h4.5v7.8h3.6l5.7-7.8h4.8l-7,9.3l7.5,10h-5.3L1428.9,580.8z"/>
		<path class="st9" d="M1460.6,569.2v19.2h-4.5V573h-7.2l-0.2,3.8c-0.1,2.5-0.4,4.7-0.7,6.4c-0.3,1.7-0.9,3.1-1.8,4.1
			c-0.8,1-2,1.5-3.4,1.5c-0.7,0-1.5-0.1-2.5-0.4l0.2-3.8c0.3,0.1,0.6,0.1,0.9,0.1c0.9,0,1.6-0.4,2.1-1.1c0.5-0.7,0.8-1.6,0.9-2.6
			c0.1-1,0.2-2.5,0.3-4.4l0.3-7.4H1460.6z"/>
		<path class="st9" d="M1480.3,571c1.5,1.4,2.2,3.4,2.2,6.1v11.3h-4.2v-2.3c-0.6,0.8-1.3,1.5-2.4,1.9c-1,0.4-2.2,0.7-3.7,0.7
			c-1.4,0-2.7-0.2-3.8-0.7c-1.1-0.5-1.9-1.2-2.5-2.1c-0.6-0.9-0.9-1.9-0.9-3c0-1.7,0.6-3.1,1.9-4.2c1.3-1,3.3-1.6,6.1-1.6h5v-0.3
			c0-1.3-0.4-2.4-1.2-3.1c-0.8-0.7-2-1.1-3.6-1.1c-1.1,0-2.1,0.2-3.2,0.5c-1,0.3-1.9,0.8-2.6,1.4l-1.8-3.3c1-0.8,2.2-1.4,3.6-1.8
			c1.4-0.4,2.9-0.6,4.5-0.6C1476.6,569,1478.8,569.7,1480.3,571z M1476.2,584.7c0.9-0.5,1.5-1.3,1.9-2.2v-2.2h-4.6
			c-2.6,0-3.9,0.9-3.9,2.6c0,0.8,0.3,1.5,1,1.9c0.6,0.5,1.5,0.7,2.7,0.7C1474.3,585.4,1475.3,585.2,1476.2,584.7z"/>
	</g>
</g>
<g>
	<g>
		<path class="st9" d="M1453,666.9c-0.7-0.3-1.4-0.8-2.1-1.5c-0.7-0.5-1.2-0.9-1.5-1c-0.3-0.2-0.7-0.3-1.1-0.3
			c-0.7,0-1.3,0.3-1.7,0.8c-0.4,0.6-0.7,1.3-0.7,2.2h-2.9c0-2.1,0.5-3.7,1.4-4.8c0.9-1.1,2.1-1.6,3.6-1.6c0.9,0,1.7,0.2,2.3,0.5
			s1.4,0.8,2.2,1.5c0.6,0.5,1,0.8,1.4,1c0.4,0.2,0.8,0.3,1.1,0.3c0.7,0,1.3-0.3,1.7-0.8s0.7-1.3,0.7-2.2h2.8c0,2.1-0.5,3.7-1.4,4.8
			s-2.1,1.6-3.6,1.6C1454.5,667.5,1453.7,667.3,1453,666.9z"/>
		<path class="st9" d="M1471.9,651.6v25.2h-4.7v-21.3h-5.3v-3.9H1471.9z"/>
		<path class="st9" d="M1482,675.6c-1.6-1-2.8-2.5-3.7-4.5s-1.4-4.3-1.4-7c0-2.7,0.5-5,1.4-7s2.2-3.4,3.7-4.5c1.6-1,3.4-1.5,5.4-1.5
			c2,0,3.8,0.5,5.4,1.5c1.6,1,2.8,2.5,3.8,4.5c0.9,2,1.4,4.3,1.4,7c0,2.7-0.5,5-1.4,7c-0.9,2-2.2,3.4-3.8,4.5s-3.4,1.5-5.4,1.5
			C1485.4,677.1,1483.6,676.6,1482,675.6z M1491.7,670.8c1-1.5,1.6-3.7,1.6-6.7c0-3-0.5-5.2-1.6-6.7s-2.5-2.2-4.3-2.2
			c-1.8,0-3.2,0.7-4.2,2.2s-1.6,3.7-1.6,6.7c0,3,0.5,5.2,1.6,6.7c1,1.5,2.5,2.2,4.2,2.2C1489.2,673,1490.6,672.3,1491.7,670.8z"/>
		<path class="st9" d="M1501.7,664.9h9.9v3.7h-9.9V664.9z"/>
		<path class="st9" d="M1523.2,651.6v25.2h-4.7v-21.3h-5.3v-3.9H1523.2z"/>
		<path class="st9" d="M1543.9,663.4c1.7,1.4,2.6,3.3,2.6,5.6c0,1.5-0.4,2.9-1.1,4.1c-0.7,1.2-1.9,2.2-3.3,2.9
			c-1.5,0.7-3.3,1.1-5.5,1.1c-1.8,0-3.5-0.3-5.2-0.8s-3.1-1.2-4.2-2.1l2-3.6c0.9,0.8,2.1,1.4,3.4,1.8c1.3,0.4,2.7,0.7,4,0.7
			c1.7,0,3-0.3,3.9-1c0.9-0.7,1.4-1.6,1.4-2.8c0-1.3-0.5-2.3-1.5-2.9c-1-0.7-2.8-1-5.2-1h-6.1l1.3-13.7h14.8v3.9h-10.8l-0.5,5.8h2.4
			C1539.6,661.3,1542.2,662,1543.9,663.4z"/>
		<path class="st9" d="M1584.2,676.8l0-16.7l-8.3,13.8h-2.1l-8.3-13.6v16.5h-4.4v-25.2h3.9l10,16.7l9.9-16.7h3.8l0.1,25.2H1584.2z"
			/>
		<path class="st9" d="M1595.8,651.6h19.6v3.9h-15v6.2h7.5c3,0,5.3,0.6,6.9,1.9c1.6,1.3,2.4,3.1,2.4,5.5c0,2.5-0.9,4.4-2.6,5.8
			c-1.7,1.4-4.2,2-7.4,2h-11.3V651.6z M1606.9,673.2c1.8,0,3.2-0.3,4.1-1c0.9-0.7,1.4-1.7,1.4-3c0-2.6-1.8-3.9-5.5-3.9h-6.5v8
			H1606.9z"/>
		<path class="st9" d="M1431.5,707.5c1.2,1.3,1.8,2.9,1.8,4.9c0,1.5-0.4,2.8-1.1,4c-0.7,1.2-1.9,2.2-3.4,2.9
			c-1.5,0.7-3.3,1.1-5.5,1.1c-1.8,0-3.5-0.3-5.2-0.8c-1.7-0.5-3.1-1.2-4.3-2.1l2-3.6c0.9,0.8,2,1.4,3.3,1.8c1.3,0.4,2.7,0.7,4,0.7
			c1.7,0,3-0.3,3.9-1c0.9-0.7,1.4-1.6,1.4-2.8s-0.5-2.1-1.3-2.8c-0.9-0.7-2.3-1-4.1-1h-2.3v-3.2l5.7-6.8h-11.4v-3.9h17.2v3.1
			l-6.1,7.3C1428.5,705.4,1430.3,706.2,1431.5,707.5z"/>
		<path class="st9" d="M1441.5,718.8c-1.6-1-2.8-2.5-3.7-4.5s-1.4-4.3-1.4-7c0-2.7,0.5-5,1.4-7s2.2-3.4,3.7-4.5
			c1.6-1,3.4-1.5,5.4-1.5c2,0,3.8,0.5,5.4,1.5c1.6,1,2.8,2.5,3.8,4.5c0.9,2,1.4,4.3,1.4,7c0,2.7-0.5,5-1.4,7c-0.9,2-2.2,3.4-3.8,4.5
			c-1.6,1-3.4,1.5-5.4,1.5C1444.9,720.3,1443.1,719.8,1441.5,718.8z M1451.2,714c1-1.5,1.6-3.7,1.6-6.7s-0.5-5.2-1.6-6.7
			s-2.5-2.2-4.3-2.2c-1.8,0-3.2,0.7-4.2,2.2s-1.6,3.7-1.6,6.7s0.5,5.2,1.6,6.7s2.5,2.2,4.2,2.2
			C1448.7,716.2,1450.1,715.5,1451.2,714z"/>
		<path class="st9" d="M1461.2,708.1h9.9v3.7h-9.9V708.1z"/>
		<path class="st9" d="M1490.4,706.6c1.7,1.4,2.6,3.3,2.6,5.6c0,1.5-0.4,2.9-1.1,4.1c-0.7,1.2-1.9,2.2-3.3,2.9
			c-1.5,0.7-3.3,1.1-5.5,1.1c-1.8,0-3.5-0.3-5.2-0.8c-1.7-0.5-3.1-1.2-4.2-2.1l2-3.6c0.9,0.8,2.1,1.4,3.4,1.8c1.3,0.4,2.7,0.7,4,0.7
			c1.7,0,3-0.3,3.9-1c0.9-0.7,1.4-1.6,1.4-2.8c0-1.3-0.5-2.3-1.5-2.9c-1-0.7-2.8-1-5.2-1h-6.1l1.3-13.7h14.8v3.9h-10.8l-0.5,5.8h2.4
			C1486.1,704.5,1488.7,705.2,1490.4,706.6z"/>
		<path class="st9" d="M1500.8,718.8c-1.6-1-2.8-2.5-3.7-4.5s-1.4-4.3-1.4-7c0-2.7,0.5-5,1.4-7s2.2-3.4,3.7-4.5
			c1.6-1,3.4-1.5,5.4-1.5c2,0,3.8,0.5,5.4,1.5c1.6,1,2.8,2.5,3.8,4.5c0.9,2,1.4,4.3,1.4,7c0,2.7-0.5,5-1.4,7c-0.9,2-2.2,3.4-3.8,4.5
			c-1.6,1-3.4,1.5-5.4,1.5C1504.2,720.3,1502.4,719.8,1500.8,718.8z M1510.5,714c1-1.5,1.6-3.7,1.6-6.7s-0.5-5.2-1.6-6.7
			s-2.5-2.2-4.3-2.2c-1.8,0-3.2,0.7-4.2,2.2s-1.6,3.7-1.6,6.7s0.5,5.2,1.6,6.7s2.5,2.2,4.2,2.2C1508,716.2,1509.4,715.5,1510.5,714z
			"/>
		<path class="st9" d="M1552.4,716.1v8.2h-4.2V720h-16.9v-19.2h4.5v15.4h9.2v-15.4h4.5v15.4H1552.4z"/>
		<path class="st9" d="M1556.4,700.7h4.5v12.7l10.6-12.7h4.1V720h-4.5v-12.7l-10.6,12.7h-4.1V700.7z"/>
		<path class="st9" d="M1589.7,712.3h-3.5v7.7h-4.5v-19.2h4.5v7.8h3.6l5.7-7.8h4.8l-7,9.3l7.5,10h-5.3L1589.7,712.3z"/>
		<path class="st9" d="M1621.3,700.7V720h-4.5v-15.4h-7.2l-0.2,3.8c-0.1,2.5-0.4,4.7-0.7,6.4c-0.3,1.7-0.9,3.1-1.8,4.1
			c-0.8,1-2,1.5-3.4,1.5c-0.7,0-1.5-0.1-2.5-0.4l0.2-3.8c0.3,0.1,0.6,0.1,0.9,0.1c0.9,0,1.6-0.4,2.1-1.1c0.5-0.7,0.8-1.6,0.9-2.6
			c0.1-1,0.2-2.5,0.3-4.4l0.3-7.4H1621.3z"/>
		<path class="st9" d="M1641,702.5c1.5,1.4,2.2,3.4,2.2,6.1V720h-4.2v-2.3c-0.6,0.8-1.3,1.5-2.4,1.9c-1,0.4-2.2,0.7-3.7,0.7
			c-1.4,0-2.7-0.2-3.8-0.7c-1.1-0.5-1.9-1.2-2.5-2.1c-0.6-0.9-0.9-1.9-0.9-3c0-1.7,0.6-3.1,1.9-4.2c1.3-1,3.3-1.6,6.1-1.6h5v-0.3
			c0-1.3-0.4-2.4-1.2-3.1c-0.8-0.7-2-1.1-3.6-1.1c-1.1,0-2.1,0.2-3.2,0.5s-1.9,0.8-2.6,1.4l-1.8-3.3c1-0.8,2.2-1.4,3.6-1.8
			c1.4-0.4,2.9-0.6,4.5-0.6C1637.4,700.5,1639.5,701.2,1641,702.5z M1636.9,716.2c0.9-0.5,1.5-1.3,1.9-2.2v-2.2h-4.6
			c-2.6,0-3.9,0.9-3.9,2.6c0,0.8,0.3,1.5,1,1.9c0.6,0.5,1.5,0.7,2.7,0.7C1635.1,716.9,1636.1,716.7,1636.9,716.2z"/>
	</g>
</g>
<g>
	<g>
		<path class="st9" d="M1615,808.7c-0.7-0.3-1.4-0.8-2.1-1.5c-0.7-0.5-1.2-0.9-1.5-1c-0.3-0.2-0.7-0.3-1.1-0.3
			c-0.7,0-1.3,0.3-1.7,0.8c-0.4,0.6-0.7,1.3-0.7,2.2h-2.9c0-2.1,0.5-3.7,1.4-4.8c0.9-1.1,2.1-1.6,3.6-1.6c0.9,0,1.7,0.2,2.3,0.5
			s1.4,0.8,2.2,1.5c0.6,0.5,1,0.8,1.4,1c0.4,0.2,0.8,0.3,1.1,0.3c0.7,0,1.3-0.3,1.7-0.8s0.7-1.3,0.7-2.2h2.8c0,2.1-0.5,3.7-1.4,4.8
			s-2.1,1.6-3.6,1.6C1616.4,809.2,1615.6,809,1615,808.7z"/>
		<path class="st9" d="M1633.8,793.3v25.2h-4.7v-21.3h-5.3v-3.9H1633.8z"/>
		<path class="st9" d="M1643.9,817.3c-1.6-1-2.8-2.5-3.7-4.5s-1.4-4.3-1.4-7c0-2.7,0.5-5,1.4-7s2.2-3.4,3.7-4.5
			c1.6-1,3.4-1.5,5.4-1.5c2,0,3.8,0.5,5.4,1.5c1.6,1,2.8,2.5,3.8,4.5c0.9,2,1.4,4.3,1.4,7c0,2.7-0.5,5-1.4,7c-0.9,2-2.2,3.4-3.8,4.5
			s-3.4,1.5-5.4,1.5C1647.3,818.9,1645.5,818.4,1643.9,817.3z M1653.6,812.6c1-1.5,1.6-3.7,1.6-6.7c0-3-0.5-5.2-1.6-6.7
			c-1-1.5-2.5-2.2-4.3-2.2c-1.8,0-3.2,0.7-4.2,2.2c-1,1.5-1.6,3.7-1.6,6.7c0,3,0.5,5.2,1.6,6.7c1,1.5,2.5,2.2,4.2,2.2
			C1651.1,814.8,1652.6,814.1,1653.6,812.6z"/>
		<path class="st9" d="M1692,797.3h-12.5l0,21.2h-4.6v-25.2h17.1L1692,797.3z"/>
		<path class="st9" d="M1696,793.3h19.6v3.9h-15v6.2h7.5c3,0,5.3,0.6,6.9,1.9c1.6,1.3,2.4,3.1,2.4,5.5c0,2.5-0.9,4.4-2.6,5.8
			c-1.7,1.4-4.2,2-7.4,2H1696V793.3z M1707.1,814.9c1.8,0,3.2-0.3,4.1-1c0.9-0.7,1.4-1.7,1.4-3c0-2.6-1.8-3.9-5.5-3.9h-6.5v8H1707.1
			z"/>
		<path class="st9" d="M1550.5,848.3c1.7,1.4,2.6,3.3,2.6,5.6c0,1.5-0.4,2.9-1.1,4.1s-1.9,2.2-3.3,2.9s-3.3,1.1-5.5,1.1
			c-1.8,0-3.5-0.3-5.2-0.8c-1.7-0.5-3.1-1.2-4.2-2.1l2-3.6c0.9,0.8,2.1,1.4,3.4,1.8c1.3,0.4,2.7,0.7,4,0.7c1.7,0,3-0.3,3.9-1
			c0.9-0.7,1.4-1.6,1.4-2.8c0-1.3-0.5-2.3-1.5-2.9c-1-0.7-2.8-1-5.2-1h-6.1l1.3-13.7h14.8v3.9h-10.8l-0.5,5.8h2.4
			C1546.2,846.3,1548.8,847,1550.5,848.3z"/>
		<path class="st9" d="M1560.9,860.5c-1.6-1-2.8-2.5-3.7-4.5s-1.4-4.3-1.4-7c0-2.7,0.5-5,1.4-7s2.2-3.4,3.7-4.5
			c1.6-1,3.4-1.5,5.4-1.5c2,0,3.8,0.5,5.4,1.5c1.6,1,2.8,2.5,3.8,4.5c0.9,2,1.4,4.3,1.4,7c0,2.7-0.5,5-1.4,7c-0.9,2-2.2,3.4-3.8,4.5
			c-1.6,1-3.4,1.5-5.4,1.5C1564.3,862.1,1562.5,861.6,1560.9,860.5z M1570.6,855.8c1-1.5,1.6-3.7,1.6-6.7s-0.5-5.2-1.6-6.7
			c-1-1.5-2.5-2.2-4.3-2.2c-1.8,0-3.2,0.7-4.2,2.2c-1,1.5-1.6,3.7-1.6,6.7s0.5,5.2,1.6,6.7c1,1.5,2.5,2.2,4.2,2.2
			C1568.1,858,1569.5,857.3,1570.6,855.8z"/>
		<path class="st9" d="M1580.6,849.8h9.9v3.7h-9.9V849.8z"/>
		<path class="st9" d="M1611.8,857.7v4h-18.6v-3.1l10-9.5c1.1-1.1,1.9-2,2.3-2.8c0.4-0.8,0.6-1.6,0.6-2.4c0-1.2-0.4-2.1-1.2-2.7
			c-0.8-0.6-2-0.9-3.5-0.9c-2.6,0-4.5,0.9-5.9,2.6l-3.3-2.5c1-1.3,2.3-2.3,4-3.1c1.7-0.7,3.5-1.1,5.6-1.1c2.7,0,4.9,0.6,6.6,1.9
			c1.6,1.3,2.4,3.1,2.4,5.3c0,1.4-0.3,2.7-0.9,3.9s-1.7,2.6-3.3,4.1l-6.7,6.4H1611.8z"/>
		<path class="st9" d="M1619.5,860.5c-1.6-1-2.8-2.5-3.7-4.5s-1.4-4.3-1.4-7c0-2.7,0.5-5,1.4-7s2.2-3.4,3.7-4.5
			c1.6-1,3.4-1.5,5.4-1.5c2,0,3.8,0.5,5.4,1.5c1.6,1,2.8,2.5,3.8,4.5c0.9,2,1.4,4.3,1.4,7c0,2.7-0.5,5-1.4,7c-0.9,2-2.2,3.4-3.8,4.5
			c-1.6,1-3.4,1.5-5.4,1.5C1622.9,862.1,1621.1,861.6,1619.5,860.5z M1629.2,855.8c1-1.5,1.6-3.7,1.6-6.7s-0.5-5.2-1.6-6.7
			c-1-1.5-2.5-2.2-4.3-2.2c-1.8,0-3.2,0.7-4.2,2.2c-1,1.5-1.6,3.7-1.6,6.7s0.5,5.2,1.6,6.7c1,1.5,2.5,2.2,4.2,2.2
			C1626.7,858,1628.1,857.3,1629.2,855.8z"/>
		<path class="st9" d="M1643.7,860.5c-1.6-1-2.8-2.5-3.7-4.5s-1.4-4.3-1.4-7c0-2.7,0.5-5,1.4-7s2.2-3.4,3.7-4.5
			c1.6-1,3.4-1.5,5.4-1.5s3.8,0.5,5.4,1.5c1.6,1,2.8,2.5,3.8,4.5s1.4,4.3,1.4,7c0,2.7-0.5,5-1.4,7s-2.2,3.4-3.8,4.5
			c-1.6,1-3.4,1.5-5.4,1.5S1645.3,861.6,1643.7,860.5z M1653.4,855.8c1-1.5,1.6-3.7,1.6-6.7s-0.5-5.2-1.6-6.7
			c-1-1.5-2.5-2.2-4.3-2.2c-1.8,0-3.2,0.7-4.2,2.2c-1,1.5-1.6,3.7-1.6,6.7s0.5,5.2,1.6,6.7c1,1.5,2.5,2.2,4.2,2.2
			C1650.9,858,1652.3,857.3,1653.4,855.8z"/>
		<path class="st9" d="M1695.3,857.9v8.2h-4.2v-4.4h-16.9v-19.2h4.5v15.4h9.2v-15.4h4.5v15.4H1695.3z"/>
		<path class="st9" d="M1699.3,842.5h4.5v12.7l10.6-12.7h4.1v19.2h-4.5V849l-10.6,12.7h-4.1V842.5z"/>
		<path class="st9" d="M1732.6,854h-3.5v7.7h-4.5v-19.2h4.5v7.8h3.6l5.7-7.8h4.8l-7,9.3l7.5,10h-5.3L1732.6,854z"/>
		<path class="st9" d="M1764.2,842.5v19.2h-4.5v-15.4h-7.2l-0.2,3.8c-0.1,2.5-0.4,4.7-0.7,6.4c-0.3,1.7-0.9,3.1-1.8,4.1
			c-0.8,1-2,1.5-3.4,1.5c-0.7,0-1.5-0.1-2.5-0.4l0.2-3.8c0.3,0.1,0.6,0.1,0.9,0.1c0.9,0,1.6-0.4,2.1-1.1c0.5-0.7,0.8-1.6,0.9-2.6
			c0.1-1,0.2-2.5,0.3-4.4l0.3-7.4H1764.2z"/>
		<path class="st9" d="M1783.9,844.3c1.5,1.4,2.2,3.4,2.2,6.1v11.3h-4.2v-2.3c-0.6,0.8-1.3,1.5-2.4,1.9c-1,0.4-2.2,0.7-3.7,0.7
			c-1.4,0-2.7-0.2-3.8-0.7c-1.1-0.5-1.9-1.2-2.5-2.1c-0.6-0.9-0.9-1.9-0.9-3c0-1.7,0.6-3.1,1.9-4.2c1.3-1,3.3-1.6,6.1-1.6h5v-0.3
			c0-1.3-0.4-2.4-1.2-3.1c-0.8-0.7-2-1.1-3.6-1.1c-1.1,0-2.1,0.2-3.2,0.5c-1,0.3-1.9,0.8-2.6,1.4l-1.8-3.3c1-0.8,2.2-1.4,3.6-1.8
			c1.4-0.4,2.9-0.6,4.5-0.6C1780.3,842.3,1782.4,842.9,1783.9,844.3z M1779.8,857.9c0.9-0.5,1.5-1.3,1.9-2.2v-2.2h-4.6
			c-2.6,0-3.9,0.9-3.9,2.6c0,0.8,0.3,1.5,1,1.9c0.6,0.5,1.5,0.7,2.7,0.7C1778,858.7,1779,858.4,1779.8,857.9z"/>
	</g>
</g>
<g>
	<g>
		<path class="st9" d="M1712.8,945.9c-0.7-0.3-1.4-0.8-2.1-1.5c-0.7-0.5-1.2-0.9-1.5-1s-0.7-0.3-1.1-0.3c-0.7,0-1.3,0.3-1.7,0.8
			c-0.4,0.6-0.7,1.3-0.7,2.2h-2.9c0-2.1,0.5-3.7,1.4-4.8c0.9-1.1,2.1-1.6,3.6-1.6c0.9,0,1.7,0.2,2.3,0.5c0.7,0.3,1.4,0.8,2.2,1.5
			c0.6,0.5,1,0.8,1.4,1c0.4,0.2,0.8,0.3,1.1,0.3c0.7,0,1.3-0.3,1.7-0.8c0.4-0.6,0.7-1.3,0.7-2.2h2.8c0,2.1-0.5,3.7-1.4,4.8
			c-0.9,1.1-2.1,1.6-3.6,1.6C1714.2,946.5,1713.4,946.3,1712.8,945.9z"/>
		<path class="st9" d="M1731.6,930.6v25.2h-4.7v-21.3h-5.3v-3.9H1731.6z"/>
		<path class="st9" d="M1741.7,954.6c-1.6-1-2.8-2.5-3.7-4.5s-1.4-4.3-1.4-7c0-2.7,0.5-5,1.4-7s2.2-3.4,3.7-4.5
			c1.6-1,3.4-1.5,5.4-1.5c2,0,3.8,0.5,5.4,1.5c1.6,1,2.8,2.5,3.8,4.5c0.9,2,1.4,4.3,1.4,7c0,2.7-0.5,5-1.4,7c-0.9,2-2.2,3.4-3.8,4.5
			c-1.6,1-3.4,1.5-5.4,1.5C1745.1,956.1,1743.3,955.6,1741.7,954.6z M1751.4,949.8c1-1.5,1.6-3.7,1.6-6.7s-0.5-5.2-1.6-6.7
			s-2.5-2.2-4.3-2.2c-1.8,0-3.2,0.7-4.2,2.2s-1.6,3.7-1.6,6.7s0.5,5.2,1.6,6.7s2.5,2.2,4.2,2.2
			C1748.9,952,1750.4,951.3,1751.4,949.8z"/>
		<path class="st9" d="M1766,954.6c-1.6-1-2.8-2.5-3.7-4.5s-1.4-4.3-1.4-7c0-2.7,0.5-5,1.4-7s2.2-3.4,3.7-4.5c1.6-1,3.4-1.5,5.4-1.5
			c2,0,3.8,0.5,5.4,1.5c1.6,1,2.8,2.5,3.8,4.5c0.9,2,1.4,4.3,1.4,7c0,2.7-0.5,5-1.4,7c-0.9,2-2.2,3.4-3.8,4.5
			c-1.6,1-3.4,1.5-5.4,1.5C1769.4,956.1,1767.6,955.6,1766,954.6z M1775.6,949.8c1-1.5,1.6-3.7,1.6-6.7s-0.5-5.2-1.6-6.7
			s-2.5-2.2-4.3-2.2c-1.8,0-3.2,0.7-4.2,2.2s-1.6,3.7-1.6,6.7s0.5,5.2,1.6,6.7s2.5,2.2,4.2,2.2
			C1773.2,952,1774.6,951.3,1775.6,949.8z"/>
		<path class="st9" d="M1790.2,954.6c-1.6-1-2.8-2.5-3.7-4.5s-1.4-4.3-1.4-7c0-2.7,0.5-5,1.4-7s2.2-3.4,3.7-4.5
			c1.6-1,3.4-1.5,5.4-1.5c2,0,3.8,0.5,5.4,1.5c1.6,1,2.8,2.5,3.8,4.5c0.9,2,1.4,4.3,1.4,7c0,2.7-0.5,5-1.4,7c-0.9,2-2.2,3.4-3.8,4.5
			c-1.6,1-3.4,1.5-5.4,1.5C1793.6,956.1,1791.8,955.6,1790.2,954.6z M1799.9,949.8c1-1.5,1.6-3.7,1.6-6.7s-0.5-5.2-1.6-6.7
			s-2.5-2.2-4.3-2.2c-1.8,0-3.2,0.7-4.2,2.2s-1.6,3.7-1.6,6.7s0.5,5.2,1.6,6.7s2.5,2.2,4.2,2.2
			C1797.4,952,1798.8,951.3,1799.9,949.8z"/>
		<path class="st9" d="M1838.3,934.5h-12.5l0,21.2h-4.6v-25.2h17.1L1838.3,934.5z"/>
		<path class="st9" d="M1842.3,930.6h19.6v3.9h-15v6.2h7.5c3,0,5.3,0.6,6.9,1.9c1.6,1.3,2.4,3.1,2.4,5.5c0,2.5-0.9,4.4-2.6,5.8
			c-1.7,1.4-4.2,2-7.4,2h-11.3V930.6z M1853.4,952.2c1.8,0,3.2-0.3,4.1-1c0.9-0.7,1.4-1.7,1.4-3c0-2.6-1.8-3.9-5.5-3.9h-6.5v8
			H1853.4z"/>
		<path class="st9" d="M1665.6,985.6c1.7,1.4,2.6,3.3,2.6,5.6c0,1.5-0.4,2.9-1.1,4.1c-0.7,1.2-1.9,2.2-3.3,2.9
			c-1.5,0.7-3.3,1.1-5.5,1.1c-1.8,0-3.5-0.3-5.2-0.8s-3.1-1.2-4.2-2.1l2-3.6c0.9,0.8,2.1,1.4,3.4,1.8c1.3,0.4,2.7,0.7,4,0.7
			c1.7,0,3-0.3,3.9-1c0.9-0.7,1.4-1.6,1.4-2.8c0-1.3-0.5-2.3-1.5-2.9c-1-0.7-2.8-1-5.2-1h-6.1l1.3-13.7h14.8v3.9h-10.8l-0.5,5.8h2.4
			C1661.3,983.5,1663.9,984.2,1665.6,985.6z"/>
		<path class="st9" d="M1676,997.8c-1.6-1-2.8-2.5-3.7-4.5s-1.4-4.3-1.4-7c0-2.7,0.5-5,1.4-7s2.2-3.4,3.7-4.5c1.6-1,3.4-1.5,5.4-1.5
			c2,0,3.8,0.5,5.4,1.5c1.6,1,2.8,2.5,3.8,4.5c0.9,2,1.4,4.3,1.4,7c0,2.7-0.5,5-1.4,7c-0.9,2-2.2,3.4-3.8,4.5s-3.4,1.5-5.4,1.5
			C1679.4,999.3,1677.6,998.8,1676,997.8z M1685.6,993c1-1.5,1.6-3.7,1.6-6.7c0-3-0.5-5.2-1.6-6.7s-2.5-2.2-4.3-2.2
			c-1.8,0-3.2,0.7-4.2,2.2s-1.6,3.7-1.6,6.7c0,3,0.5,5.2,1.6,6.7c1,1.5,2.5,2.2,4.2,2.2C1683.2,995.2,1684.6,994.5,1685.6,993z"/>
		<path class="st9" d="M1700.2,997.8c-1.6-1-2.8-2.5-3.7-4.5s-1.4-4.3-1.4-7c0-2.7,0.5-5,1.4-7s2.2-3.4,3.7-4.5
			c1.6-1,3.4-1.5,5.4-1.5c2,0,3.8,0.5,5.4,1.5c1.6,1,2.8,2.5,3.8,4.5c0.9,2,1.4,4.3,1.4,7c0,2.7-0.5,5-1.4,7c-0.9,2-2.2,3.4-3.8,4.5
			s-3.4,1.5-5.4,1.5C1703.6,999.3,1701.8,998.8,1700.2,997.8z M1709.9,993c1-1.5,1.6-3.7,1.6-6.7c0-3-0.5-5.2-1.6-6.7
			s-2.5-2.2-4.3-2.2c-1.8,0-3.2,0.7-4.2,2.2s-1.6,3.7-1.6,6.7c0,3,0.5,5.2,1.6,6.7c1,1.5,2.5,2.2,4.2,2.2
			C1707.4,995.2,1708.8,994.5,1709.9,993z"/>
		<path class="st9" d="M1724.4,997.8c-1.6-1-2.8-2.5-3.7-4.5s-1.4-4.3-1.4-7c0-2.7,0.5-5,1.4-7s2.2-3.4,3.7-4.5
			c1.6-1,3.4-1.5,5.4-1.5c2,0,3.8,0.5,5.4,1.5c1.6,1,2.8,2.5,3.8,4.5c0.9,2,1.4,4.3,1.4,7c0,2.7-0.5,5-1.4,7c-0.9,2-2.2,3.4-3.8,4.5
			s-3.4,1.5-5.4,1.5C1727.8,999.3,1726,998.8,1724.4,997.8z M1734.1,993c1-1.5,1.6-3.7,1.6-6.7c0-3-0.5-5.2-1.6-6.7
			s-2.5-2.2-4.3-2.2c-1.8,0-3.2,0.7-4.2,2.2s-1.6,3.7-1.6,6.7c0,3,0.5,5.2,1.6,6.7c1,1.5,2.5,2.2,4.2,2.2
			C1731.6,995.2,1733.1,994.5,1734.1,993z"/>
		<path class="st9" d="M1748.7,997.8c-1.6-1-2.8-2.5-3.7-4.5s-1.4-4.3-1.4-7c0-2.7,0.5-5,1.4-7s2.2-3.4,3.7-4.5
			c1.6-1,3.4-1.5,5.4-1.5c2,0,3.8,0.5,5.4,1.5c1.6,1,2.8,2.5,3.8,4.5c0.9,2,1.4,4.3,1.4,7c0,2.7-0.5,5-1.4,7c-0.9,2-2.2,3.4-3.8,4.5
			s-3.4,1.5-5.4,1.5C1752,999.3,1750.2,998.8,1748.7,997.8z M1758.3,993c1-1.5,1.6-3.7,1.6-6.7c0-3-0.5-5.2-1.6-6.7
			s-2.5-2.2-4.3-2.2c-1.8,0-3.2,0.7-4.2,2.2s-1.6,3.7-1.6,6.7c0,3,0.5,5.2,1.6,6.7c1,1.5,2.5,2.2,4.2,2.2
			C1755.9,995.2,1757.3,994.5,1758.3,993z"/>
		<path class="st9" d="M1800.2,995.1v8.2h-4.2V999h-16.9v-19.2h4.5v15.4h9.2v-15.4h4.5v15.4H1800.2z"/>
		<path class="st9" d="M1804.2,979.7h4.5v12.7l10.6-12.7h4.1V999h-4.5v-12.7l-10.6,12.7h-4.1V979.7z"/>
		<path class="st9" d="M1837.5,991.3h-3.5v7.7h-4.5v-19.2h4.5v7.8h3.6l5.7-7.8h4.8l-7,9.3l7.5,10h-5.3L1837.5,991.3z"/>
		<path class="st9" d="M1869.2,979.7V999h-4.5v-15.4h-7.2l-0.2,3.8c-0.1,2.5-0.4,4.7-0.7,6.4c-0.3,1.7-0.9,3.1-1.8,4.1
			c-0.8,1-2,1.5-3.4,1.5c-0.7,0-1.5-0.1-2.5-0.4l0.2-3.8c0.3,0.1,0.6,0.1,0.9,0.1c0.9,0,1.6-0.4,2.1-1.1c0.5-0.7,0.8-1.6,0.9-2.6
			c0.1-1,0.2-2.5,0.3-4.4l0.3-7.4H1869.2z"/>
		<path class="st9" d="M1878.5,997.9c-1.6-0.8-2.8-2-3.7-3.5c-0.9-1.5-1.3-3.2-1.3-5.1c0-1.9,0.4-3.6,1.3-5.1
			c0.9-1.5,2.1-2.7,3.7-3.5c1.6-0.8,3.3-1.3,5.3-1.3c2,0,3.7,0.4,5.3,1.3c1.6,0.8,2.8,2,3.7,3.5c0.9,1.5,1.3,3.2,1.3,5.1
			c0,1.9-0.4,3.6-1.3,5.1c-0.9,1.5-2.1,2.7-3.7,3.5c-1.6,0.8-3.3,1.3-5.3,1.3C1881.9,999.2,1880.1,998.8,1878.5,997.9z
			 M1887.9,993.7c1.1-1.1,1.6-2.6,1.6-4.4s-0.5-3.3-1.6-4.4c-1.1-1.1-2.4-1.7-4.1-1.7s-3,0.6-4.1,1.7c-1.1,1.1-1.6,2.6-1.6,4.4
			s0.5,3.3,1.6,4.4c1.1,1.1,2.4,1.7,4.1,1.7S1886.8,994.8,1887.9,993.7z"/>
		<path class="st9" d="M1916,993.6c0,1.7-0.6,3.1-1.9,4c-1.3,0.9-3.2,1.4-5.8,1.4h-9.8v-19.2h9.4c2.4,0,4.2,0.4,5.5,1.3
			c1.3,0.9,2,2.1,2,3.7c0,1-0.3,1.8-0.8,2.6c-0.5,0.7-1.2,1.3-2.2,1.7C1914.8,989.7,1916,991.2,1916,993.6z M1902.8,987.8h4.7
			c2.3,0,3.5-0.8,3.5-2.4c0-1.6-1.2-2.3-3.5-2.3h-4.7V987.8z M1911.6,993.3c0-0.8-0.3-1.5-0.9-1.9s-1.5-0.6-2.7-0.6h-5.3v4.9h5.1
			C1910.4,995.7,1911.6,994.9,1911.6,993.3z"/>
	</g>
</g>
</svg>
