<?xml version="1.0" encoding="utf-8"?>
<!-- Generator: Adobe Illustrator 24.3.0, SVG Export Plug-In . SVG Version: 6.00 Build 0)  -->
<svg version="1.1" id="Слой_1" xmlns="http://www.w3.org/2000/svg" xmlns:xlink="http://www.w3.org/1999/xlink" x="0px" y="0px"
	 viewBox="0 0 1284 1080" style="enable-background:new 0 0 1284 1080;" xml:space="preserve">
<style type="text/css">
	.st0{fill:#0D1117;}
	.st1{fill:#4AA4FF;}
	.st2{fill:#3398FF;}
	.st3{opacity:0.45;fill:none;stroke:#3398FF;stroke-width:2;stroke-miterlimit:10;}
	.st4{fill:none;stroke:#3398FF;stroke-width:6;stroke-miterlimit:10;}
	.st5{fill:#AD0000;}
	.st6{fill:#00BF1F;}
	.st7{fill:none;stroke:#00BF1F;stroke-width:5;stroke-miterlimit:10;}
	.st8{fill:none;stroke:#00BF1F;stroke-width:5;stroke-miterlimit:10;stroke-dasharray:11.7778,11.7778;}
	.st9{fill:none;stroke:#AD0000;stroke-width:5;stroke-miterlimit:10;}
	.st10{fill:none;stroke:#AD0000;stroke-width:5;stroke-miterlimit:10;stroke-dasharray:11.9143,11.9143;}
</style>
<rect y="0.3" class="st0" width="1920" height="1080"/>
<image style="overflow:visible;" width="2560" height="1440" xlink:href="8055B03D.jpg"  transform="matrix(1 0 0 1 -86.1111 -1539.8889)">
</image>
<g>
	<g>
		<g>
			<polygon class="st1" points="211.8,921.4 211.8,156.8 205.2,159.6 215,136.4 224.8,159.6 218.2,156.8 218.2,921.4 			"/>
		</g>
	</g>
</g>
<g>
	<g>
		<g>
			<polygon class="st1" points="214.8,915.1 976.9,915.1 974.1,908.5 997.2,918.2 974.1,928 976.9,921.4 214.8,921.4 			"/>
		</g>
	</g>
</g>
<g>
	<path class="st2" d="M996,855v42h-7.8v-18h-21.7v18h-7.8v-42h7.8v17.3h21.7V855H996z"/>
	<path class="st2" d="M1029.7,868c2.5,2.3,3.8,5.7,3.8,10.2V897h-7.1v-3.9c-0.9,1.4-2.2,2.5-3.9,3.2c-1.7,0.7-3.8,1.1-6.1,1.1
		c-2.4,0-4.5-0.4-6.3-1.2c-1.8-0.8-3.2-2-4.2-3.4c-1-1.5-1.5-3.1-1.5-4.9c0-2.9,1.1-5.2,3.2-6.9c2.1-1.7,5.5-2.6,10.1-2.6h8.3v-0.5
		c0-2.2-0.7-4-2-5.2c-1.3-1.2-3.3-1.8-6-1.8c-1.8,0-3.6,0.3-5.3,0.8c-1.7,0.6-3.2,1.3-4.4,2.3l-2.9-5.5c1.7-1.3,3.7-2.3,6.1-2.9
		c2.4-0.7,4.9-1,7.5-1C1023.6,864.6,1027.2,865.7,1029.7,868z M1022.8,890.6c1.5-0.9,2.5-2.1,3.1-3.7v-3.7h-7.7
		c-4.3,0-6.5,1.4-6.5,4.3c0,1.4,0.5,2.4,1.6,3.2c1.1,0.8,2.6,1.2,4.5,1.2C1019.7,891.9,1021.4,891.5,1022.8,890.6z"/>
	<path class="st2" d="M1067.3,871.3h-17.1V897h-7.5v-32h24.6V871.3z"/>
	<path class="st2" d="M1098.9,866.6c2.5,1.4,4.4,3.3,5.8,5.8c1.4,2.5,2.1,5.3,2.1,8.6c0,3.2-0.7,6.1-2.1,8.6
		c-1.4,2.5-3.3,4.4-5.8,5.8c-2.5,1.4-5.2,2-8.4,2c-4.3,0-7.7-1.4-10.3-4.3v15.5h-7.5v-43.7h7.1v4.2c1.2-1.5,2.8-2.7,4.6-3.4
		s3.8-1.1,6-1.1C1093.7,864.6,1096.4,865.2,1098.9,866.6z M1096.5,888.2c1.8-1.8,2.7-4.3,2.7-7.3s-0.9-5.4-2.7-7.3
		c-1.8-1.8-4-2.8-6.8-2.8c-1.8,0-3.4,0.4-4.9,1.2c-1.4,0.8-2.6,2-3.4,3.5c-0.8,1.5-1.3,3.3-1.3,5.3s0.4,3.8,1.3,5.3
		c0.8,1.5,2,2.7,3.4,3.5c1.4,0.8,3.1,1.2,4.9,1.2C1092.5,891,1094.7,890,1096.5,888.2z"/>
	<path class="st2" d="M1143.6,864.9l-15,34.6c-1.4,3.5-3.1,5.9-5.1,7.3s-4.4,2.1-7.3,2.1c-1.6,0-3.2-0.3-4.7-0.8
		c-1.6-0.5-2.8-1.2-3.8-2.2l3-5.5c0.7,0.7,1.6,1.2,2.5,1.6c1,0.4,2,0.6,3,0.6c1.3,0,2.4-0.3,3.3-1c0.9-0.7,1.7-1.8,2.4-3.4l0.5-1.3
		l-14-32.2h7.8l10.1,23.7l10.1-23.7H1143.6z"/>
	<path class="st2" d="M1171.8,883c1.1,1.3,1.7,2.8,1.7,4.5c0,2-0.7,3.7-2,5.2s-3.1,2.7-5.5,3.5c-2.3,0.8-5,1.3-7.9,1.3
		c-2.5,0-4.9-0.3-7.3-0.9c-2.4-0.6-4.5-1.4-6.4-2.5l2.2-5.6c1.6,0.9,3.3,1.6,5.3,2c2,0.5,3.9,0.7,5.9,0.7c2.5,0,4.5-0.4,5.9-1.2
		c1.4-0.8,2.1-1.9,2.1-3.2c0-1.2-0.5-2.2-1.6-2.9c-1.1-0.7-2.7-1-4.7-1h-6.2v-5h5.6c1.9,0,3.3-0.3,4.4-1c1.1-0.6,1.6-1.5,1.6-2.7
		c0-1.2-0.6-2.1-1.9-2.8c-1.3-0.7-3-1-5.3-1c-3.2,0-6.6,0.8-10.1,2.3l-1.9-5.5c4.2-2,8.4-2.9,12.7-2.9c2.7,0,5.2,0.4,7.3,1.1
		c2.2,0.7,3.8,1.8,5.1,3.1c1.2,1.3,1.8,2.9,1.8,4.6c0,1.6-0.5,3-1.4,4.2c-1,1.2-2.3,2.2-4,2.9C1169.2,880.8,1170.7,881.8,1171.8,883
		z"/>
	<path class="st2" d="M1194.6,884.1h-5.8V897h-7.5v-32h7.5v13h6l9.5-13h8l-11.6,15.4l12.4,16.6h-8.8L1194.6,884.1z"/>
	<path class="st2" d="M1240.5,868c2.5,2.3,3.8,5.7,3.8,10.2V897h-7.1v-3.9c-0.9,1.4-2.2,2.5-3.9,3.2c-1.7,0.7-3.8,1.1-6.1,1.1
		c-2.4,0-4.5-0.4-6.3-1.2c-1.8-0.8-3.2-2-4.2-3.4c-1-1.5-1.5-3.1-1.5-4.9c0-2.9,1.1-5.2,3.2-6.9c2.1-1.7,5.5-2.6,10.1-2.6h8.3v-0.5
		c0-2.2-0.7-4-2-5.2c-1.3-1.2-3.3-1.8-6-1.8c-1.8,0-3.6,0.3-5.3,0.8c-1.7,0.6-3.2,1.3-4.4,2.3l-2.9-5.5c1.7-1.3,3.7-2.3,6.1-2.9
		c2.4-0.7,4.9-1,7.5-1C1234.4,864.6,1238,865.7,1240.5,868z M1233.7,890.6c1.5-0.9,2.5-2.1,3.1-3.7v-3.7h-7.7
		c-4.3,0-6.5,1.4-6.5,4.3c0,1.4,0.5,2.4,1.6,3.2c1.1,0.8,2.6,1.2,4.5,1.2C1230.5,891.9,1232.2,891.5,1233.7,890.6z"/>
</g>
<g>
	<path class="st2" d="M169.4,107.6h-7.8v17.7h-7.7v-42h7.7v17.6h8l12.1-17.6h8.3l-14.3,20.3l14.9,21.7h-8.8L169.4,107.6z"/>
	<path class="st2" d="M233.1,83.3v42h-7.7V89.9h-21.8v35.4h-7.7v-42H233.1z"/>
	<path class="st2" d="M286.1,118.7v15.5h-7.2v-8.9h-32.2v8.9h-7.3l0.1-15.5h1.8c2.6-0.1,4.5-2.1,5.5-5.9c1.1-3.8,1.7-9.2,2-16.2
		l0.5-13.3h30.8v35.4H286.1z M254.3,110.9c-0.7,3.6-1.8,6.2-3.2,7.8h21.3V89.9h-16.4l-0.3,7.4C255.4,102.7,255,107.3,254.3,110.9z"
		/>
</g>
<g>
	<path class="st2" d="M58.6,174.7v35h-6.5v-29.5h-7.4v-5.5H58.6z"/>
	<path class="st2" d="M72.7,208.1c-2.2-1.4-3.9-3.5-5.2-6.2c-1.3-2.7-1.9-5.9-1.9-9.7c0-3.7,0.6-7,1.9-9.7s3-4.8,5.2-6.2
		c2.2-1.4,4.7-2.1,7.5-2.1s5.3,0.7,7.5,2.1c2.2,1.4,4,3.5,5.2,6.2s1.9,5.9,1.9,9.7c0,3.7-0.6,7-1.9,9.7c-1.3,2.7-3,4.8-5.2,6.2
		c-2.2,1.4-4.7,2.1-7.5,2.1S74.9,209.5,72.7,208.1z M86.1,201.5c1.5-2.1,2.2-5.2,2.2-9.2s-0.7-7.2-2.2-9.2c-1.4-2.1-3.4-3.1-5.9-3.1
		c-2.5,0-4.4,1-5.9,3.1c-1.5,2.1-2.2,5.2-2.2,9.2s0.7,7.2,2.2,9.2c1.5,2.1,3.4,3.1,5.9,3.1C82.7,204.6,84.7,203.5,86.1,201.5z"/>
	<path class="st2" d="M106.3,208.1c-2.2-1.4-3.9-3.5-5.2-6.2c-1.3-2.7-1.9-5.9-1.9-9.7c0-3.7,0.6-7,1.9-9.7s3-4.8,5.2-6.2
		c2.2-1.4,4.7-2.1,7.5-2.1s5.3,0.7,7.5,2.1c2.2,1.4,4,3.5,5.2,6.2s1.9,5.9,1.9,9.7c0,3.7-0.6,7-1.9,9.7c-1.3,2.7-3,4.8-5.2,6.2
		c-2.2,1.4-4.7,2.1-7.5,2.1S108.5,209.5,106.3,208.1z M119.8,201.5c1.5-2.1,2.2-5.2,2.2-9.2s-0.7-7.2-2.2-9.2
		c-1.4-2.1-3.4-3.1-5.9-3.1c-2.5,0-4.4,1-5.9,3.1c-1.5,2.1-2.2,5.2-2.2,9.2s0.7,7.2,2.2,9.2c1.5,2.1,3.4,3.1,5.9,3.1
		C116.3,204.6,118.3,203.5,119.8,201.5z"/>
	<path class="st2" d="M134.6,190.9c-1.5-1.8-2.3-4.1-2.3-7c0-2.9,0.8-5.2,2.3-7c1.5-1.8,3.5-2.6,6-2.6s4.5,0.9,6.1,2.6
		s2.3,4.1,2.3,7s-0.8,5.2-2.3,7s-3.6,2.6-6.1,2.6S136.2,192.7,134.6,190.9z M143.8,188.5c0.8-1.1,1.1-2.6,1.1-4.5
		c0-1.9-0.4-3.4-1.1-4.5c-0.8-1.1-1.8-1.6-3.2-1.6c-1.3,0-2.3,0.5-3.1,1.6s-1.2,2.6-1.2,4.5s0.4,3.4,1.2,4.5
		c0.8,1.1,1.8,1.6,3.1,1.6C142,190.1,143.1,189.5,143.8,188.5z M161.7,174.7h4.9l-23.9,35h-4.9L161.7,174.7z M157.6,207.4
		c-1.5-1.8-2.3-4.1-2.3-7c0-2.9,0.8-5.2,2.3-7c1.5-1.8,3.5-2.6,6-2.6s4.5,0.9,6.1,2.6c1.5,1.8,2.3,4.1,2.3,7c0,2.9-0.8,5.2-2.3,7
		c-1.6,1.8-3.6,2.6-6.1,2.6S159.1,209.2,157.6,207.4z M166.8,204.9c0.8-1.1,1.2-2.6,1.2-4.5s-0.4-3.4-1.2-4.5s-1.8-1.6-3.1-1.6
		c-1.3,0-2.4,0.5-3.2,1.6c-0.8,1.1-1.1,2.6-1.1,4.5c0,1.9,0.4,3.4,1.1,4.5c0.8,1.1,1.8,1.6,3.2,1.6C165,206.6,166,206,166.8,204.9z"
		/>
</g>
<g>
	<path class="st2" d="M82.8,377.6c2.7,3,4,7.3,4,12.9c0,3.9-0.7,7.3-2.2,10.1c-1.4,2.8-3.4,4.9-6,6.4s-5.6,2.2-9,2.2
		c-1.8,0-3.5-0.2-5.1-0.6s-3-0.9-4.1-1.7l2.4-4.9c1.7,1.1,4,1.7,6.6,1.7c3.4,0,6-1,7.9-3.1c1.9-2.1,2.8-5,2.8-9v0
		c-1,1.2-2.3,2.1-3.9,2.7c-1.6,0.6-3.4,0.9-5.4,0.9c-2.3,0-4.4-0.4-6.2-1.3s-3.3-2.1-4.3-3.8c-1-1.6-1.5-3.5-1.5-5.7
		c0-2.3,0.6-4.3,1.7-6c1.1-1.7,2.7-3,4.6-4c1.9-0.9,4.1-1.4,6.5-1.4C76.5,373.1,80.2,374.6,82.8,377.6z M77.3,388.4
		c1.3-1.1,2-2.6,2-4.3c0-1.7-0.6-3.1-1.9-4.2s-3.1-1.7-5.3-1.7c-2,0-3.7,0.5-4.9,1.6c-1.3,1.1-1.9,2.5-1.9,4.3
		c0,1.8,0.6,3.3,1.9,4.4c1.3,1.1,3,1.6,5.1,1.6C74.3,390.1,76,389.5,77.3,388.4z"/>
	<path class="st2" d="M113.1,390c2.4,1.9,3.6,4.5,3.6,7.8c0,2.1-0.5,4-1.6,5.7s-2.6,3-4.6,4c-2.1,1-4.6,1.5-7.7,1.5
		c-2.5,0-4.9-0.4-7.2-1.1c-2.3-0.7-4.3-1.7-5.9-3l2.8-5c1.3,1.1,2.9,1.9,4.7,2.5c1.8,0.6,3.7,0.9,5.6,0.9c2.3,0,4.1-0.5,5.4-1.4
		c1.3-1,2-2.3,2-3.9c0-1.8-0.7-3.2-2.1-4.1c-1.4-0.9-3.8-1.4-7.3-1.4h-8.5l1.8-19h20.5v5.5h-15l-0.8,8.1h3.4
		C107.1,387.1,110.8,388.1,113.1,390z"/>
	<path class="st2" d="M121.7,389.8c-1.5-1.8-2.3-4.1-2.3-7c0-2.9,0.8-5.2,2.3-7c1.5-1.8,3.5-2.6,6-2.6s4.5,0.9,6.1,2.6
		s2.3,4.1,2.3,7s-0.8,5.2-2.3,7s-3.6,2.6-6.1,2.6S123.2,391.5,121.7,389.8z M130.9,387.3c0.8-1.1,1.1-2.6,1.1-4.5
		c0-1.9-0.4-3.4-1.1-4.5c-0.8-1.1-1.8-1.6-3.2-1.6c-1.3,0-2.3,0.5-3.1,1.6s-1.2,2.6-1.2,4.5s0.4,3.4,1.2,4.5
		c0.8,1.1,1.8,1.6,3.1,1.6C129.1,388.9,130.1,388.4,130.9,387.3z M148.7,373.6h4.9l-23.9,35h-4.9L148.7,373.6z M144.6,406.3
		c-1.5-1.8-2.3-4.1-2.3-7c0-2.9,0.8-5.2,2.3-7c1.5-1.8,3.5-2.6,6-2.6s4.5,0.9,6.1,2.6c1.5,1.8,2.3,4.1,2.3,7c0,2.9-0.8,5.2-2.3,7
		c-1.6,1.8-3.6,2.6-6.1,2.6S146.2,408,144.6,406.3z M153.8,403.8c0.8-1.1,1.2-2.6,1.2-4.5s-0.4-3.4-1.2-4.5s-1.8-1.6-3.1-1.6
		c-1.3,0-2.4,0.5-3.2,1.6c-0.8,1.1-1.1,2.6-1.1,4.5c0,1.9,0.4,3.4,1.1,4.5c0.8,1.1,1.8,1.6,3.2,1.6
		C152,405.4,153.1,404.9,153.8,403.8z"/>
</g>
<g>
	<path class="st2" d="M80.6,576.6c2.7,3,4,7.3,4,12.9c0,3.9-0.7,7.3-2.2,10.1c-1.4,2.8-3.4,4.9-6,6.4s-5.6,2.2-9,2.2
		c-1.8,0-3.5-0.2-5.1-0.6s-3-0.9-4.1-1.7l2.4-4.9c1.7,1.1,4,1.7,6.6,1.7c3.4,0,6-1,7.9-3.1c1.9-2.1,2.8-5,2.8-9v0
		c-1,1.2-2.3,2.1-3.9,2.7c-1.6,0.6-3.4,0.9-5.4,0.9c-2.3,0-4.4-0.4-6.2-1.3s-3.3-2.1-4.3-3.8c-1-1.6-1.5-3.5-1.5-5.7
		c0-2.3,0.6-4.3,1.7-6c1.1-1.7,2.7-3,4.6-4c1.9-0.9,4.1-1.4,6.5-1.4C74.2,572.1,78,573.6,80.6,576.6z M75.1,587.4
		c1.3-1.1,2-2.6,2-4.3c0-1.7-0.6-3.1-1.9-4.2s-3.1-1.7-5.3-1.7c-2,0-3.7,0.5-4.9,1.6c-1.3,1.1-1.9,2.5-1.9,4.3
		c0,1.8,0.6,3.3,1.9,4.4c1.3,1.1,3,1.6,5.1,1.6C72,589.1,73.8,588.5,75.1,587.4z"/>
	<path class="st2" d="M96.1,605.9c-2.2-1.4-3.9-3.5-5.2-6.2c-1.3-2.7-1.9-5.9-1.9-9.7c0-3.7,0.6-7,1.9-9.7s3-4.8,5.2-6.2
		c2.2-1.4,4.7-2.1,7.5-2.1s5.3,0.7,7.5,2.1c2.2,1.4,4,3.5,5.2,6.2s1.9,5.9,1.9,9.7c0,3.7-0.6,7-1.9,9.7c-1.3,2.7-3,4.8-5.2,6.2
		c-2.2,1.4-4.7,2.1-7.5,2.1S98.3,607.4,96.1,605.9z M109.5,599.3c1.5-2.1,2.2-5.2,2.2-9.2s-0.7-7.2-2.2-9.2
		c-1.4-2.1-3.4-3.1-5.9-3.1c-2.5,0-4.4,1-5.9,3.1c-1.5,2.1-2.2,5.2-2.2,9.2s0.7,7.2,2.2,9.2c1.5,2.1,3.4,3.1,5.9,3.1
		C106.1,602.4,108.1,601.4,109.5,599.3z"/>
	<path class="st2" d="M124.4,588.8c-1.5-1.8-2.3-4.1-2.3-7c0-2.9,0.8-5.2,2.3-7c1.5-1.8,3.5-2.6,6-2.6s4.5,0.9,6.1,2.6
		s2.3,4.1,2.3,7s-0.8,5.2-2.3,7s-3.6,2.6-6.1,2.6S125.9,590.5,124.4,588.8z M133.6,586.3c0.8-1.1,1.1-2.6,1.1-4.5
		c0-1.9-0.4-3.4-1.1-4.5c-0.8-1.1-1.8-1.6-3.2-1.6c-1.3,0-2.3,0.5-3.1,1.6s-1.2,2.6-1.2,4.5s0.4,3.4,1.2,4.5
		c0.8,1.1,1.8,1.6,3.1,1.6C131.8,587.9,132.9,587.4,133.6,586.3z M151.4,572.6h4.9l-23.9,35h-4.9L151.4,572.6z M147.3,605.3
		c-1.5-1.8-2.3-4.1-2.3-7c0-2.9,0.8-5.2,2.3-7c1.5-1.8,3.5-2.6,6-2.6s4.5,0.9,6.1,2.6c1.5,1.8,2.3,4.1,2.3,7c0,2.9-0.8,5.2-2.3,7
		c-1.6,1.8-3.6,2.6-6.1,2.6S148.9,607,147.3,605.3z M156.5,602.8c0.8-1.1,1.2-2.6,1.2-4.5s-0.4-3.4-1.2-4.5s-1.8-1.6-3.1-1.6
		c-1.3,0-2.4,0.5-3.2,1.6c-0.8,1.1-1.1,2.6-1.1,4.5c0,1.9,0.4,3.4,1.1,4.5c0.8,1.1,1.8,1.6,3.2,1.6
		C154.7,604.4,155.8,603.9,156.5,602.8z"/>
</g>
<g>
	<path class="st2" d="M86.4,791.5c1,1.4,1.5,3.1,1.5,5c0,2.1-0.6,4-1.8,5.6c-1.2,1.6-2.9,2.8-5,3.7c-2.2,0.9-4.7,1.3-7.5,1.3
		c-2.9,0-5.4-0.4-7.5-1.3c-2.1-0.8-3.8-2.1-5-3.7c-1.2-1.6-1.8-3.5-1.8-5.6c0-1.9,0.5-3.6,1.5-5c1-1.4,2.3-2.5,4.1-3.4
		c-1.4-0.8-2.5-1.8-3.2-3s-1.1-2.7-1.1-4.3c0-2,0.5-3.7,1.6-5.2c1.1-1.5,2.6-2.6,4.6-3.4c2-0.8,4.2-1.2,6.8-1.2
		c2.6,0,4.9,0.4,6.8,1.2s3.5,1.9,4.6,3.4c1.1,1.5,1.6,3.2,1.6,5.2c0,1.6-0.4,3.1-1.1,4.3c-0.8,1.2-1.9,2.2-3.3,3
		C84,789,85.4,790.1,86.4,791.5z M79.2,800.5c1.4-1,2.1-2.4,2.1-4.2c0-1.7-0.7-3.1-2.1-4.1c-1.4-1-3.3-1.5-5.7-1.5s-4.3,0.5-5.7,1.5
		s-2,2.4-2,4.1c0,1.8,0.7,3.2,2,4.2s3.2,1.5,5.7,1.5S77.8,801.5,79.2,800.5z M68.7,777.5c-1.2,0.9-1.8,2.1-1.8,3.6
		c0,1.5,0.6,2.7,1.8,3.6c1.2,0.9,2.8,1.3,4.8,1.3c2.1,0,3.7-0.4,4.9-1.3c1.2-0.9,1.8-2.1,1.8-3.6c0-1.6-0.6-2.8-1.8-3.6
		s-2.8-1.3-4.9-1.3S69.9,776.6,68.7,777.5z"/>
	<path class="st2" d="M114,788c2.4,1.9,3.6,4.5,3.6,7.8c0,2.1-0.5,4-1.6,5.7s-2.6,3-4.6,4c-2.1,1-4.6,1.5-7.7,1.5
		c-2.5,0-4.9-0.4-7.2-1.1c-2.3-0.7-4.3-1.7-5.9-3l2.8-5c1.3,1.1,2.9,1.9,4.7,2.5c1.8,0.6,3.7,0.9,5.6,0.9c2.3,0,4.1-0.5,5.4-1.4
		c1.3-1,2-2.3,2-3.9c0-1.8-0.7-3.2-2.1-4.1c-1.4-0.9-3.8-1.4-7.3-1.4h-8.5l1.8-19h20.5v5.5h-15l-0.8,8.1h3.4
		C108,785.1,111.6,786.1,114,788z"/>
	<path class="st2" d="M122.5,787.8c-1.5-1.8-2.3-4.1-2.3-7c0-2.9,0.8-5.2,2.3-7c1.5-1.8,3.5-2.6,6-2.6s4.5,0.9,6.1,2.6
		s2.3,4.1,2.3,7s-0.8,5.2-2.3,7s-3.6,2.6-6.1,2.6S124.1,789.5,122.5,787.8z M131.8,785.3c0.8-1.1,1.1-2.6,1.1-4.5
		c0-1.9-0.4-3.4-1.1-4.5c-0.8-1.1-1.8-1.6-3.2-1.6c-1.3,0-2.3,0.5-3.1,1.6s-1.2,2.6-1.2,4.5s0.4,3.4,1.2,4.5
		c0.8,1.1,1.8,1.6,3.1,1.6C130,786.9,131,786.4,131.8,785.3z M149.6,771.6h4.9l-23.9,35h-4.9L149.6,771.6z M145.5,804.3
		c-1.5-1.8-2.3-4.1-2.3-7c0-2.9,0.8-5.2,2.3-7c1.5-1.8,3.5-2.6,6-2.6s4.5,0.9,6.1,2.6c1.5,1.8,2.3,4.1,2.3,7c0,2.9-0.8,5.2-2.3,7
		c-1.6,1.8-3.6,2.6-6.1,2.6S147,806,145.5,804.3z M154.7,801.8c0.8-1.1,1.2-2.6,1.2-4.5s-0.4-3.4-1.2-4.5s-1.8-1.6-3.1-1.6
		c-1.3,0-2.4,0.5-3.2,1.6c-0.8,1.1-1.1,2.6-1.1,4.5c0,1.9,0.4,3.4,1.1,4.5c0.8,1.1,1.8,1.6,3.2,1.6
		C152.9,803.4,153.9,802.9,154.7,801.8z"/>
</g>
<g>
	<path class="st2" d="M253,937.9v35h-6.5v-29.5h-7.4v-5.5H253z"/>
	<path class="st2" d="M267,971.3c-2.2-1.4-3.9-3.5-5.2-6.2c-1.3-2.7-1.9-5.9-1.9-9.7c0-3.7,0.6-7,1.9-9.7s3-4.8,5.2-6.2
		c2.2-1.4,4.7-2.1,7.5-2.1s5.3,0.7,7.5,2.1c2.2,1.4,4,3.5,5.2,6.2s1.9,5.9,1.9,9.7c0,3.7-0.6,7-1.9,9.7c-1.3,2.7-3,4.8-5.2,6.2
		c-2.2,1.4-4.7,2.1-7.5,2.1S269.2,972.7,267,971.3z M280.4,964.7c1.5-2.1,2.2-5.2,2.2-9.2s-0.7-7.2-2.2-9.2
		c-1.4-2.1-3.4-3.1-5.9-3.1c-2.5,0-4.4,1-5.9,3.1c-1.5,2.1-2.2,5.2-2.2,9.2s0.7,7.2,2.2,9.2c1.5,2.1,3.4,3.1,5.9,3.1
		C277,967.8,279,966.7,280.4,964.7z"/>
	<path class="st2" d="M295.3,954.1c-1.5-1.8-2.3-4.1-2.3-7c0-2.9,0.8-5.2,2.3-7c1.5-1.8,3.5-2.6,6-2.6s4.5,0.9,6.1,2.6
		s2.3,4.1,2.3,7s-0.8,5.2-2.3,7s-3.6,2.6-6.1,2.6S296.8,955.9,295.3,954.1z M304.5,951.7c0.8-1.1,1.1-2.6,1.1-4.5
		c0-1.9-0.4-3.4-1.1-4.5c-0.8-1.1-1.8-1.6-3.2-1.6c-1.3,0-2.3,0.5-3.1,1.6s-1.2,2.6-1.2,4.5s0.4,3.4,1.2,4.5
		c0.8,1.1,1.8,1.6,3.1,1.6C302.7,953.3,303.8,952.7,304.5,951.7z M322.3,937.9h4.9l-23.9,35h-4.9L322.3,937.9z M318.2,970.6
		c-1.5-1.8-2.3-4.1-2.3-7c0-2.9,0.8-5.2,2.3-7c1.5-1.8,3.5-2.6,6-2.6s4.5,0.9,6.1,2.6c1.5,1.8,2.3,4.1,2.3,7c0,2.9-0.8,5.2-2.3,7
		c-1.6,1.8-3.6,2.6-6.1,2.6S319.8,972.4,318.2,970.6z M327.4,968.1c0.8-1.1,1.2-2.6,1.2-4.5s-0.4-3.4-1.2-4.5s-1.8-1.6-3.1-1.6
		c-1.3,0-2.4,0.5-3.2,1.6c-0.8,1.1-1.1,2.6-1.1,4.5c0,1.9,0.4,3.4,1.1,4.5c0.8,1.1,1.8,1.6,3.2,1.6
		C325.6,969.8,326.7,969.2,327.4,968.1z"/>
</g>
<g>
	<path class="st2" d="M461.3,956.3c1.7,1.8,2.5,4,2.5,6.8c0,2-0.5,3.9-1.5,5.5c-1,1.7-2.6,3-4.7,4c-2.1,1-4.6,1.5-7.6,1.5
		c-2.5,0-4.9-0.4-7.2-1.1c-2.3-0.7-4.3-1.7-5.9-3l2.8-5c1.3,1.1,2.8,1.9,4.6,2.5c1.8,0.6,3.7,0.9,5.6,0.9c2.3,0,4.1-0.5,5.4-1.4
		c1.3-1,2-2.2,2-3.9c0-1.6-0.6-2.9-1.9-3.8c-1.2-0.9-3.2-1.4-5.7-1.4h-3.2v-4.4l8-9.5h-15.9v-5.5h23.8v4.3l-8.5,10.1
		C457.1,953.4,459.6,954.5,461.3,956.3z"/>
	<path class="st2" d="M475.2,971.9c-2.2-1.4-3.9-3.5-5.2-6.2c-1.3-2.7-1.9-5.9-1.9-9.7c0-3.7,0.6-7,1.9-9.7s3-4.8,5.2-6.2
		c2.2-1.4,4.7-2.1,7.5-2.1s5.3,0.7,7.5,2.1c2.2,1.4,4,3.5,5.2,6.2s1.9,5.9,1.9,9.7c0,3.7-0.6,7-1.9,9.7c-1.3,2.7-3,4.8-5.2,6.2
		c-2.2,1.4-4.7,2.1-7.5,2.1S477.4,973.3,475.2,971.9z M488.6,965.3c1.5-2.1,2.2-5.2,2.2-9.2s-0.7-7.2-2.2-9.2
		c-1.4-2.1-3.4-3.1-5.9-3.1c-2.5,0-4.4,1-5.9,3.1c-1.5,2.1-2.2,5.2-2.2,9.2s0.7,7.2,2.2,9.2c1.5,2.1,3.4,3.1,5.9,3.1
		C485.2,968.4,487.2,967.3,488.6,965.3z"/>
	<path class="st2" d="M503.5,954.7c-1.5-1.8-2.3-4.1-2.3-7c0-2.9,0.8-5.2,2.3-7c1.5-1.8,3.5-2.6,6-2.6s4.5,0.9,6.1,2.6
		s2.3,4.1,2.3,7s-0.8,5.2-2.3,7s-3.6,2.6-6.1,2.6S505,956.5,503.5,954.7z M512.7,952.3c0.8-1.1,1.1-2.6,1.1-4.5
		c0-1.9-0.4-3.4-1.1-4.5c-0.8-1.1-1.8-1.6-3.2-1.6c-1.3,0-2.3,0.5-3.1,1.6s-1.2,2.6-1.2,4.5s0.4,3.4,1.2,4.5
		c0.8,1.1,1.8,1.6,3.1,1.6C510.9,953.9,512,953.3,512.7,952.3z M530.5,938.5h4.9l-23.9,35h-4.9L530.5,938.5z M526.4,971.2
		c-1.5-1.8-2.3-4.1-2.3-7c0-2.9,0.8-5.2,2.3-7c1.5-1.8,3.5-2.6,6-2.6s4.5,0.9,6.1,2.6c1.5,1.8,2.3,4.1,2.3,7c0,2.9-0.8,5.2-2.3,7
		c-1.6,1.8-3.6,2.6-6.1,2.6S528,973,526.4,971.2z M535.6,968.7c0.8-1.1,1.2-2.6,1.2-4.5s-0.4-3.4-1.2-4.5s-1.8-1.6-3.1-1.6
		c-1.3,0-2.4,0.5-3.2,1.6c-0.8,1.1-1.1,2.6-1.1,4.5c0,1.9,0.4,3.4,1.1,4.5c0.8,1.1,1.8,1.6,3.2,1.6
		C533.8,970.4,534.9,969.8,535.6,968.7z"/>
</g>
<g>
	<path class="st2" d="M736.6,937.3v4.3L723,972.3h-7l13.2-29.5h-13.8v6h-6v-11.5H736.6z"/>
	<path class="st2" d="M746.7,970.7c-2.2-1.4-3.9-3.5-5.2-6.2c-1.3-2.7-1.9-5.9-1.9-9.7c0-3.7,0.6-7,1.9-9.7s3-4.8,5.2-6.2
		c2.2-1.4,4.7-2.1,7.5-2.1s5.3,0.7,7.5,2.1c2.2,1.4,4,3.5,5.2,6.2s1.9,5.9,1.9,9.7c0,3.7-0.6,7-1.9,9.7c-1.3,2.7-3,4.8-5.2,6.2
		c-2.2,1.4-4.7,2.1-7.5,2.1S748.9,972.1,746.7,970.7z M760.1,964c1.5-2.1,2.2-5.2,2.2-9.2s-0.7-7.2-2.2-9.2
		c-1.4-2.1-3.4-3.1-5.9-3.1c-2.5,0-4.4,1-5.9,3.1c-1.5,2.1-2.2,5.2-2.2,9.2s0.7,7.2,2.2,9.2c1.5,2.1,3.4,3.1,5.9,3.1
		C756.7,967.1,758.7,966.1,760.1,964z"/>
	<path class="st2" d="M775,953.5c-1.5-1.8-2.3-4.1-2.3-7c0-2.9,0.8-5.2,2.3-7c1.5-1.8,3.5-2.6,6-2.6s4.5,0.9,6.1,2.6s2.3,4.1,2.3,7
		s-0.8,5.2-2.3,7s-3.6,2.6-6.1,2.6S776.5,955.3,775,953.5z M784.2,951c0.8-1.1,1.1-2.6,1.1-4.5c0-1.9-0.4-3.4-1.1-4.5
		c-0.8-1.1-1.8-1.6-3.2-1.6c-1.3,0-2.3,0.5-3.1,1.6s-1.2,2.6-1.2,4.5s0.4,3.4,1.2,4.5c0.8,1.1,1.8,1.6,3.1,1.6
		C782.4,952.6,783.5,952.1,784.2,951z M802.1,937.3h4.9l-23.9,35h-4.9L802.1,937.3z M798,970c-1.5-1.8-2.3-4.1-2.3-7
		c0-2.9,0.8-5.2,2.3-7c1.5-1.8,3.5-2.6,6-2.6s4.5,0.9,6.1,2.6c1.5,1.8,2.3,4.1,2.3,7c0,2.9-0.8,5.2-2.3,7c-1.6,1.8-3.6,2.6-6.1,2.6
		S799.5,971.8,798,970z M807.2,967.5c0.8-1.1,1.2-2.6,1.2-4.5s-0.4-3.4-1.2-4.5s-1.8-1.6-3.1-1.6c-1.3,0-2.4,0.5-3.2,1.6
		c-0.8,1.1-1.1,2.6-1.1,4.5c0,1.9,0.4,3.4,1.1,4.5c0.8,1.1,1.8,1.6,3.2,1.6C805.3,969.1,806.4,968.6,807.2,967.5z"/>
</g>
<g>
	<path class="st2" d="M927.6,937.3v35h-6.5v-29.5h-7.4v-5.5H927.6z"/>
	<path class="st2" d="M941.6,970.7c-2.2-1.4-3.9-3.5-5.2-6.2c-1.3-2.7-1.9-5.9-1.9-9.7c0-3.7,0.6-7,1.9-9.7s3-4.8,5.2-6.2
		c2.2-1.4,4.7-2.1,7.5-2.1s5.3,0.7,7.5,2.1c2.2,1.4,4,3.5,5.2,6.2c1.3,2.7,1.9,5.9,1.9,9.7c0,3.7-0.6,7-1.9,9.7
		c-1.3,2.7-3,4.8-5.2,6.2c-2.2,1.4-4.7,2.1-7.5,2.1S943.8,972.1,941.6,970.7z M955.1,964c1.5-2.1,2.2-5.2,2.2-9.2s-0.7-7.2-2.2-9.2
		c-1.4-2.1-3.4-3.1-5.9-3.1c-2.5,0-4.4,1-5.9,3.1c-1.5,2.1-2.2,5.2-2.2,9.2s0.7,7.2,2.2,9.2c1.5,2.1,3.4,3.1,5.9,3.1
		C951.6,967.1,953.6,966.1,955.1,964z"/>
	<path class="st2" d="M975.3,970.7c-2.2-1.4-3.9-3.5-5.2-6.2c-1.3-2.7-1.9-5.9-1.9-9.7c0-3.7,0.6-7,1.9-9.7s3-4.8,5.2-6.2
		c2.2-1.4,4.7-2.1,7.5-2.1s5.3,0.7,7.5,2.1c2.2,1.4,4,3.5,5.2,6.2s1.9,5.9,1.9,9.7c0,3.7-0.6,7-1.9,9.7c-1.3,2.7-3,4.8-5.2,6.2
		c-2.2,1.4-4.7,2.1-7.5,2.1S977.5,972.1,975.3,970.7z M988.7,964c1.5-2.1,2.2-5.2,2.2-9.2s-0.7-7.2-2.2-9.2
		c-1.4-2.1-3.4-3.1-5.9-3.1c-2.5,0-4.4,1-5.9,3.1c-1.5,2.1-2.2,5.2-2.2,9.2s0.7,7.2,2.2,9.2c1.5,2.1,3.4,3.1,5.9,3.1
		C985.3,967.1,987.3,966.1,988.7,964z"/>
	<path class="st2" d="M1003.6,953.5c-1.5-1.8-2.3-4.1-2.3-7c0-2.9,0.8-5.2,2.3-7c1.5-1.8,3.5-2.6,6-2.6s4.5,0.9,6.1,2.6
		s2.3,4.1,2.3,7s-0.8,5.2-2.3,7s-3.6,2.6-6.1,2.6S1005.1,955.3,1003.6,953.5z M1012.8,951c0.8-1.1,1.1-2.6,1.1-4.5
		c0-1.9-0.4-3.4-1.1-4.5c-0.8-1.1-1.8-1.6-3.2-1.6c-1.3,0-2.3,0.5-3.1,1.6s-1.2,2.6-1.2,4.5s0.4,3.4,1.2,4.5
		c0.8,1.1,1.8,1.6,3.1,1.6C1011,952.6,1012.1,952.1,1012.8,951z M1030.6,937.3h4.9l-23.9,35h-4.9L1030.6,937.3z M1026.5,970
		c-1.5-1.8-2.3-4.1-2.3-7c0-2.9,0.8-5.2,2.3-7c1.5-1.8,3.5-2.6,6-2.6s4.5,0.9,6.1,2.6c1.5,1.8,2.3,4.1,2.3,7c0,2.9-0.8,5.2-2.3,7
		c-1.6,1.8-3.6,2.6-6.1,2.6S1028.1,971.8,1026.5,970z M1035.7,967.5c0.8-1.1,1.2-2.6,1.2-4.5s-0.4-3.4-1.2-4.5s-1.8-1.6-3.1-1.6
		c-1.3,0-2.4,0.5-3.2,1.6c-0.8,1.1-1.1,2.6-1.1,4.5c0,1.9,0.4,3.4,1.1,4.5c0.8,1.1,1.8,1.6,3.2,1.6
		C1033.9,969.1,1035,968.6,1035.7,967.5z"/>
</g>
<line class="st3" x1="215" y1="789" x2="997" y2="789"/>
<line class="st3" x1="215" y1="594" x2="997" y2="594"/>
<line class="st3" x1="215" y1="392" x2="997" y2="392"/>
<line class="st3" x1="215" y1="192" x2="997" y2="192"/>
<line class="st3" x1="215" y1="288" x2="997" y2="288"/>
<line class="st3" x1="215" y1="488" x2="997" y2="488"/>
<line class="st3" x1="215" y1="690" x2="997" y2="690"/>
<path class="st4" d="M230.5,904.5c23.7-163.1,78.1-266.3,115-323c16.5-25.4,29.6-41.5,35-48c33.2-40,115.1-138.8,242-155
	c93.2-11.9,166.5,26.5,198,43c111.3,58.3,161.6,153.8,178,189"/>
<g>
	<g>
		<path class="st5" d="M420.9,494.3c7.7,0,7.7-12,0-12C413.2,482.3,413.2,494.3,420.9,494.3L420.9,494.3z"/>
	</g>
</g>
<g>
	<g>
		<path class="st5" d="M420.9,494.3c7.7,0,7.7-12,0-12C413.2,482.3,413.2,494.3,420.9,494.3L420.9,494.3z"/>
	</g>
</g>
<g>
	<g>
		<path class="st5" d="M911.6,494.3c0.3,0,0.6,0,0.9,0c0.8,0,1.6-0.1,2.3-0.5c0.7-0.2,1.4-0.7,1.9-1.2c0.6-0.5,1-1.2,1.2-1.9
			c0.4-0.7,0.5-1.5,0.5-2.3c-0.1-0.5-0.1-1.1-0.2-1.6c-0.3-1-0.8-1.9-1.5-2.6c-0.4-0.3-0.8-0.6-1.2-0.9c-0.9-0.5-1.9-0.8-3-0.8
			c-0.3,0-0.6,0-0.9,0c-0.8,0-1.6,0.1-2.3,0.5c-0.7,0.2-1.4,0.7-1.9,1.2c-0.6,0.5-1,1.2-1.2,1.9c-0.4,0.7-0.5,1.5-0.5,2.3
			c0.1,0.5,0.1,1.1,0.2,1.6c0.3,1,0.8,1.9,1.5,2.6c0.4,0.3,0.8,0.6,1.2,0.9C909.5,494.1,910.5,494.3,911.6,494.3L911.6,494.3z"/>
	</g>
</g>
<g>
	<path class="st5" d="M307.9,447.9c2.7,3,4,7.3,4,12.9c0,3.9-0.7,7.3-2.2,10.1c-1.4,2.8-3.4,4.9-6,6.4s-5.6,2.2-9,2.2
		c-1.8,0-3.5-0.2-5.1-0.6s-3-0.9-4.1-1.7l2.4-4.9c1.7,1.1,4,1.7,6.6,1.7c3.4,0,6-1,7.9-3.1c1.9-2.1,2.8-5,2.8-9v0
		c-1,1.2-2.3,2.1-3.9,2.7c-1.6,0.6-3.4,0.9-5.4,0.9c-2.3,0-4.4-0.4-6.2-1.3s-3.3-2.1-4.3-3.8c-1-1.6-1.5-3.5-1.5-5.7
		c0-2.3,0.6-4.3,1.7-6c1.1-1.7,2.7-3,4.6-4c1.9-0.9,4.1-1.4,6.5-1.4C301.5,443.4,305.2,444.9,307.9,447.9z M302.3,458.7
		c1.3-1.1,2-2.6,2-4.3c0-1.7-0.6-3.1-1.9-4.2s-3.1-1.7-5.3-1.7c-2,0-3.7,0.5-4.9,1.6c-1.3,1.1-1.9,2.5-1.9,4.3
		c0,1.8,0.6,3.3,1.9,4.4c1.3,1.1,3,1.6,5.1,1.6C299.3,460.4,301,459.8,302.3,458.7z"/>
	<path class="st5" d="M341.4,473.4v5.5h-25.8v-4.3l13.9-13.2c1.6-1.5,2.6-2.8,3.2-3.9s0.8-2.2,0.8-3.3c0-1.6-0.6-2.9-1.7-3.8
		c-1.1-0.9-2.7-1.3-4.8-1.3c-3.6,0-6.3,1.2-8.2,3.6l-4.5-3.5c1.4-1.8,3.2-3.3,5.5-4.3c2.3-1,4.9-1.5,7.8-1.5c3.8,0,6.8,0.9,9.1,2.7
		s3.4,4.2,3.4,7.3c0,1.9-0.4,3.7-1.2,5.4s-2.3,3.6-4.6,5.7l-9.4,8.9H341.4z"/>
	<path class="st5" d="M352.5,472.1c0.8,0.8,1.2,1.8,1.2,3c0,0.5-0.1,1.1-0.2,1.7c-0.1,0.6-0.5,1.5-0.9,2.6l-2.5,7h-4l2-7.6
		c-0.7-0.3-1.3-0.8-1.7-1.4c-0.4-0.6-0.6-1.4-0.6-2.3c0-1.2,0.4-2.2,1.2-3c0.8-0.8,1.7-1.2,2.9-1.2
		C350.7,471,351.7,471.3,352.5,472.1z"/>
	<path class="st5" d="M379.7,460.3c2.4,1.9,3.6,4.5,3.6,7.8c0,2.1-0.5,4-1.6,5.7s-2.6,3-4.6,4c-2.1,1-4.6,1.5-7.7,1.5
		c-2.5,0-4.9-0.4-7.2-1.1c-2.3-0.7-4.3-1.7-5.9-3l2.8-5c1.3,1.1,2.9,1.9,4.7,2.5c1.8,0.6,3.7,0.9,5.6,0.9c2.3,0,4.1-0.5,5.4-1.4
		c1.3-1,2-2.3,2-3.9c0-1.8-0.7-3.2-2.1-4.1c-1.4-0.9-3.8-1.4-7.3-1.4h-8.5l1.8-19h20.5v5.5h-15l-0.8,8.1h3.4
		C373.7,457.5,377.3,458.4,379.7,460.3z"/>
	<path class="st5" d="M388.3,460.1c-1.5-1.8-2.3-4.1-2.3-7c0-2.9,0.8-5.2,2.3-7c1.5-1.8,3.5-2.6,6-2.6s4.5,0.9,6.1,2.6
		s2.3,4.1,2.3,7s-0.8,5.2-2.3,7s-3.6,2.6-6.1,2.6S389.8,461.9,388.3,460.1z M397.5,457.7c0.8-1.1,1.1-2.6,1.1-4.5
		c0-1.9-0.4-3.4-1.1-4.5c-0.8-1.1-1.8-1.6-3.2-1.6c-1.3,0-2.3,0.5-3.1,1.6s-1.2,2.6-1.2,4.5s0.4,3.4,1.2,4.5
		c0.8,1.1,1.8,1.6,3.1,1.6C395.7,459.3,396.7,458.7,397.5,457.7z M415.3,443.9h4.9l-23.9,35h-4.9L415.3,443.9z M411.2,476.6
		c-1.5-1.8-2.3-4.1-2.3-7c0-2.9,0.8-5.2,2.3-7c1.5-1.8,3.5-2.6,6-2.6s4.5,0.9,6.1,2.6c1.5,1.8,2.3,4.1,2.3,7c0,2.9-0.8,5.2-2.3,7
		c-1.6,1.8-3.6,2.6-6.1,2.6S412.7,478.4,411.2,476.6z M420.4,474.1c0.8-1.1,1.2-2.6,1.2-4.5s-0.4-3.4-1.2-4.5s-1.8-1.6-3.1-1.6
		c-1.3,0-2.4,0.5-3.2,1.6c-0.8,1.1-1.1,2.6-1.1,4.5c0,1.9,0.4,3.4,1.1,4.5c0.8,1.1,1.8,1.6,3.2,1.6
		C418.6,475.8,419.6,475.2,420.4,474.1z"/>
</g>
<g>
	<path class="st5" d="M943.7,447.9c2.7,3,4,7.3,4,12.9c0,3.9-0.7,7.3-2.2,10.1c-1.4,2.8-3.4,4.9-6,6.4s-5.6,2.2-9,2.2
		c-1.8,0-3.5-0.2-5.1-0.6s-3-0.9-4.1-1.7l2.4-4.9c1.7,1.1,4,1.7,6.6,1.7c3.4,0,6-1,7.9-3.1c1.9-2.1,2.8-5,2.8-9v0
		c-1,1.2-2.3,2.1-3.9,2.7c-1.6,0.6-3.4,0.9-5.4,0.9c-2.3,0-4.4-0.4-6.2-1.3s-3.3-2.1-4.3-3.8c-1-1.6-1.5-3.5-1.5-5.7
		c0-2.3,0.6-4.3,1.7-6c1.1-1.7,2.7-3,4.6-4c1.9-0.9,4.1-1.4,6.5-1.4C937.3,443.4,941,444.9,943.7,447.9z M938.1,458.7
		c1.3-1.1,2-2.6,2-4.3c0-1.7-0.6-3.1-1.9-4.2s-3.1-1.7-5.3-1.7c-2,0-3.7,0.5-4.9,1.6c-1.3,1.1-1.9,2.5-1.9,4.3
		c0,1.8,0.6,3.3,1.9,4.4c1.3,1.1,3,1.6,5.1,1.6C935.1,460.4,936.8,459.8,938.1,458.7z"/>
	<path class="st5" d="M977.1,473.4v5.5h-25.8v-4.3l13.9-13.2c1.6-1.5,2.6-2.8,3.2-3.9s0.8-2.2,0.8-3.3c0-1.6-0.6-2.9-1.7-3.8
		c-1.1-0.9-2.7-1.3-4.8-1.3c-3.6,0-6.3,1.2-8.2,3.6l-4.5-3.5c1.4-1.8,3.2-3.3,5.5-4.3c2.3-1,4.9-1.5,7.8-1.5c3.8,0,6.8,0.9,9.1,2.7
		s3.4,4.2,3.4,7.3c0,1.9-0.4,3.7-1.2,5.4s-2.3,3.6-4.6,5.7l-9.4,8.9H977.1z"/>
	<path class="st5" d="M988.2,472.1c0.8,0.8,1.2,1.8,1.2,3c0,0.5-0.1,1.1-0.2,1.7c-0.1,0.6-0.5,1.5-0.9,2.6l-2.5,7h-4l2-7.6
		c-0.7-0.3-1.3-0.8-1.7-1.4c-0.4-0.6-0.6-1.4-0.6-2.3c0-1.2,0.4-2.2,1.2-3c0.8-0.8,1.7-1.2,2.9-1.2
		C986.5,471,987.5,471.3,988.2,472.1z"/>
	<path class="st5" d="M1015.5,460.3c2.4,1.9,3.6,4.5,3.6,7.8c0,2.1-0.5,4-1.6,5.7s-2.6,3-4.6,4c-2.1,1-4.6,1.5-7.7,1.5
		c-2.5,0-4.9-0.4-7.2-1.1c-2.3-0.7-4.3-1.7-5.9-3l2.8-5c1.3,1.1,2.9,1.9,4.7,2.5c1.8,0.6,3.7,0.9,5.6,0.9c2.3,0,4.1-0.5,5.4-1.4
		c1.3-1,2-2.3,2-3.9c0-1.8-0.7-3.2-2.1-4.1c-1.4-0.9-3.8-1.4-7.3-1.4h-8.5l1.8-19h20.5v5.5h-15l-0.8,8.1h3.4
		C1009.5,457.5,1013.1,458.4,1015.5,460.3z"/>
	<path class="st5" d="M1024,460.1c-1.5-1.8-2.3-4.1-2.3-7c0-2.9,0.8-5.2,2.3-7c1.5-1.8,3.5-2.6,6-2.6s4.5,0.9,6.1,2.6s2.3,4.1,2.3,7
		s-0.8,5.2-2.3,7s-3.6,2.6-6.1,2.6S1025.6,461.9,1024,460.1z M1033.3,457.7c0.8-1.1,1.1-2.6,1.1-4.5c0-1.9-0.4-3.4-1.1-4.5
		c-0.8-1.1-1.8-1.6-3.2-1.6c-1.3,0-2.3,0.5-3.1,1.6s-1.2,2.6-1.2,4.5s0.4,3.4,1.2,4.5c0.8,1.1,1.8,1.6,3.1,1.6
		C1031.4,459.3,1032.5,458.7,1033.3,457.7z M1051.1,443.9h4.9l-23.9,35h-4.9L1051.1,443.9z M1047,476.6c-1.5-1.8-2.3-4.1-2.3-7
		c0-2.9,0.8-5.2,2.3-7c1.5-1.8,3.5-2.6,6-2.6s4.5,0.9,6.1,2.6c1.5,1.8,2.3,4.1,2.3,7c0,2.9-0.8,5.2-2.3,7c-1.6,1.8-3.6,2.6-6.1,2.6
		S1048.5,478.4,1047,476.6z M1056.2,474.1c0.8-1.1,1.2-2.6,1.2-4.5s-0.4-3.4-1.2-4.5s-1.8-1.6-3.1-1.6c-1.3,0-2.4,0.5-3.2,1.6
		c-0.8,1.1-1.1,2.6-1.1,4.5c0,1.9,0.4,3.4,1.1,4.5c0.8,1.1,1.8,1.6,3.2,1.6C1054.4,475.8,1055.4,475.2,1056.2,474.1z"/>
</g>
<g>
	<g>
		<path class="st6" d="M663.8,371.9C663.8,371.9,663.7,371.9,663.8,371.9c0.2,0.3,0.6,0.7,0.9,1.2c0,0,0,0,0-0.1
			c0.2,0.5,0.4,1,0.6,1.4c0,0,0-0.1,0-0.1c0.1,0.5,0.1,1.1,0.2,1.6c0,0,0-0.1,0-0.1c-0.1,0.5-0.1,1.1-0.2,1.6c0,0,0-0.1,0-0.1
			c-0.2,0.5-0.4,1-0.6,1.4c0,0,0-0.1,0.1-0.1c-0.3,0.4-0.6,0.8-0.9,1.2c0,0,0.1-0.1,0.1-0.1c-0.4,0.3-0.8,0.6-1.2,0.9c0,0,0,0,0.1,0
			c-0.5,0.2-1,0.4-1.4,0.6c0,0,0.1,0,0.1,0c-0.5,0.1-1.1,0.1-1.6,0.2c0,0,0,0,0.1,0c-0.5-0.1-1.1-0.1-1.6-0.2c0,0,0.1,0,0.1,0
			c-0.5-0.2-1-0.4-1.4-0.6c0,0,0,0,0.1,0c-0.4-0.3-0.8-0.6-1.2-0.9c0,0,0,0,0.1,0.1c-0.3-0.4-0.6-0.8-0.9-1.2c0,0,0,0.1,0.1,0.1
			c-0.2-0.5-0.4-1-0.6-1.4c0,0,0,0.1,0,0.1c-0.1-0.5-0.1-1.1-0.2-1.6c0,0,0,0.1,0,0.1c0.1-0.5,0.1-1.1,0.2-1.6c0,0,0,0.1,0,0.1
			c0.2-0.5,0.4-1,0.6-1.4c0,0,0,0,0,0.1c0.3-0.4,0.6-0.8,0.9-1.2c0,0,0,0-0.1,0.1c0.4-0.3,0.8-0.6,1.2-0.9c0,0,0,0-0.1,0
			c-0.7,0.4-1.3,0.9-1.7,1.5c-0.5,0.6-0.9,1.3-1.1,2c-0.3,0.8-0.3,1.6-0.1,2.4c0,0.8,0.3,1.5,0.7,2.2c0.3,0.4,0.6,0.8,0.9,1.2
			c0.7,0.7,1.6,1.3,2.6,1.5c0.5,0.1,1.1,0.1,1.6,0.2c1.1,0,2.1-0.3,3-0.8c0.5-0.3,0.9-0.6,1.3-1c0.8-0.7,1.3-1.7,1.6-2.7
			c0,0,0,0,0-0.1c0,0,0,0,0,0c0.1-0.5,0.1-1.1,0.2-1.6c0-0.6-0.1-1.2-0.2-1.7c-0.1-0.5-0.6-1.4-0.6-1.6c0,0,0,0,0-0.1c0,0,0,0,0,0
			c-0.3-0.4-0.6-0.8-0.9-1.2c0,0,0,0-0.1-0.1c-0.4-0.3-0.8-0.6-1.2-0.9c0,0,0,0,0,0c0,0,0,0,0,0c-0.5-0.2-1-0.4-1.4-0.6
			c0,0-0.1,0-0.1,0c-0.5-0.1-1.1-0.1-1.6-0.2c0,0,0,0,0,0c-0.5,0-1.1,0.1-1.6,0.2c-0.5,0.1-1.1,0.4-1.6,0.7c-0.5,0.3-0.9,0.6-1.3,1
			c-0.3,0.4-0.6,0.8-0.9,1.2c0,0,0,0,0,0c0,0,0,0,0,0.1c-0.6,1.3-0.6,1.2-0.7,2.4c-0.1,1.1-0.2,1.2,0.1,2.5c0.2,0.9,0.9,2.3,1.7,2.9
			c0.5,0.6,1.2,1,1.9,1.2c0.7,0.4,1.5,0.5,2.3,0.5c0.8,0,1.6-0.1,2.3-0.5c0.7-0.2,1.4-0.7,1.9-1.2c0.3-0.4,0.6-0.8,0.9-1.2
			c0.5-0.9,0.8-1.9,0.8-3c-0.1-0.5-0.1-1.1-0.2-1.6C665,373.5,664.5,372.7,663.8,371.9L663.8,371.9z"/>
	</g>
</g>
<g>
	<path class="st6" d="M623.6,325.9c2.7,3,4,7.3,4,12.9c0,3.9-0.7,7.3-2.2,10.1c-1.4,2.8-3.4,4.9-6,6.4s-5.6,2.2-9,2.2
		c-1.8,0-3.5-0.2-5.1-0.6s-3-0.9-4.1-1.7l2.4-4.9c1.7,1.1,4,1.7,6.6,1.7c3.4,0,6-1,7.9-3.1c1.9-2.1,2.8-5,2.8-9v0
		c-1,1.2-2.3,2.1-3.9,2.7c-1.6,0.6-3.4,0.9-5.4,0.9c-2.3,0-4.4-0.4-6.2-1.3s-3.3-2.1-4.3-3.8c-1-1.6-1.5-3.5-1.5-5.7
		c0-2.3,0.6-4.3,1.7-6c1.1-1.7,2.7-3,4.6-4c1.9-0.9,4.1-1.4,6.5-1.4C617.2,321.4,621,322.9,623.6,325.9z M618.1,336.7
		c1.3-1.1,2-2.6,2-4.3c0-1.7-0.6-3.1-1.9-4.2s-3.1-1.7-5.3-1.7c-2,0-3.7,0.5-4.9,1.6c-1.3,1.1-1.9,2.5-1.9,4.3
		c0,1.8,0.6,3.3,1.9,4.4c1.3,1.1,3,1.6,5.1,1.6C615,338.4,616.8,337.8,618.1,336.7z"/>
	<path class="st6" d="M653.9,338.3c2.4,1.9,3.6,4.5,3.6,7.8c0,2.1-0.5,4-1.6,5.7s-2.6,3-4.6,4c-2.1,1-4.6,1.5-7.7,1.5
		c-2.5,0-4.9-0.4-7.2-1.1c-2.3-0.7-4.3-1.7-5.9-3l2.8-5c1.3,1.1,2.9,1.9,4.7,2.5c1.8,0.6,3.7,0.9,5.6,0.9c2.3,0,4.1-0.5,5.4-1.4
		c1.3-1,2-2.3,2-3.9c0-1.8-0.7-3.2-2.1-4.1c-1.4-0.9-3.8-1.4-7.3-1.4H633l1.8-19h20.5v5.5h-15l-0.8,8.1h3.4
		C647.9,335.4,651.5,336.4,653.9,338.3z"/>
	<path class="st6" d="M668,350.1c0.8,0.8,1.2,1.8,1.2,3c0,0.5-0.1,1.1-0.2,1.7c-0.1,0.6-0.5,1.5-0.9,2.6l-2.5,7h-4l2-7.6
		c-0.7-0.3-1.3-0.8-1.7-1.4c-0.4-0.6-0.6-1.4-0.6-2.3c0-1.2,0.4-2.2,1.2-3c0.8-0.8,1.7-1.2,2.9-1.2
		C666.3,348.9,667.3,349.3,668,350.1z"/>
	<path class="st6" d="M695.3,338.3c2.4,1.9,3.6,4.5,3.6,7.8c0,2.1-0.5,4-1.6,5.7s-2.6,3-4.6,4c-2.1,1-4.6,1.5-7.7,1.5
		c-2.5,0-4.9-0.4-7.2-1.1c-2.3-0.7-4.3-1.7-5.9-3l2.8-5c1.3,1.1,2.9,1.9,4.7,2.5c1.8,0.6,3.7,0.9,5.6,0.9c2.3,0,4.1-0.5,5.4-1.4
		c1.3-1,2-2.3,2-3.9c0-1.8-0.7-3.2-2.1-4.1c-1.4-0.9-3.8-1.4-7.3-1.4h-8.5l1.8-19h20.5v5.5h-15l-0.8,8.1h3.4
		C689.3,335.4,692.9,336.4,695.3,338.3z"/>
	<path class="st6" d="M703.8,338.1c-1.5-1.8-2.3-4.1-2.3-7c0-2.9,0.8-5.2,2.3-7c1.5-1.8,3.5-2.6,6-2.6s4.5,0.9,6.1,2.6
		s2.3,4.1,2.3,7s-0.8,5.2-2.3,7s-3.6,2.6-6.1,2.6S705.4,339.8,703.8,338.1z M713.1,335.6c0.8-1.1,1.1-2.6,1.1-4.5
		c0-1.9-0.4-3.4-1.1-4.5c-0.8-1.1-1.8-1.6-3.2-1.6c-1.3,0-2.3,0.5-3.1,1.6s-1.2,2.6-1.2,4.5s0.4,3.4,1.2,4.5
		c0.8,1.1,1.8,1.6,3.1,1.6C711.3,337.2,712.3,336.7,713.1,335.6z M730.9,321.9h4.9l-23.9,35H707L730.9,321.9z M726.8,354.6
		c-1.5-1.8-2.3-4.1-2.3-7c0-2.9,0.8-5.2,2.3-7c1.5-1.8,3.5-2.6,6-2.6s4.5,0.9,6.1,2.6c1.5,1.8,2.3,4.1,2.3,7c0,2.9-0.8,5.2-2.3,7
		c-1.6,1.8-3.6,2.6-6.1,2.6S728.3,356.3,726.8,354.6z M736,352.1c0.8-1.1,1.2-2.6,1.2-4.5s-0.4-3.4-1.2-4.5s-1.8-1.6-3.1-1.6
		c-1.3,0-2.4,0.5-3.2,1.6c-0.8,1.1-1.1,2.6-1.1,4.5c0,1.9,0.4,3.4,1.1,4.5c0.8,1.1,1.8,1.6,3.2,1.6
		C734.2,353.7,735.2,353.2,736,352.1z"/>
</g>
<g>
	<g>
		<line class="st7" x1="660" y1="376" x2="660" y2="382"/>
		<line class="st8" x1="660" y1="393.8" x2="660" y2="906.1"/>
		<line class="st7" x1="660" y1="912" x2="660" y2="918"/>
	</g>
</g>
<g>
	<g>
		<line class="st9" x1="911.5" y1="489" x2="911.5" y2="495"/>
		<line class="st10" x1="911.5" y1="506.9" x2="911.5" y2="906"/>
		<line class="st9" x1="911.5" y1="912" x2="911.5" y2="918"/>
	</g>
</g>
<g>
	<g>
		<line class="st9" x1="421" y1="489" x2="421" y2="495"/>
		<line class="st10" x1="421" y1="506.9" x2="421" y2="906"/>
		<line class="st9" x1="421" y1="912" x2="421" y2="918"/>
	</g>
</g>
<g>
	<path class="st6" d="M641.6,310.5l-0.1-27.8l-13.8,23h-3.5L610.5,283v27.5h-7.4v-42h6.4l16.7,27.8l16.4-27.8h6.4l0.1,42H641.6z"/>
	<path class="st6" d="M687.6,300.7h-21l-4.1,9.7h-8l18.9-42h7.7l19,42h-8.2L687.6,300.7z M685,294.6l-7.9-18.4l-7.9,18.4H685z"/>
	<path class="st6" d="M729.7,310.5l-11.4-16l-11.3,16h-8.9l15.6-21.4l-14.8-20.6h8.8l10.7,14.9l10.6-14.9h8.5l-14.7,20.3l15.8,21.7
		H729.7z"/>
</g>
</svg>
