<?xml version="1.0" encoding="utf-8"?>
<!-- Generator: Adobe Illustrator 24.3.0, SVG Export Plug-In . SVG Version: 6.00 Build 0)  -->
<svg version="1.1" id="Слой_1" xmlns="http://www.w3.org/2000/svg" xmlns:xlink="http://www.w3.org/1999/xlink" x="0px" y="0px"
	 viewBox="0 0 1920 1080" style="enable-background:new 0 0 1920 1080;" xml:space="preserve">
<style type="text/css">
	.st0{fill:#0D1117;}
	.st1{fill:none;stroke:#3398FF;stroke-width:5;stroke-miterlimit:10;}
	.st2{fill:#FFFFFF;}
	.st3{fill:#B61D1D;}
	.st4{fill:none;stroke:#FFFFFF;stroke-miterlimit:10;}
	.st5{fill:#3398FF;}
</style>
<rect class="st0" width="1920" height="1080"/>
<path class="st1" d="M1340,801.8H580c-6.6,0-12-5.4-12-12v-760c0-6.6,5.4-12,12-12h760c6.6,0,12,5.4,12,12v760
	C1352,796.3,1346.6,801.8,1340,801.8z"/>
<rect x="832.5" y="121.2" class="st1" width="256" height="149"/>
<path class="st1" d="M1153.5,737.2h-387c-6.6,0-12-5.4-12-12v-387c0-6.6,5.4-12,12-12h387c6.6,0,12,5.4,12,12v387
	C1165.5,731.8,1160.1,737.2,1153.5,737.2z"/>
<rect x="1497.5" y="577.5" class="st1" width="282" height="138"/>
<rect x="90.5" y="577.4" class="st1" width="282" height="138"/>
<rect x="832.5" y="877.5" class="st1" width="256" height="173"/>
<rect x="832.5" y="409.5" class="st1" width="256" height="99"/>
<rect x="832.5" y="548.5" class="st1" width="256" height="149"/>
<g>
	<g>
		<g>
			<polygon class="st2" points="1,648.2 68.3,648.2 64.9,656.4 88,646.6 64.9,636.9 68.3,645 1,645 			"/>
		</g>
	</g>
</g>
<g>
	<g>
		<g>
			<path class="st3" d="M233.1,562V319.5V198.3v-59.1c0-0.1,0-0.2,0-0.2h0.2h0.4h0.8h1.6h3.2h7.2h15.2h30.3h484.9h33l-3.5,8.2
				l23.1-9.8l-23.1-9.8l3.5,8.2h-33H291.9h-30.3h-15.2h-8h-4.4h-2.2h-1.1h-0.6H230c-0.1,0,0,0.2,0,0.2v62.2v121.2V562H233.1z"/>
		</g>
	</g>
</g>
<g>
	<g>
		<g>
			<polygon class="st2" points="376,648.2 808.3,648.1 804.9,656.3 828,646.5 804.9,636.7 808.3,644.9 376,645 			"/>
		</g>
	</g>
</g>
<g>
	<g>
		<g>
			<polygon class="st2" points="1092,648.1 1475.3,648.1 1471.9,656.3 1495,646.5 1471.9,636.7 1475.3,644.9 1092,644.9 			"/>
		</g>
	</g>
</g>
<g>
	<g>
		<g>
			<polygon class="st2" points="1782,648.1 1849.3,648.1 1845.9,656.3 1869,646.5 1845.9,636.7 1849.3,644.9 1782,644.9 			"/>
		</g>
	</g>
</g>
<g>
	<g>
		<g>
			<path class="st2" d="M830,923.9h-74.3h-37.1h-17c-0.1,0-0.1,0,0-0.1v-0.1v-0.2V923v-1v-1.9v-3.9V907V758.5v-39.9v-20v-9v-2.1V687
				v-0.3v-0.1c0,0,0.1,0,0.1,0h1h4.2h79.3h23.1l-3.5,8.2l13.2-5.6l10-4.2l-10-4.2l-13.2-5.6l3.5,8.2h-23.1h-80.4H700h-1.5
				c0,0-0.2,0-0.2,0v0.2v0.4v0.7v2.9v11v20v39.9V907v9.4v5.4v2.7v1.3v0.7v0.3v0.2c0,0.1,0,0.1,0.1,0.1h20.1h37.1H830V923.9z"/>
		</g>
	</g>
</g>
<g>
	<g>
		<g>
			<path class="st2" d="M1091,686.6h74.3h37.1h17c0.1,0,0.1,0,0,0.1v0.1v0.2v0.5v1v1.9v3.9v9.2V852v39.9v20v9v2.1v0.5v0.3v0.1
				c0,0-0.1,0-0.1,0h-1h-4.2h-79.3h-23.1l3.5-8.2l-13.2,5.6l-10,4.2l10,4.2l13.2,5.6l-3.5-8.2h23.1h80.4h5.8h1.5c0,0,0.2,0,0.2,0
				v-0.2v-0.4v-0.7v-2.9v-11v-20V852V703.5v-9.4v-5.4V686v-1.3V684v-0.3v-0.2c0-0.1,0-0.1-0.1-0.1h-20.1h-37.1H1091V686.6z"/>
		</g>
	</g>
</g>
<g>
	<g>
		<g>
			<path class="st2" d="M830,495.9h-27.1h-14h-7.9c-0.1,2.6,0,5.2,0,7.9v55.3v5v2.5c0,0.1,0.1,0.1,0.2,0.1h0.3h0.6h1.2h9.8h11.2h5
				l-3.5,8.2L822,568l7-3l-7-3l-16.1-6.8l3.5,8.2h-5h-11.2h-7.3h-0.9h-0.4h-0.2c-0.1,0-0.2,0-0.2-0.1v-1.8V558v-53.2
				c0-1.9,0-3.8,0-5.7h5.7h13.1H830V495.9z"/>
		</g>
	</g>
</g>
<path class="st4" d="M829.4,565"/>
<g>
	<g>
		<g>
			<path class="st2" d="M1091.5,1033.1h121.7h60.8h32c0,0,0.1,0,0.1,0v-0.1v-0.3v-0.6v-1.1v-2.2v-4.4v-8v-15.2V757.9v-265V360.3
				v-66.3v-33.1v-17.8v-1.2v-0.6V241c0-0.1-0.1-0.1-0.2-0.1h-2.4h-4.8h-8.8h-178.1l3.5-8.2l-16,6.7l-7.2,3l7.2,3l16,6.7l-3.5-8.2
				h178.1h7.7h3.5h1.7c0.2-0.1,0.2,0.1,0.2,0.3v0.4v0.9v15.3v33.1v66.3v132.5v265v243.3v15.2v7.2v3.2v1.6v0.8v0.4v0.2v0.1
				c0,0-0.1,0-0.1,0H1274h-60.8h-121.7V1033.1z"/>
		</g>
	</g>
</g>
<g>
	<g>
		<g>
			<polygon class="st3" points="229.9,138 229.9,555.3 221.7,551.9 231.5,575 241.3,551.9 233.1,555.3 233.1,138 			"/>
		</g>
	</g>
</g>
<g>
	<g>
		<g>
			<path class="st3" d="M814,1029.9H692.6h-60.7h-28.8c0,0-0.1,0-0.1,0v-0.1v-0.2v-0.4v-0.8v-1.6v-3.2v-7.2v-15.2V758.5v-588v-1
				v-0.2c0,0,0.2,0,0.2,0h0.5h1.9h3.9h8.9h18.4h36.8h73.7h58.3h4.6l-3.5,8.2l15.9-6.7l7.2-3.1l-7.2-3.1l-15.9-6.7l3.5,8.2h-4.6
				h-58.3h-73.7h-36.8h-18.4h-9.5h-5.4h-2.7h-0.7c-0.1,0-0.2,0-0.3,0v0.3v1.3v590.7v242.7v15.2v8v4.4v2.2v1.1v0.6v0.3v0.1
				c0,0,0.1,0,0.1,0h31.9h60.7H814V1029.9z"/>
		</g>
	</g>
</g>
<g>
	<g>
		<g>
			<polygon class="st3" points="607,1033.1 809.3,1033.1 805.9,1041.3 829,1031.5 805.9,1021.7 809.3,1029.9 607,1029.9 			"/>
		</g>
	</g>
</g>
<g>
	<g>
		<g>
			<path class="st3" d="M822,597.9H709.2h-56.4h-26.6c-0.1,0-0.1,0-0.1-0.1v-0.2v-0.4v-0.7V595v-3v-6.6v-14.1V345.8V204.7
				c0-2.4,0-5,0-7.4h7.4H651h35.3H757h53.4l-3.5,8.2l12.6-5.3l10.5-4.4l-10.5-4.4l-12.6-5.3l3.5,8.2H757h-70.6H651h-17.8H623
				c-0.1,0-0.1,0.1-0.1,0.1v0.2v0.3v0.6v1.3v2.6v5.1v141.4v225.6v14.1v7.5v4.1v2v1v0.5v0.3v0.1c0,0,0.1,0,0.1,0h29.8h56.4H822V597.9
				z"/>
		</g>
	</g>
</g>
<g>
	<g>
		<g>
			<polygon class="st3" points="629,601.1 810.3,601.1 806.9,609.3 830,599.5 806.9,589.7 810.3,597.9 629,597.9 			"/>
		</g>
	</g>
</g>
<g>
	<g>
		<g>
			<path class="st3" d="M823,430.9h-95.1h-47.5h-22.2c-0.1,0-0.1,0-0.1-0.1v-0.2v-0.3v-0.6v-1.2V426v-5.3v-11.9v-95.1v-47.5v-23.8
				v-11.3l0-5h5h146.7l-3.5,8.2l10.2-4.3l12.9-5.4l-12.9-5.4l-10.2-4.3l3.5,8.2H661.8h-6.9l0,6.9v12.5v23.8v47.5v95.1v11.9v6.6v3.5
				v1.7v0.9v0.4v0.2v0.1c0,0,0.1,0,0.1,0h25.3h47.5H823V430.9z"/>
		</g>
	</g>
</g>
<g>
	<g>
		<g>
			<polygon class="st3" points="657,434.1 810.3,434.1 806.9,442.3 830,432.5 806.9,422.7 810.3,430.9 657,430.9 			"/>
		</g>
	</g>
</g>
<g>
	<g>
		<g>
			<path class="st2" d="M1091,585.1h24.8h13h7.2c0-2.4,0-4.8,0-7.2v-50.3V492v-17.8v-9.5v-5.2v-1.3v-0.6v-0.2v-0.1c0,0,0,0-0.1,0
				h-0.3h-2.6h-22.4l3.5-8.2l-18.8,7.9l-4.4,1.8l4.4,1.8l18.8,7.9l-3.5-8.2h20.1h1.9h0.2c0.1,0,0.1,0,0.1,0.1v0.1v0.5v0.9v3.7v8.3
				V492v35.6v49.1c0,1.7,0,3.5,0,5.2h-5.2h-11.8H1091V585.1z"/>
		</g>
	</g>
</g>
<g>
	<path class="st5" d="M883.4,355.3v23.8h-4.4v-20.1h-12.3v20.1h-4.4v-23.8H883.4z"/>
	<path class="st5" d="M904.4,361.9c1.4,0.8,2.5,1.9,3.3,3.3c0.8,1.4,1.2,3,1.2,4.9s-0.4,3.5-1.2,4.9c-0.8,1.4-1.9,2.5-3.3,3.3
		c-1.4,0.8-3,1.2-4.7,1.2c-2.4,0-4.4-0.8-5.8-2.4v8.8h-4.2V361h4v2.4c0.7-0.9,1.6-1.5,2.6-1.9c1-0.4,2.2-0.6,3.4-0.6
		C901.5,360.8,903,361.1,904.4,361.9z M903.1,374.1c1-1,1.5-2.4,1.5-4.1c0-1.7-0.5-3.1-1.5-4.1c-1-1-2.3-1.6-3.9-1.6
		c-1,0-1.9,0.2-2.8,0.7c-0.8,0.5-1.5,1.1-1.9,2s-0.7,1.9-0.7,3c0,1.1,0.2,2.1,0.7,3c0.5,0.9,1.1,1.5,1.9,2c0.8,0.5,1.7,0.7,2.8,0.7
		C900.8,375.7,902.1,375.2,903.1,374.1z"/>
	<path class="st5" d="M916.2,378.2c-1.5-0.8-2.6-1.9-3.5-3.3c-0.8-1.4-1.2-3-1.2-4.8c0-1.8,0.4-3.4,1.2-4.8c0.8-1.4,2-2.5,3.5-3.3
		c1.5-0.8,3.1-1.2,5-1.2c1.9,0,3.5,0.4,5,1.2c1.5,0.8,2.6,1.9,3.5,3.3c0.8,1.4,1.2,3,1.2,4.8c0,1.8-0.4,3.4-1.2,4.8
		c-0.8,1.4-2,2.5-3.5,3.3c-1.5,0.8-3.1,1.2-5,1.2C919.4,379.4,917.7,379,916.2,378.2z M925.1,374.1c1-1,1.5-2.4,1.5-4.1
		c0-1.7-0.5-3.1-1.5-4.1c-1-1-2.3-1.6-3.9-1.6c-1.6,0-2.9,0.5-3.9,1.6c-1,1-1.5,2.4-1.5,4.1c0,1.7,0.5,3.1,1.5,4.1
		c1,1,2.3,1.6,3.9,1.6C922.8,375.7,924.1,375.2,925.1,374.1z"/>
	<path class="st5" d="M955,375.5v7.8h-4v-4.2h-15.9V361h4.2v14.6h8.7V361h4.2v14.6H955z"/>
	<path class="st5" d="M975.7,371.4h-14.2c0.2,1.3,0.9,2.4,2,3.2c1.1,0.8,2.4,1.2,3.9,1.2c2,0,3.6-0.7,4.9-2l2.3,2.6
		c-0.8,1-1.8,1.7-3.1,2.2c-1.2,0.5-2.7,0.7-4.2,0.7c-2,0-3.8-0.4-5.3-1.2c-1.5-0.8-2.7-1.9-3.5-3.3c-0.8-1.4-1.2-3-1.2-4.8
		c0-1.8,0.4-3.4,1.2-4.8c0.8-1.4,1.9-2.5,3.3-3.3c1.4-0.8,3-1.2,4.8-1.2c1.8,0,3.3,0.4,4.7,1.2c1.4,0.8,2.5,1.9,3.3,3.3
		c0.8,1.4,1.2,3.1,1.2,4.9C975.8,370.4,975.8,370.9,975.7,371.4z M963.2,365.4c-0.9,0.8-1.5,1.9-1.7,3.2h10.3
		c-0.2-1.3-0.7-2.4-1.7-3.2s-2.1-1.2-3.5-1.2C965.2,364.2,964.1,364.6,963.2,365.4z"/>
	<path class="st5" d="M983.6,378.2c-1.5-0.8-2.7-1.9-3.5-3.3c-0.8-1.4-1.3-3-1.3-4.8c0-1.8,0.4-3.4,1.3-4.8c0.8-1.4,2-2.5,3.5-3.3
		c1.5-0.8,3.2-1.2,5.1-1.2c1.8,0,3.4,0.4,4.7,1.1c1.3,0.7,2.4,1.8,3,3.1l-3.3,1.9c-0.5-0.8-1.2-1.5-2-1.9c-0.8-0.4-1.6-0.6-2.6-0.6
		c-1.6,0-2.9,0.5-3.9,1.5c-1,1-1.6,2.4-1.6,4.1c0,1.7,0.5,3.1,1.5,4.1s2.4,1.5,4,1.5c0.9,0,1.8-0.2,2.6-0.6c0.8-0.4,1.4-1,2-1.9
		l3.3,1.9c-0.7,1.4-1.7,2.4-3.1,3.1c-1.3,0.7-2.9,1.1-4.7,1.1C986.8,379.4,985.1,379,983.6,378.2z"/>
	<path class="st5" d="M1003.1,378.2c-1.5-0.8-2.7-1.9-3.5-3.3c-0.8-1.4-1.3-3-1.3-4.8c0-1.8,0.4-3.4,1.3-4.8c0.8-1.4,2-2.5,3.5-3.3
		c1.5-0.8,3.2-1.2,5.1-1.2c1.8,0,3.4,0.4,4.7,1.1c1.3,0.7,2.4,1.8,3,3.1l-3.3,1.9c-0.5-0.8-1.2-1.5-2-1.9c-0.8-0.4-1.6-0.6-2.6-0.6
		c-1.6,0-2.9,0.5-3.9,1.5c-1,1-1.6,2.4-1.6,4.1c0,1.7,0.5,3.1,1.5,4.1s2.4,1.5,4,1.5c0.9,0,1.8-0.2,2.6-0.6c0.8-0.4,1.4-1,2-1.9
		l3.3,1.9c-0.7,1.4-1.7,2.4-3.1,3.1c-1.3,0.7-2.9,1.1-4.7,1.1C1006.3,379.4,1004.6,379,1003.1,378.2z"/>
	<path class="st5" d="M1022.5,378.2c-1.5-0.8-2.6-1.9-3.5-3.3c-0.8-1.4-1.2-3-1.2-4.8c0-1.8,0.4-3.4,1.2-4.8c0.8-1.4,2-2.5,3.5-3.3
		c1.5-0.8,3.1-1.2,5-1.2c1.9,0,3.5,0.4,5,1.2c1.5,0.8,2.6,1.9,3.5,3.3c0.8,1.4,1.2,3,1.2,4.8c0,1.8-0.4,3.4-1.2,4.8
		c-0.8,1.4-2,2.5-3.5,3.3c-1.5,0.8-3.1,1.2-5,1.2C1025.7,379.4,1024,379,1022.5,378.2z M1031.4,374.1c1-1,1.5-2.4,1.5-4.1
		c0-1.7-0.5-3.1-1.5-4.1c-1-1-2.3-1.6-3.9-1.6c-1.6,0-2.9,0.5-3.9,1.6c-1,1-1.5,2.4-1.5,4.1c0,1.7,0.5,3.1,1.5,4.1s2.3,1.6,3.9,1.6
		C1029.1,375.7,1030.4,375.2,1031.4,374.1z"/>
	<path class="st5" d="M1056.2,361.9c1.4,0.8,2.5,1.9,3.3,3.3c0.8,1.4,1.2,3,1.2,4.9s-0.4,3.5-1.2,4.9c-0.8,1.4-1.9,2.5-3.3,3.3
		c-1.4,0.8-3,1.2-4.7,1.2c-2.4,0-4.4-0.8-5.8-2.4v8.8h-4.2V361h4v2.4c0.7-0.9,1.6-1.5,2.6-1.9s2.2-0.6,3.4-0.6
		C1053.2,360.8,1054.8,361.1,1056.2,361.9z M1054.8,374.1c1-1,1.5-2.4,1.5-4.1c0-1.7-0.5-3.1-1.5-4.1c-1-1-2.3-1.6-3.9-1.6
		c-1,0-1.9,0.2-2.8,0.7c-0.8,0.5-1.5,1.1-1.9,2s-0.7,1.9-0.7,3c0,1.1,0.2,2.1,0.7,3c0.5,0.9,1.1,1.5,1.9,2c0.8,0.5,1.7,0.7,2.8,0.7
		C1052.5,375.7,1053.8,375.2,1054.8,374.1z"/>
</g>
<g>
	<path class="st5" d="M900.5,449.8c1.3,0.6,2.3,1.4,3,2.5c0.7,1.1,1,2.4,1,3.9c0,1.5-0.3,2.8-1,3.8s-1.7,1.9-3,2.5s-2.8,0.9-4.6,0.9
		h-4.6v5.9h-3.8V449h8.4C897.6,449,899.2,449.2,900.5,449.8z M899.4,459.2c0.9-0.7,1.3-1.7,1.3-3c0-1.3-0.4-2.3-1.3-3
		c-0.9-0.7-2.1-1-3.7-1h-4.4v8.1h4.4C897.3,460.2,898.6,459.9,899.4,459.2z"/>
	<path class="st5" d="M922.1,462.7h-12.2c0.2,1.1,0.8,2,1.7,2.7s2,1,3.3,1c1.7,0,3.1-0.6,4.2-1.7l1.9,2.2c-0.7,0.8-1.6,1.5-2.6,1.9
		c-1.1,0.4-2.3,0.6-3.6,0.6c-1.7,0-3.2-0.3-4.5-1c-1.3-0.7-2.3-1.6-3-2.8c-0.7-1.2-1.1-2.6-1.1-4.1c0-1.5,0.3-2.9,1-4.1
		c0.7-1.2,1.6-2.2,2.9-2.8c1.2-0.7,2.6-1,4.1-1c1.5,0,2.9,0.3,4,1s2.1,1.6,2.8,2.8c0.7,1.2,1,2.6,1,4.2
		C922.1,461.9,922.1,462.2,922.1,462.7z M911.3,457.5c-0.8,0.7-1.3,1.6-1.5,2.7h8.8c-0.2-1.1-0.6-2-1.4-2.7c-0.8-0.7-1.8-1-3-1
		C913.1,456.5,912.1,456.8,911.3,457.5z"/>
	<path class="st5" d="M938,456.8h-8.3v12.4h-3.6v-15.5H938V456.8z"/>
	<path class="st5" d="M940.6,453.8h3.6V464l8.6-10.2h3.3v15.5h-3.6v-10.2l-8.5,10.2h-3.3V453.8z"/>
	<path class="st5" d="M963.7,468.4c-1.3-0.7-2.3-1.6-3-2.8c-0.7-1.2-1.1-2.6-1.1-4.1c0-1.5,0.4-2.9,1.1-4.1c0.7-1.2,1.7-2.1,3-2.8
		c1.3-0.7,2.7-1,4.3-1c1.5,0,2.9,0.3,4,0.9c1.2,0.6,2,1.5,2.6,2.7l-2.8,1.6c-0.4-0.7-1-1.3-1.7-1.6s-1.4-0.5-2.2-0.5
		c-1.4,0-2.5,0.4-3.4,1.3c-0.9,0.9-1.3,2.1-1.3,3.5c0,1.5,0.4,2.6,1.3,3.5c0.9,0.9,2,1.3,3.4,1.3c0.8,0,1.5-0.2,2.2-0.5
		c0.7-0.4,1.2-0.9,1.7-1.6l2.8,1.6c-0.6,1.2-1.5,2.1-2.6,2.7c-1.2,0.6-2.5,0.9-4,0.9C966.4,469.5,965,469.1,963.7,468.4z"/>
	<path class="st5" d="M990,456.8h-5.4v12.4h-3.6v-12.4h-5.5v-3.1H990V456.8z"/>
	<path class="st5" d="M1005.2,454.6c1.2,0.7,2.1,1.6,2.8,2.8c0.7,1.2,1,2.6,1,4.1c0,1.6-0.3,3-1,4.2c-0.7,1.2-1.6,2.1-2.8,2.8
		c-1.2,0.7-2.5,1-4,1c-2.1,0-3.7-0.7-5-2.1v7.5h-3.6v-21.1h3.5v2c0.6-0.7,1.3-1.3,2.2-1.7s1.9-0.6,2.9-0.6
		C1002.7,453.6,1004,453.9,1005.2,454.6z M1004.1,465c0.9-0.9,1.3-2.1,1.3-3.5c0-1.4-0.4-2.6-1.3-3.5c-0.9-0.9-2-1.3-3.3-1.3
		c-0.9,0-1.7,0.2-2.3,0.6c-0.7,0.4-1.2,1-1.7,1.7c-0.4,0.7-0.6,1.6-0.6,2.6c0,1,0.2,1.8,0.6,2.6c0.4,0.7,1,1.3,1.7,1.7
		c0.7,0.4,1.5,0.6,2.3,0.6C1002.1,466.4,1003.2,465.9,1004.1,465z"/>
	<path class="st5" d="M1024.7,460.2c1,0.9,1.6,2.1,1.6,3.8c0,1.7-0.6,3-1.7,3.9c-1.2,0.9-2.8,1.4-4.9,1.4l-7,0v-15.5h3.6v5.1l3.9,0
		C1022.1,458.9,1023.6,459.3,1024.7,460.2z M1021.8,466c0.6-0.5,0.8-1.1,0.8-2c0-0.9-0.3-1.5-0.8-1.9s-1.4-0.6-2.5-0.6l-3.1,0v5.2
		l3.1,0C1020.4,466.6,1021.2,466.4,1021.8,466z M1028.3,453.8h3.6v15.5h-3.6V453.8z"/>
</g>
<g>
	<path class="st5" d="M846.7,608.3h-3.8v8.6h-3.7v-20.3h3.7v8.5h3.9l5.8-8.5h4l-6.9,9.8l7.2,10.5h-4.3L846.7,608.3z"/>
	<path class="st5" d="M861.5,616c-1.3-0.7-2.2-1.6-2.9-2.8c-0.7-1.2-1.1-2.6-1.1-4.1s0.4-2.9,1.1-4.1c0.7-1.2,1.7-2.1,2.9-2.8
		c1.3-0.7,2.7-1,4.2-1c1.6,0,3,0.3,4.3,1c1.3,0.7,2.2,1.6,2.9,2.8c0.7,1.2,1.1,2.6,1.1,4.1s-0.4,2.9-1.1,4.1
		c-0.7,1.2-1.7,2.2-2.9,2.8c-1.3,0.7-2.7,1-4.3,1C864.2,617.1,862.8,616.7,861.5,616z M869.1,612.6c0.9-0.9,1.3-2.1,1.3-3.5
		s-0.4-2.6-1.3-3.5c-0.9-0.9-2-1.3-3.3-1.3s-2.4,0.4-3.3,1.3c-0.9,0.9-1.3,2.1-1.3,3.5s0.4,2.6,1.3,3.5c0.9,0.9,2,1.3,3.3,1.3
		S868.2,613.5,869.1,612.6z"/>
	<path class="st5" d="M892.8,616.9v-10.3l-5.2,8.6H886l-5.1-8.7v10.3h-3.3v-15.5h3.8l5.5,9.7l5.8-9.7h3.4l0,15.5H892.8z"/>
	<path class="st5" d="M913.2,603.1c1.1,0.6,2,1.5,2.6,2.6c0.6,1.1,0.9,2.4,0.9,3.9c0,1.5-0.3,2.8-1,4c-0.7,1.2-1.7,2-2.9,2.7
		s-2.7,1-4.3,1c-2.7,0-4.8-0.9-6.2-2.7c-1.5-1.8-2.2-4.3-2.2-7.7c0-3.1,0.7-5.6,2-7.4s3.4-3,6.1-3.6l7.2-1.5l0.5,3.2l-6.5,1.3
		c-1.9,0.4-3.3,1-4.2,2c-0.9,0.9-1.5,2.2-1.6,3.9c0.7-0.8,1.5-1.5,2.5-1.9c1-0.5,2.1-0.7,3.2-0.7
		C910.8,602.1,912.1,602.4,913.2,603.1z M911.8,612.9c0.8-0.9,1.2-2,1.2-3.3s-0.4-2.4-1.2-3.2c-0.8-0.8-1.9-1.2-3.2-1.2
		c-1.4,0-2.4,0.4-3.3,1.2c-0.8,0.8-1.2,1.9-1.2,3.2c0,1.4,0.4,2.5,1.3,3.3c0.8,0.9,1.9,1.3,3.3,1.3S911,613.8,911.8,612.9z"/>
	<path class="st5" d="M920.3,601.4h3.6v10.2l8.6-10.2h3.3v15.5h-3.6v-10.2l-8.5,10.2h-3.3V601.4z"/>
	<path class="st5" d="M940.7,601.4h3.6v6.3h7.8v-6.3h3.6v15.5h-3.6v-6.1h-7.8v6.1h-3.6V601.4z"/>
	<path class="st5" d="M971.6,602.8c1.2,1.1,1.8,2.7,1.8,4.9v9.1H970V615c-0.4,0.7-1.1,1.2-1.9,1.6c-0.8,0.4-1.8,0.5-3,0.5
		s-2.2-0.2-3-0.6c-0.9-0.4-1.5-0.9-2-1.7c-0.5-0.7-0.7-1.5-0.7-2.4c0-1.4,0.5-2.5,1.6-3.3c1-0.8,2.7-1.3,4.9-1.3h4v-0.2
		c0-1.1-0.3-1.9-1-2.5c-0.6-0.6-1.6-0.9-2.9-0.9c-0.9,0-1.7,0.1-2.6,0.4c-0.8,0.3-1.6,0.6-2.1,1.1l-1.4-2.6c0.8-0.6,1.8-1.1,2.9-1.4
		c1.1-0.3,2.3-0.5,3.6-0.5C968.6,601.2,970.4,601.7,971.6,602.8z M968.3,613.8c0.7-0.4,1.2-1,1.5-1.8v-1.8H966
		c-2.1,0-3.1,0.7-3.1,2.1c0,0.7,0.3,1.2,0.8,1.6c0.5,0.4,1.2,0.6,2.2,0.6C966.8,614.4,967.6,614.2,968.3,613.8z"/>
	<path class="st5" d="M990.2,604.4h-5.4v12.4h-3.6v-12.4h-5.5v-3.1h14.5V604.4z"/>
	<path class="st5" d="M994.8,616c-1.3-0.7-2.2-1.6-2.9-2.8c-0.7-1.2-1.1-2.6-1.1-4.1s0.4-2.9,1.1-4.1c0.7-1.2,1.7-2.1,2.9-2.8
		s2.7-1,4.2-1c1.6,0,3,0.3,4.3,1s2.2,1.6,2.9,2.8c0.7,1.2,1.1,2.6,1.1,4.1s-0.4,2.9-1.1,4.1c-0.7,1.2-1.7,2.2-2.9,2.8s-2.7,1-4.3,1
		C997.5,617.1,996.1,616.7,994.8,616z M1002.3,612.6c0.9-0.9,1.3-2.1,1.3-3.5s-0.4-2.6-1.3-3.5c-0.9-0.9-2-1.3-3.3-1.3
		s-2.4,0.4-3.3,1.3c-0.9,0.9-1.3,2.1-1.3,3.5s0.4,2.6,1.3,3.5c0.9,0.9,2,1.3,3.3,1.3S1001.5,613.5,1002.3,612.6z"/>
	<path class="st5" d="M1023.5,602.2c1.2,0.7,2.1,1.6,2.8,2.8c0.7,1.2,1,2.6,1,4.1c0,1.6-0.3,3-1,4.2c-0.7,1.2-1.6,2.1-2.8,2.8
		c-1.2,0.7-2.5,1-4,1c-2.1,0-3.7-0.7-5-2.1v7.5h-3.6v-21.1h3.5v2c0.6-0.7,1.3-1.3,2.2-1.7c0.9-0.4,1.9-0.6,2.9-0.6
		C1021,601.2,1022.3,601.5,1023.5,602.2z M1022.3,612.6c0.9-0.9,1.3-2.1,1.3-3.5s-0.4-2.6-1.3-3.5c-0.9-0.9-2-1.3-3.3-1.3
		c-0.9,0-1.7,0.2-2.3,0.6c-0.7,0.4-1.2,1-1.7,1.7c-0.4,0.7-0.6,1.6-0.6,2.6s0.2,1.8,0.6,2.6c0.4,0.7,1,1.3,1.7,1.7
		c0.7,0.4,1.5,0.6,2.3,0.6C1020.4,614,1021.5,613.5,1022.3,612.6z"/>
	<path class="st5" d="M1030.9,601.4h3.6v6.3h7.8v-6.3h3.6v15.5h-3.6v-6.1h-7.8v6.1h-3.6V601.4z"/>
	<path class="st5" d="M1061.8,602.8c1.2,1.1,1.8,2.7,1.8,4.9v9.1h-3.4V615c-0.4,0.7-1.1,1.2-1.9,1.6c-0.8,0.4-1.8,0.5-3,0.5
		s-2.2-0.2-3-0.6c-0.9-0.4-1.5-0.9-2-1.7c-0.5-0.7-0.7-1.5-0.7-2.4c0-1.4,0.5-2.5,1.6-3.3c1-0.8,2.7-1.3,4.9-1.3h4v-0.2
		c0-1.1-0.3-1.9-1-2.5c-0.6-0.6-1.6-0.9-2.9-0.9c-0.9,0-1.7,0.1-2.6,0.4c-0.8,0.3-1.6,0.6-2.1,1.1l-1.4-2.6c0.8-0.6,1.8-1.1,2.9-1.4
		c1.1-0.3,2.3-0.5,3.6-0.5C1058.9,601.2,1060.6,601.7,1061.8,602.8z M1058.5,613.8c0.7-0.4,1.2-1,1.5-1.8v-1.8h-3.7
		c-2.1,0-3.1,0.7-3.1,2.1c0,0.7,0.3,1.2,0.8,1.6c0.5,0.4,1.2,0.6,2.2,0.6C1057,614.4,1057.8,614.2,1058.5,613.8z"/>
	<path class="st5" d="M1081.2,601.4v15.5h-3.2v-4.7h-4.1l-3.2,4.7h-3.9l3.7-5.2c-1.1-0.4-2-1-2.6-1.8c-0.6-0.8-0.9-1.8-0.9-3
		c0-1.8,0.6-3.2,1.9-4.1s3-1.5,5.2-1.5H1081.2z M1070.7,607.1c0,1.7,1.1,2.6,3.4,2.6h3.9v-5.2h-3.7
		C1071.9,604.4,1070.7,605.3,1070.7,607.1z"/>
	<path class="st5" d="M922.7,636.2v15.5h-3.6v-12.4h-5.8l-0.1,3.1c-0.1,2-0.3,3.8-0.6,5.1c-0.3,1.4-0.8,2.5-1.4,3.3
		c-0.7,0.8-1.6,1.2-2.7,1.2c-0.5,0-1.2-0.1-2-0.3l0.2-3c0.3,0.1,0.5,0.1,0.7,0.1c0.7,0,1.3-0.3,1.7-0.9s0.6-1.3,0.7-2.1
		c0.1-0.8,0.2-2,0.3-3.5l0.3-6H922.7z"/>
	<path class="st5" d="M930.3,650.8c-1.3-0.7-2.2-1.6-2.9-2.8c-0.7-1.2-1.1-2.6-1.1-4.1s0.4-2.9,1.1-4.1c0.7-1.2,1.7-2.1,2.9-2.8
		c1.3-0.7,2.7-1,4.2-1c1.6,0,3,0.3,4.3,1c1.3,0.7,2.2,1.6,2.9,2.8c0.7,1.2,1.1,2.6,1.1,4.1s-0.4,2.9-1.1,4.1
		c-0.7,1.2-1.7,2.2-2.9,2.8c-1.3,0.7-2.7,1-4.3,1C932.9,651.9,931.5,651.5,930.3,650.8z M937.8,647.4c0.9-0.9,1.3-2.1,1.3-3.5
		s-0.4-2.6-1.3-3.5c-0.9-0.9-2-1.3-3.3-1.3s-2.4,0.4-3.3,1.3c-0.9,0.9-1.3,2.1-1.3,3.5s0.4,2.6,1.3,3.5c0.9,0.9,2,1.3,3.3,1.3
		S936.9,648.3,937.8,647.4z"/>
	<path class="st5" d="M958.2,639.2H950v12.4h-3.6v-15.5h11.9V639.2z"/>
	<path class="st5" d="M960.9,636.2h3.6v10.2l8.6-10.2h3.3v15.5h-3.6v-10.2l-8.5,10.2h-3.3V636.2z"/>
	<path class="st5" d="M987.7,645.5h-2.8v6.2h-3.6v-15.5h3.6v6.3h2.9l4.6-6.3h3.9l-5.6,7.5l6,8h-4.3L987.7,645.5z"/>
	<path class="st5" d="M1009.9,637.6c1.2,1.1,1.8,2.7,1.8,4.9v9.1h-3.4v-1.9c-0.4,0.7-1.1,1.2-1.9,1.6c-0.8,0.4-1.8,0.5-3,0.5
		s-2.2-0.2-3-0.6c-0.9-0.4-1.5-0.9-2-1.7c-0.5-0.7-0.7-1.5-0.7-2.4c0-1.4,0.5-2.5,1.6-3.3c1-0.8,2.7-1.3,4.9-1.3h4v-0.2
		c0-1.1-0.3-1.9-1-2.5c-0.6-0.6-1.6-0.9-2.9-0.9c-0.9,0-1.7,0.1-2.6,0.4c-0.8,0.3-1.6,0.6-2.1,1.1l-1.4-2.6c0.8-0.6,1.8-1.1,2.9-1.4
		c1.1-0.3,2.3-0.5,3.6-0.5C1006.9,636,1008.7,636.5,1009.9,637.6z M1006.6,648.6c0.7-0.4,1.2-1,1.5-1.8V645h-3.7
		c-2.1,0-3.1,0.7-3.1,2.1c0,0.7,0.3,1.2,0.8,1.6c0.5,0.4,1.2,0.6,2.2,0.6C1005,649.2,1005.9,649,1006.6,648.6z"/>
</g>
<g>
	<path class="st5" d="M891.4,168.1l-8.8,16.4c-0.8,1.5-1.7,2.5-2.8,3.3c-1.1,0.7-2.2,1.1-3.5,1.1c-1,0-2-0.2-3-0.6l0.9-3
		c0.8,0.3,1.5,0.4,2,0.4c1.2,0,2.2-0.6,3-1.9l0.3-0.5l-8.1-15.1h4l6,11.9l6.2-11.9H891.4z"/>
	<path class="st5" d="M895.2,187.6c-1.3-0.7-2.3-1.6-3-2.8c-0.7-1.2-1.1-2.6-1.1-4.1c0-1.5,0.4-2.9,1.1-4.1c0.7-1.2,1.7-2.1,3-2.8
		c1.3-0.7,2.7-1,4.3-1c1.5,0,2.9,0.3,4,0.9c1.1,0.6,2,1.5,2.6,2.7l-2.8,1.6c-0.4-0.7-1-1.3-1.7-1.6s-1.4-0.5-2.2-0.5
		c-1.4,0-2.5,0.4-3.4,1.3c-0.9,0.9-1.3,2.1-1.3,3.5c0,1.5,0.4,2.6,1.3,3.5c0.9,0.9,2,1.3,3.4,1.3c0.8,0,1.5-0.2,2.2-0.5
		c0.7-0.4,1.2-0.9,1.7-1.6l2.8,1.6c-0.6,1.2-1.5,2.1-2.6,2.7c-1.2,0.6-2.5,0.9-4,0.9C897.9,188.6,896.5,188.3,895.2,187.6z"/>
	<path class="st5" d="M921.4,176H916v12.4h-3.6V176h-5.5v-3.1h14.5V176z"/>
	<path class="st5" d="M936.7,173.8c1.2,0.7,2.1,1.6,2.8,2.8c0.7,1.2,1,2.6,1,4.1c0,1.6-0.3,3-1,4.2c-0.7,1.2-1.6,2.1-2.8,2.8
		c-1.2,0.7-2.5,1-4,1c-2.1,0-3.7-0.7-5-2.1v7.5h-3.6v-21.1h3.5v2c0.6-0.7,1.3-1.3,2.2-1.7c0.9-0.4,1.9-0.6,2.9-0.6
		C934.2,172.8,935.5,173.1,936.7,173.8z M935.5,184.2c0.9-0.9,1.3-2.1,1.3-3.5c0-1.4-0.4-2.6-1.3-3.5c-0.9-0.9-2-1.3-3.3-1.3
		c-0.9,0-1.7,0.2-2.3,0.6c-0.7,0.4-1.2,1-1.7,1.7c-0.4,0.7-0.6,1.6-0.6,2.6c0,1,0.2,1.8,0.6,2.6c0.4,0.7,1,1.3,1.7,1.7
		c0.7,0.4,1.5,0.6,2.3,0.6C933.6,185.5,934.7,185.1,935.5,184.2z"/>
	<path class="st5" d="M946.8,187.6c-1.3-0.7-2.2-1.6-2.9-2.8c-0.7-1.2-1.1-2.6-1.1-4.1c0-1.5,0.4-2.9,1.1-4.1
		c0.7-1.2,1.7-2.1,2.9-2.8c1.3-0.7,2.7-1,4.2-1c1.6,0,3,0.3,4.3,1c1.3,0.7,2.2,1.6,2.9,2.8c0.7,1.2,1.1,2.6,1.1,4.1
		c0,1.5-0.4,2.9-1.1,4.1c-0.7,1.2-1.7,2.2-2.9,2.8c-1.3,0.7-2.7,1-4.3,1C949.5,188.6,948,188.3,946.8,187.6z M954.3,184.2
		c0.9-0.9,1.3-2.1,1.3-3.5c0-1.4-0.4-2.6-1.3-3.5c-0.9-0.9-2-1.3-3.3-1.3s-2.4,0.4-3.3,1.3c-0.9,0.9-1.3,2.1-1.3,3.5
		c0,1.5,0.4,2.6,1.3,3.5s2,1.3,3.3,1.3S953.5,185.1,954.3,184.2z"/>
	<path class="st5" d="M962.9,172.9h3.6v10.2l8.6-10.2h3.3v15.5h-3.6v-10.2l-8.5,10.2h-3.3V172.9z M966.8,170
		c-0.8-0.7-1.2-1.8-1.3-3.2h2.4c0,0.7,0.2,1.2,0.7,1.7c0.4,0.4,1,0.6,1.8,0.6c0.7,0,1.3-0.2,1.8-0.6c0.4-0.4,0.7-1,0.7-1.7h2.5
		c0,1.4-0.4,2.5-1.3,3.2s-2,1.1-3.6,1.1C968.8,171.1,967.6,170.8,966.8,170z"/>
	<path class="st5" d="M985.9,187.6c-1.3-0.7-2.3-1.6-3-2.8c-0.7-1.2-1.1-2.6-1.1-4.1c0-1.5,0.4-2.9,1.1-4.1c0.7-1.2,1.7-2.1,3-2.8
		c1.3-0.7,2.7-1,4.3-1c1.5,0,2.9,0.3,4,0.9c1.2,0.6,2,1.5,2.6,2.7l-2.8,1.6c-0.4-0.7-1-1.3-1.7-1.6s-1.4-0.5-2.2-0.5
		c-1.4,0-2.5,0.4-3.4,1.3c-0.9,0.9-1.3,2.1-1.3,3.5c0,1.5,0.4,2.6,1.3,3.5c0.9,0.9,2,1.3,3.4,1.3c0.8,0,1.5-0.2,2.2-0.5
		c0.7-0.4,1.2-0.9,1.7-1.6l2.8,1.6c-0.6,1.2-1.5,2.1-2.6,2.7c-1.2,0.6-2.5,0.9-4,0.9C988.7,188.6,987.2,188.3,985.9,187.6z"/>
	<path class="st5" d="M1012.2,176h-5.4v12.4h-3.6V176h-5.5v-3.1h14.5V176z"/>
	<path class="st5" d="M1028.9,184.1c0,1.4-0.5,2.5-1.6,3.2s-2.6,1.1-4.6,1.1h-7.9v-15.5h7.6c1.9,0,3.4,0.3,4.4,1
		c1.1,0.7,1.6,1.7,1.6,3c0,0.8-0.2,1.5-0.6,2.1c-0.4,0.6-1,1-1.8,1.4C1028,181,1028.9,182.2,1028.9,184.1z M1018.3,179.4h3.8
		c1.9,0,2.8-0.6,2.8-1.9c0-1.3-0.9-1.9-2.8-1.9h-3.8V179.4z M1025.4,183.9c0-0.7-0.2-1.2-0.7-1.5c-0.5-0.3-1.2-0.5-2.2-0.5h-4.3v4
		h4.1C1024.4,185.8,1025.4,185.1,1025.4,183.9z"/>
	<path class="st5" d="M1035.4,187.6c-1.3-0.7-2.2-1.6-2.9-2.8c-0.7-1.2-1.1-2.6-1.1-4.1c0-1.5,0.4-2.9,1.1-4.1
		c0.7-1.2,1.7-2.1,2.9-2.8c1.3-0.7,2.7-1,4.2-1c1.6,0,3,0.3,4.3,1c1.3,0.7,2.2,1.6,2.9,2.8c0.7,1.2,1.1,2.6,1.1,4.1
		c0,1.5-0.4,2.9-1.1,4.1c-0.7,1.2-1.7,2.2-2.9,2.8c-1.3,0.7-2.7,1-4.3,1C1038.1,188.6,1036.7,188.3,1035.4,187.6z M1043,184.2
		c0.9-0.9,1.3-2.1,1.3-3.5c0-1.4-0.4-2.6-1.3-3.5c-0.9-0.9-2-1.3-3.3-1.3s-2.4,0.4-3.3,1.3c-0.9,0.9-1.3,2.1-1.3,3.5
		c0,1.5,0.4,2.6,1.3,3.5c0.9,0.9,2,1.3,3.3,1.3S1042.1,185.1,1043,184.2z"/>
	<path class="st5" d="M885.4,202.9l-8.8,16.4c-0.8,1.5-1.7,2.5-2.8,3.3c-1.1,0.7-2.2,1.1-3.5,1.1c-1,0-2-0.2-3-0.6l0.9-3
		c0.8,0.3,1.5,0.4,2,0.4c1.2,0,2.2-0.6,3-1.9l0.3-0.5l-8.1-15.1h4l6,11.9l6.2-11.9H885.4z"/>
	<path class="st5" d="M901.9,207.7v15.5h-3.6v-12.4h-7.6v12.4H887v-15.5H901.9z"/>
	<path class="st5" d="M919.4,208.6c1.2,0.7,2.1,1.6,2.8,2.8c0.7,1.2,1,2.6,1,4.1c0,1.6-0.3,3-1,4.2c-0.7,1.2-1.6,2.1-2.8,2.8
		c-1.2,0.7-2.5,1-4,1c-2.1,0-3.7-0.7-5-2.1v7.5h-3.6v-21.1h3.5v2c0.6-0.7,1.3-1.3,2.2-1.7c0.9-0.4,1.9-0.6,2.9-0.6
		C916.9,207.6,918.2,207.9,919.4,208.6z M918.3,219c0.9-0.9,1.3-2.1,1.3-3.5c0-1.4-0.4-2.6-1.3-3.5c-0.9-0.9-2-1.3-3.3-1.3
		c-0.9,0-1.7,0.2-2.3,0.6c-0.7,0.4-1.2,1-1.7,1.7c-0.4,0.7-0.6,1.6-0.6,2.6c0,1,0.2,1.8,0.6,2.6c0.4,0.7,1,1.3,1.7,1.7
		c0.7,0.4,1.5,0.6,2.3,0.6C916.3,220.3,917.4,219.9,918.3,219z"/>
	<path class="st5" d="M937.6,209.2c1.2,1.1,1.8,2.7,1.8,4.9v9.1H936v-1.9c-0.4,0.7-1.1,1.2-1.9,1.6c-0.8,0.4-1.8,0.5-3,0.5
		s-2.2-0.2-3-0.6s-1.5-0.9-2-1.7c-0.5-0.7-0.7-1.5-0.7-2.4c0-1.4,0.5-2.5,1.6-3.3c1-0.8,2.7-1.3,4.9-1.3h4V214c0-1.1-0.3-1.9-1-2.5
		c-0.6-0.6-1.6-0.9-2.9-0.9c-0.9,0-1.7,0.1-2.6,0.4c-0.8,0.3-1.6,0.6-2.1,1.1l-1.4-2.6c0.8-0.6,1.8-1.1,2.9-1.4
		c1.1-0.3,2.3-0.5,3.6-0.5C934.7,207.6,936.4,208.1,937.6,209.2z M934.3,220.2c0.7-0.4,1.2-1,1.5-1.8v-1.8h-3.7
		c-2.1,0-3.1,0.7-3.1,2.1c0,0.7,0.3,1.2,0.8,1.6c0.5,0.4,1.2,0.6,2.2,0.6C932.8,220.8,933.6,220.6,934.3,220.2z"/>
	<path class="st5" d="M958,218.9c0,1.4-0.5,2.5-1.6,3.2s-2.6,1.1-4.6,1.1h-7.9v-15.5h7.6c1.9,0,3.4,0.3,4.4,1c1.1,0.7,1.6,1.7,1.6,3
		c0,0.8-0.2,1.5-0.6,2.1c-0.4,0.6-1,1-1.8,1.4C957.1,215.8,958,217,958,218.9z M947.4,214.2h3.8c1.9,0,2.8-0.6,2.8-1.9
		c0-1.3-0.9-1.9-2.8-1.9h-3.8V214.2z M954.5,218.7c0-0.7-0.2-1.2-0.7-1.5c-0.5-0.3-1.2-0.5-2.2-0.5h-4.3v4h4.1
		C953.5,220.6,954.5,219.9,954.5,218.7z"/>
	<path class="st5" d="M975.9,207.7v15.5h-3.6v-12.4h-5.8l-0.1,3.1c-0.1,2-0.3,3.8-0.6,5.1c-0.3,1.4-0.8,2.5-1.4,3.3
		c-0.7,0.8-1.6,1.2-2.7,1.2c-0.5,0-1.2-0.1-2-0.3l0.2-3c0.3,0.1,0.5,0.1,0.7,0.1c0.7,0,1.3-0.3,1.7-0.9c0.4-0.6,0.6-1.3,0.7-2.1
		s0.2-2,0.3-3.5l0.3-6H975.9z"/>
	<path class="st5" d="M995.2,216.6h-12.2c0.2,1.1,0.8,2,1.7,2.7s2,1,3.3,1c1.7,0,3.1-0.6,4.2-1.7l1.9,2.2c-0.7,0.8-1.6,1.5-2.6,1.9
		c-1.1,0.4-2.3,0.6-3.6,0.6c-1.7,0-3.2-0.3-4.5-1c-1.3-0.7-2.3-1.6-3-2.8c-0.7-1.2-1.1-2.6-1.1-4.1c0-1.5,0.3-2.9,1-4.1
		c0.7-1.2,1.6-2.2,2.9-2.8c1.2-0.7,2.6-1,4.1-1c1.5,0,2.9,0.3,4,1c1.2,0.7,2.1,1.6,2.8,2.8c0.7,1.2,1,2.6,1,4.2
		C995.3,215.8,995.3,216.2,995.2,216.6z M984.5,211.5c-0.8,0.7-1.3,1.6-1.5,2.7h8.8c-0.2-1.1-0.6-2-1.4-2.7c-0.8-0.7-1.8-1-3-1
		C986.3,210.5,985.3,210.8,984.5,211.5z"/>
	<path class="st5" d="M999.3,207.7h3.6v6.3h7.8v-6.3h3.6v15.5h-3.6v-6.1h-7.8v6.1h-3.6V207.7z"/>
	<path class="st5" d="M1019.2,207.7h3.6V218l8.6-10.2h3.3v15.5h-3.6V213l-8.5,10.2h-3.3V207.7z"/>
	<path class="st5" d="M1052.6,207.7v15.5h-3.2v-4.7h-4.1l-3.2,4.7h-3.9l3.7-5.2c-1.1-0.4-2-1-2.6-1.8c-0.6-0.8-0.9-1.8-0.9-3
		c0-1.8,0.6-3.2,1.9-4.1c1.3-1,3-1.4,5.2-1.4H1052.6z M1042.1,213.4c0,1.7,1.1,2.6,3.4,2.6h3.9v-5.2h-3.7
		C1043.3,210.8,1042.1,211.7,1042.1,213.4z"/>
</g>
<g>
	<path class="st5" d="M861.3,55.5v9h-4.1v-5.2H837V35.4h4.4v20.1h12V35.4h4.4v20.1H861.3z"/>
	<path class="st5" d="M881.4,51.5h-14.2c0.2,1.3,0.9,2.4,2,3.2c1.1,0.8,2.4,1.2,3.9,1.2c2,0,3.6-0.7,4.9-2l2.3,2.6
		c-0.8,1-1.8,1.7-3.1,2.2c-1.2,0.5-2.7,0.7-4.2,0.7c-2,0-3.8-0.4-5.3-1.2c-1.5-0.8-2.7-1.9-3.5-3.3c-0.8-1.4-1.2-3-1.2-4.8
		c0-1.8,0.4-3.4,1.2-4.8c0.8-1.4,1.9-2.5,3.3-3.3c1.4-0.8,3-1.2,4.8-1.2c1.8,0,3.3,0.4,4.7,1.2s2.5,1.9,3.3,3.3
		c0.8,1.4,1.2,3.1,1.2,4.9C881.5,50.5,881.5,51,881.4,51.5z M868.9,45.5c-0.9,0.8-1.5,1.9-1.7,3.2h10.3c-0.2-1.3-0.7-2.4-1.7-3.2
		c-0.9-0.8-2.1-1.2-3.5-1.2C870.9,44.3,869.8,44.7,868.9,45.5z"/>
	<path class="st5" d="M886.1,41.1h4.2v7.4h9.1v-7.4h4.2v18.2h-4.2V52h-9.1v7.2h-4.2V41.1z"/>
	<path class="st5" d="M923.9,44.7h-6.4v14.6h-4.2V44.7h-6.4v-3.6h17V44.7z"/>
	<path class="st5" d="M941.8,42c1.4,0.8,2.5,1.9,3.3,3.3c0.8,1.4,1.2,3,1.2,4.9s-0.4,3.5-1.2,4.9c-0.8,1.4-1.9,2.5-3.3,3.3
		c-1.4,0.8-3,1.2-4.7,1.2c-2.4,0-4.4-0.8-5.8-2.4v8.8H927V41.1h4v2.4c0.7-0.9,1.6-1.5,2.6-1.9c1-0.4,2.2-0.6,3.4-0.6
		C938.8,40.9,940.4,41.2,941.8,42z M940.4,54.2c1-1,1.5-2.4,1.5-4.1c0-1.7-0.5-3.1-1.5-4.1c-1-1-2.3-1.6-3.9-1.6
		c-1,0-1.9,0.2-2.8,0.7c-0.8,0.5-1.5,1.1-1.9,2s-0.7,1.9-0.7,3c0,1.1,0.2,2.1,0.7,3c0.5,0.9,1.1,1.5,1.9,2c0.8,0.5,1.7,0.7,2.8,0.7
		C938.1,55.8,939.4,55.3,940.4,54.2z"/>
	<path class="st5" d="M963.1,42.8c1.4,1.3,2.1,3.2,2.1,5.8v10.6h-4V57c-0.5,0.8-1.3,1.4-2.2,1.8c-1,0.4-2.1,0.6-3.5,0.6
		c-1.4,0-2.6-0.2-3.6-0.7s-1.8-1.1-2.4-1.9c-0.6-0.8-0.8-1.8-0.8-2.8c0-1.6,0.6-2.9,1.8-3.9c1.2-1,3.1-1.5,5.7-1.5h4.7v-0.3
		c0-1.3-0.4-2.2-1.1-2.9c-0.8-0.7-1.9-1-3.4-1c-1,0-2,0.2-3,0.5c-1,0.3-1.8,0.8-2.5,1.3l-1.7-3.1c1-0.7,2.1-1.3,3.4-1.7
		c1.3-0.4,2.8-0.6,4.3-0.6C959.7,40.9,961.7,41.5,963.1,42.8z M959.3,55.6c0.8-0.5,1.4-1.2,1.8-2.1v-2.1h-4.4
		c-2.4,0-3.7,0.8-3.7,2.4c0,0.8,0.3,1.4,0.9,1.8c0.6,0.5,1.5,0.7,2.5,0.7C957.5,56.4,958.4,56.1,959.3,55.6z"/>
	<path class="st5" d="M987,41.1v18.2h-4.2V44.7h-6.8l-0.2,3.6c-0.1,2.4-0.3,4.4-0.7,6c-0.3,1.6-0.9,2.9-1.7,3.8
		c-0.8,0.9-1.9,1.4-3.2,1.4c-0.6,0-1.4-0.1-2.3-0.4l0.2-3.6c0.3,0.1,0.6,0.1,0.8,0.1c0.9,0,1.5-0.3,1.9-1c0.4-0.7,0.7-1.5,0.8-2.5
		c0.1-1,0.2-2.3,0.3-4.1l0.3-7H987z"/>
	<path class="st5" d="M1007.1,48.6c1.2,1,1.9,2.5,1.9,4.4c0,2-0.7,3.5-2,4.6c-1.4,1.1-3.3,1.6-5.7,1.6l-8.5,0V41.1h4.2V47l4.9,0
		C1004.1,47,1005.9,47.6,1007.1,48.6z M1003.7,55.3c0.7-0.5,1-1.3,1-2.4c0-1-0.3-1.8-1-2.2c-0.6-0.5-1.6-0.7-2.9-0.7l-3.9,0v6.2
		l3.9,0C1002.1,56.1,1003,55.9,1003.7,55.3z"/>
	<path class="st5" d="M1012.7,41.1h4.2v7.4h9.1v-7.4h4.2v18.2h-4.2V52h-9.1v7.2h-4.2V41.1z"/>
	<path class="st5" d="M1050.2,48.6c1.2,1,1.8,2.5,1.8,4.4c0,2-0.7,3.5-2,4.6c-1.3,1.1-3.3,1.6-5.7,1.6l-8.2,0V41.1h4.2V47l4.6,0
		C1047.2,47,1049,47.6,1050.2,48.6z M1046.8,55.3c0.7-0.5,1-1.3,1-2.4c0-1-0.3-1.8-1-2.2s-1.6-0.7-2.9-0.7l-3.6,0v6.2l3.6,0
		C1045.2,56.1,1046.1,55.9,1046.8,55.3z M1054.4,41.1h4.2v18.2h-4.2V41.1z"/>
	<path class="st5" d="M1064.4,41.1h4.2v12l10-12h3.9v18.2h-4.2v-12l-10,12h-3.9V41.1z M1069,37.6c-1-0.8-1.5-2.1-1.5-3.7h2.8
		c0,0.8,0.3,1.5,0.8,1.9c0.5,0.5,1.2,0.7,2.1,0.7c0.9,0,1.5-0.2,2.1-0.7c0.5-0.5,0.8-1.1,0.8-1.9h2.9c0,1.6-0.5,2.9-1.5,3.7
		c-1,0.9-2.4,1.3-4.2,1.3S1069.9,38.5,1069,37.6z"/>
	<path class="st5" d="M882.4,76.2V100h-4.4V80h-12.3V100h-4.4V76.2H882.4z"/>
	<path class="st5" d="M903.4,82.8c1.4,0.8,2.5,1.9,3.3,3.3c0.8,1.4,1.2,3,1.2,4.9s-0.4,3.5-1.2,4.9c-0.8,1.4-1.9,2.5-3.3,3.3
		c-1.4,0.8-3,1.2-4.7,1.2c-2.4,0-4.4-0.8-5.8-2.4v8.8h-4.2V81.9h4v2.4c0.7-0.9,1.6-1.5,2.6-1.9c1-0.4,2.2-0.6,3.4-0.6
		C900.5,81.7,902,82,903.4,82.8z M902.1,95c1-1,1.5-2.4,1.5-4.1c0-1.7-0.5-3.1-1.5-4.1c-1-1-2.3-1.6-3.9-1.6c-1,0-1.9,0.2-2.8,0.7
		c-0.8,0.5-1.5,1.1-1.9,2s-0.7,1.9-0.7,3c0,1.1,0.2,2.1,0.7,3c0.5,0.9,1.1,1.5,1.9,2c0.8,0.5,1.7,0.7,2.8,0.7
		C899.8,96.6,901.1,96.1,902.1,95z"/>
	<path class="st5" d="M915.2,99.1c-1.5-0.8-2.6-1.9-3.5-3.3c-0.8-1.4-1.2-3-1.2-4.8c0-1.8,0.4-3.4,1.2-4.8c0.8-1.4,2-2.5,3.5-3.3
		c1.5-0.8,3.1-1.2,5-1.2c1.9,0,3.5,0.4,5,1.2c1.5,0.8,2.6,1.9,3.5,3.3c0.8,1.4,1.2,3,1.2,4.8c0,1.8-0.4,3.4-1.2,4.8
		c-0.8,1.4-2,2.5-3.5,3.3c-1.5,0.8-3.1,1.2-5,1.2C918.4,100.3,916.7,99.9,915.2,99.1z M924.1,95c1-1,1.5-2.4,1.5-4.1
		c0-1.7-0.5-3.1-1.5-4.1c-1-1-2.3-1.6-3.9-1.6c-1.6,0-2.9,0.5-3.9,1.6c-1,1-1.5,2.4-1.5,4.1c0,1.7,0.5,3.1,1.5,4.1
		c1,1,2.3,1.6,3.9,1.6C921.8,96.6,923.1,96.1,924.1,95z"/>
	<path class="st5" d="M954,96.4v7.8h-4V100h-15.9V81.9h4.2v14.6h8.7V81.9h4.2v14.6H954z"/>
	<path class="st5" d="M974.7,92.3h-14.2c0.2,1.3,0.9,2.4,2,3.2c1.1,0.8,2.4,1.2,3.9,1.2c2,0,3.6-0.7,4.9-2l2.3,2.6
		c-0.8,1-1.8,1.7-3.1,2.2c-1.2,0.5-2.7,0.7-4.2,0.7c-2,0-3.8-0.4-5.3-1.2c-1.5-0.8-2.7-1.9-3.5-3.3c-0.8-1.4-1.2-3-1.2-4.8
		c0-1.8,0.4-3.4,1.2-4.8c0.8-1.4,1.9-2.5,3.3-3.3c1.4-0.8,3-1.2,4.8-1.2c1.8,0,3.3,0.4,4.7,1.2c1.4,0.8,2.5,1.9,3.3,3.3
		c0.8,1.4,1.2,3.1,1.2,4.9C974.8,91.3,974.8,91.8,974.7,92.3z M962.2,86.3c-0.9,0.8-1.5,1.9-1.7,3.2h10.3c-0.2-1.3-0.7-2.4-1.7-3.2
		s-2.1-1.2-3.5-1.2C964.2,85.1,963.1,85.5,962.2,86.3z"/>
	<path class="st5" d="M982.6,99.1c-1.5-0.8-2.7-1.9-3.5-3.3c-0.8-1.4-1.3-3-1.3-4.8c0-1.8,0.4-3.4,1.3-4.8c0.8-1.4,2-2.5,3.5-3.3
		c1.5-0.8,3.2-1.2,5.1-1.2c1.8,0,3.4,0.4,4.7,1.1c1.3,0.7,2.4,1.8,3,3.1l-3.3,1.9c-0.5-0.8-1.2-1.5-2-1.9c-0.8-0.4-1.6-0.6-2.6-0.6
		c-1.6,0-2.9,0.5-3.9,1.5c-1,1-1.6,2.4-1.6,4.1c0,1.7,0.5,3.1,1.5,4.1s2.4,1.5,4,1.5c0.9,0,1.8-0.2,2.6-0.6c0.8-0.4,1.4-1,2-1.9
		l3.3,1.9c-0.7,1.4-1.7,2.4-3.1,3.1c-1.3,0.7-2.9,1.1-4.7,1.1C985.8,100.3,984.1,99.9,982.6,99.1z"/>
	<path class="st5" d="M1002.1,99.1c-1.5-0.8-2.7-1.9-3.5-3.3c-0.8-1.4-1.3-3-1.3-4.8c0-1.8,0.4-3.4,1.3-4.8c0.8-1.4,2-2.5,3.5-3.3
		c1.5-0.8,3.2-1.2,5.1-1.2c1.8,0,3.4,0.4,4.7,1.1c1.3,0.7,2.4,1.8,3,3.1l-3.3,1.9c-0.5-0.8-1.2-1.5-2-1.9c-0.8-0.4-1.6-0.6-2.6-0.6
		c-1.6,0-2.9,0.5-3.9,1.5c-1,1-1.6,2.4-1.6,4.1c0,1.7,0.5,3.1,1.5,4.1s2.4,1.5,4,1.5c0.9,0,1.8-0.2,2.6-0.6c0.8-0.4,1.4-1,2-1.9
		l3.3,1.9c-0.7,1.4-1.7,2.4-3.1,3.1c-1.3,0.7-2.9,1.1-4.7,1.1C1005.3,100.3,1003.6,99.9,1002.1,99.1z"/>
	<path class="st5" d="M1021.5,99.1c-1.5-0.8-2.6-1.9-3.5-3.3c-0.8-1.4-1.2-3-1.2-4.8c0-1.8,0.4-3.4,1.2-4.8c0.8-1.4,2-2.5,3.5-3.3
		c1.5-0.8,3.1-1.2,5-1.2c1.9,0,3.5,0.4,5,1.2c1.5,0.8,2.6,1.9,3.5,3.3c0.8,1.4,1.2,3,1.2,4.8c0,1.8-0.4,3.4-1.2,4.8
		c-0.8,1.4-2,2.5-3.5,3.3c-1.5,0.8-3.1,1.2-5,1.2C1024.7,100.3,1023,99.9,1021.5,99.1z M1030.4,95c1-1,1.5-2.4,1.5-4.1
		c0-1.7-0.5-3.1-1.5-4.1c-1-1-2.3-1.6-3.9-1.6c-1.6,0-2.9,0.5-3.9,1.6c-1,1-1.5,2.4-1.5,4.1c0,1.7,0.5,3.1,1.5,4.1s2.3,1.6,3.9,1.6
		C1028.1,96.6,1029.4,96.1,1030.4,95z"/>
	<path class="st5" d="M1055.2,82.8c1.4,0.8,2.5,1.9,3.3,3.3c0.8,1.4,1.2,3,1.2,4.9s-0.4,3.5-1.2,4.9c-0.8,1.4-1.9,2.5-3.3,3.3
		c-1.4,0.8-3,1.2-4.7,1.2c-2.4,0-4.4-0.8-5.8-2.4v8.8h-4.2V81.9h4v2.4c0.7-0.9,1.6-1.5,2.6-1.9s2.2-0.6,3.4-0.6
		C1052.2,81.7,1053.8,82,1055.2,82.8z M1053.8,95c1-1,1.5-2.4,1.5-4.1c0-1.7-0.5-3.1-1.5-4.1c-1-1-2.3-1.6-3.9-1.6
		c-1,0-1.9,0.2-2.8,0.7c-0.8,0.5-1.5,1.1-1.9,2s-0.7,1.9-0.7,3c0,1.1,0.2,2.1,0.7,3c0.5,0.9,1.1,1.5,1.9,2c0.8,0.5,1.7,0.7,2.8,0.7
		C1051.5,96.6,1052.8,96.1,1053.8,95z"/>
</g>
<g>
	<path class="st5" d="M182.3,651c1.7,2.1,2.6,4.8,2.6,7.9c0,4.5-1.7,8-5,10.4c-3.3,2.5-8.1,3.7-14.4,3.7h-24.2V622h22.8
		c5.7,0,10.2,1.1,13.4,3.4c3.2,2.3,4.8,5.5,4.8,9.7c0,2.7-0.6,5-1.9,6.9c-1.3,1.9-3.2,3.4-5.6,4.5
		C178.2,647.4,180.6,648.9,182.3,651z M150.7,643.8h12.7c3.1,0,5.4-0.6,7-1.8c1.6-1.2,2.4-3,2.4-5.4c0-2.4-0.8-4.2-2.4-5.4
		c-1.6-1.2-3.9-1.9-7-1.9h-12.7V643.8z M175.3,658.2c0-5-3.4-7.4-10.1-7.4h-14.6v15h14.6C172,665.8,175.3,663.3,175.3,658.2z"/>
	<path class="st5" d="M219.1,673.1l-10-13.5L199,673.1h-10.1l15.2-19.8l-14.5-19.2h10.1l9.6,12.8l9.6-12.8h9.9l-14.6,19.1l15.3,19.9
		H219.1z"/>
	<path class="st5" d="M241.3,671c-3.2-1.7-5.6-4.1-7.4-7.1c-1.8-3-2.7-6.5-2.7-10.3c0-3.8,0.9-7.3,2.7-10.3c1.8-3,4.2-5.4,7.4-7.1
		c3.2-1.7,6.7-2.6,10.7-2.6c4,0,7.6,0.9,10.7,2.6c3.2,1.7,5.6,4.1,7.4,7.1c1.8,3,2.7,6.4,2.7,10.3c0,3.8-0.9,7.3-2.7,10.3
		c-1.8,3-4.2,5.4-7.4,7.1c-3.2,1.7-6.7,2.6-10.7,2.6C248,673.6,244.4,672.7,241.3,671z M260.2,662.4c2.2-2.2,3.3-5.2,3.3-8.8
		c0-3.6-1.1-6.6-3.3-8.8c-2.2-2.2-5-3.4-8.3-3.4s-6.1,1.1-8.3,3.4c-2.2,2.2-3.2,5.2-3.2,8.8c0,3.7,1.1,6.6,3.2,8.8
		c2.2,2.2,4.9,3.4,8.3,3.4S258,664.7,260.2,662.4z"/>
	<path class="st5" d="M322.9,665.3v16.4h-8.5v-8.7h-30.1v8.7h-8.5v-16.4h1.8c2.5-0.1,4.2-1.7,5.1-4.8c0.9-3.1,1.5-7.5,1.8-13.1
		l0.5-13.4h32.1v31.2H322.9z M291.7,659.1c-0.5,2.8-1.5,4.9-2.9,6.3H308v-23.5h-15l-0.2,6.3C292.6,652.6,292.2,656.2,291.7,659.1z"
		/>
</g>
<g>
	<path class="st5" d="M1561,651.5c1.7,2.1,2.6,4.8,2.6,7.9c0,4.5-1.7,8-5,10.4c-3.3,2.5-8.1,3.7-14.4,3.7h-24.2v-51.1h22.8
		c5.7,0,10.2,1.1,13.4,3.4c3.2,2.3,4.8,5.5,4.8,9.7c0,2.7-0.6,5-1.9,6.9c-1.3,1.9-3.2,3.4-5.6,4.5
		C1556.8,647.9,1559.3,649.4,1561,651.5z M1529.3,644.3h12.7c3.1,0,5.4-0.6,7-1.8c1.6-1.2,2.4-3,2.4-5.4c0-2.4-0.8-4.2-2.4-5.4
		s-3.9-1.9-7-1.9h-12.7V644.3z M1554,658.7c0-5-3.4-7.4-10.1-7.4h-14.6v15h14.6C1550.6,666.3,1554,663.8,1554,658.7z"/>
	<path class="st5" d="M1603.7,650.8c2.6,2.2,3.9,5.4,3.9,9.5c0,4.3-1.4,7.6-4.3,9.9c-2.9,2.3-7,3.5-12.3,3.4l-17.7-0.1v-39h9.1v12.8
		l9.9,0.1C1597.3,647.4,1601.1,648.6,1603.7,650.8z M1596.3,665.3c1.4-1.2,2.1-2.9,2.1-5.1c0-2.2-0.7-3.8-2-4.8
		c-1.4-1-3.4-1.6-6.2-1.6l-7.7-0.1v13.2l7.7,0.1C1592.8,667,1594.9,666.4,1596.3,665.3z M1612.7,634.6h9.1v39h-9.1V634.6z"/>
	<path class="st5" d="M1658.4,673.6l-10-13.5l-10.1,13.5h-10.1l15.2-19.8l-14.5-19.2h10.1l9.6,12.8l9.6-12.8h9.9l-14.6,19.1
		l15.3,19.9H1658.4z"/>
	<path class="st5" d="M1680.6,671.5c-3.2-1.7-5.6-4.1-7.4-7.1c-1.8-3-2.7-6.5-2.7-10.3c0-3.8,0.9-7.3,2.7-10.3
		c1.8-3,4.2-5.4,7.4-7.1c3.2-1.7,6.7-2.6,10.7-2.6c4,0,7.6,0.9,10.7,2.6c3.2,1.7,5.6,4.1,7.4,7.1c1.8,3,2.7,6.4,2.7,10.3
		c0,3.8-0.9,7.3-2.7,10.3c-1.8,3-4.2,5.4-7.4,7.1c-3.2,1.7-6.7,2.6-10.7,2.6C1687.3,674.1,1683.8,673.2,1680.6,671.5z M1699.6,662.9
		c2.2-2.2,3.3-5.2,3.3-8.8c0-3.6-1.1-6.6-3.3-8.8c-2.2-2.2-5-3.4-8.3-3.4c-3.4,0-6.1,1.1-8.3,3.4c-2.2,2.2-3.2,5.2-3.2,8.8
		c0,3.7,1.1,6.6,3.2,8.8c2.2,2.2,4.9,3.4,8.3,3.4C1694.6,666.3,1697.4,665.2,1699.6,662.9z"/>
	<path class="st5" d="M1762.2,665.8v16.4h-8.5v-8.7h-30.1v8.7h-8.5v-16.4h1.8c2.5-0.1,4.2-1.7,5.1-4.8c0.9-3.1,1.5-7.5,1.8-13.1
		l0.5-13.4h32.1v31.2H1762.2z M1731.1,659.6c-0.5,2.8-1.5,4.9-2.9,6.3h19.2v-23.5h-15l-0.2,6.3
		C1732,653.1,1731.6,656.7,1731.1,659.6z"/>
</g>
<g>
	<g>
		<g>
			<path class="st3" d="M1097,152.6h308.1h154.1h77h8.2h0.5h0.3c0.1,0,0.2,0,0.2,0v1v2v4v19v38.5v337.1l-8.2-3.5l1.7,4l8.1,19.2
				l8.1-19.2l1.7-4l-8.2,3.5V217.3v-38.5v-19.5v-5.6v-2.8v-1.4c0-0.1-0.2,0-0.3-0.1h-0.3h-0.7h-11h-77h-154.1H1097V152.6z"/>
		</g>
	</g>
</g>
<g>
	<g>
		<g>
			<polygon class="st3" points="1264,149.4 1110.7,149.4 1114.1,141.2 1091,151 1114.1,160.8 1110.7,152.6 1264,152.6 			"/>
		</g>
	</g>
</g>
<g>
	<path class="st5" d="M846.2,955c-1.9-1.1-3.5-2.5-4.6-4.4c-1.1-1.9-1.7-4-1.7-6.3c0-2.3,0.6-4.4,1.7-6.3c1.1-1.9,2.6-3.3,4.6-4.4
		c1.9-1.1,4.1-1.6,6.6-1.6c2.4,0,4.6,0.5,6.6,1.6c1.9,1.1,3.5,2.5,4.6,4.4c1.1,1.9,1.7,4,1.7,6.3c0,2.3-0.6,4.4-1.7,6.3
		c-1.1,1.9-2.6,3.3-4.6,4.4c-1.9,1.1-4.1,1.6-6.6,1.6C850.3,956.6,848.1,956,846.2,955z M857,951.6c1.3-0.7,2.3-1.7,3-3
		c0.7-1.3,1.1-2.7,1.1-4.3c0-1.6-0.4-3-1.1-4.3c-0.7-1.3-1.7-2.3-3-3c-1.3-0.7-2.7-1.1-4.3-1.1c-1.6,0-3,0.4-4.3,1.1
		c-1.3,0.7-2.3,1.7-3,3c-0.7,1.3-1.1,2.7-1.1,4.3c0,1.6,0.4,3,1.1,4.3s1.7,2.3,3,3c1.3,0.7,2.7,1.1,4.3,1.1
		C854.3,952.7,855.8,952.3,857,951.6z"/>
	<path class="st5" d="M887.4,938.1v18.2h-4.2v-14.6h-8.9v14.6H870v-18.2H887.4z"/>
	<path class="st5" d="M910.1,948.5h-14.2c0.2,1.3,0.9,2.4,2,3.2c1.1,0.8,2.4,1.2,3.9,1.2c2,0,3.6-0.7,4.9-2l2.3,2.6
		c-0.8,1-1.8,1.7-3.1,2.2c-1.2,0.5-2.7,0.7-4.2,0.7c-2,0-3.8-0.4-5.3-1.2c-1.5-0.8-2.7-1.9-3.5-3.3c-0.8-1.4-1.2-3-1.2-4.8
		c0-1.8,0.4-3.4,1.2-4.8c0.8-1.4,1.9-2.5,3.3-3.3c1.4-0.8,3-1.2,4.8-1.2c1.8,0,3.3,0.4,4.7,1.2c1.4,0.8,2.5,1.9,3.3,3.3
		c0.8,1.4,1.2,3.1,1.2,4.9C910.1,947.5,910.1,948,910.1,948.5z M897.5,942.5c-0.9,0.8-1.5,1.9-1.7,3.2h10.3
		c-0.2-1.3-0.7-2.4-1.7-3.2c-0.9-0.8-2.1-1.2-3.5-1.2C899.6,941.3,898.5,941.7,897.5,942.5z"/>
	<path class="st5" d="M929.6,939c1.4,0.8,2.5,1.9,3.3,3.3c0.8,1.4,1.2,3,1.2,4.9s-0.4,3.5-1.2,4.9c-0.8,1.4-1.9,2.5-3.3,3.3
		s-3,1.2-4.7,1.2c-2.4,0-4.4-0.8-5.8-2.4v8.8h-4.2v-24.8h4v2.4c0.7-0.9,1.6-1.5,2.6-1.9c1-0.4,2.2-0.6,3.4-0.6
		C926.6,937.9,928.2,938.2,929.6,939z M928.3,951.2c1-1,1.5-2.4,1.5-4.1s-0.5-3.1-1.5-4.1c-1-1-2.3-1.6-3.9-1.6
		c-1,0-1.9,0.2-2.8,0.7s-1.5,1.1-1.9,2c-0.5,0.9-0.7,1.9-0.7,3c0,1.1,0.2,2.1,0.7,3s1.1,1.5,1.9,2s1.7,0.7,2.8,0.7
		C926,952.8,927.2,952.3,928.3,951.2z"/>
	<path class="st5" d="M951,939.8c1.4,1.3,2.1,3.2,2.1,5.8v10.6h-4V954c-0.5,0.8-1.3,1.4-2.2,1.8c-1,0.4-2.1,0.6-3.5,0.6
		c-1.4,0-2.6-0.2-3.6-0.7s-1.8-1.1-2.4-1.9c-0.6-0.8-0.8-1.8-0.8-2.8c0-1.6,0.6-2.9,1.8-3.9c1.2-1,3.1-1.5,5.7-1.5h4.7v-0.3
		c0-1.3-0.4-2.2-1.1-2.9c-0.8-0.7-1.9-1-3.4-1c-1,0-2,0.2-3,0.5s-1.8,0.8-2.5,1.3l-1.7-3.1c1-0.7,2.1-1.3,3.4-1.7
		c1.3-0.4,2.8-0.6,4.2-0.6C947.5,937.9,949.5,938.5,951,939.8z M947.1,952.6c0.8-0.5,1.4-1.2,1.8-2.1v-2.1h-4.4
		c-2.4,0-3.7,0.8-3.7,2.4c0,0.8,0.3,1.4,0.9,1.8c0.6,0.5,1.5,0.7,2.5,0.7C945.3,953.4,946.3,953.1,947.1,952.6z"/>
	<path class="st5" d="M972.7,941.7h-6.4v14.6h-4.2v-14.6h-6.4v-3.6h17V941.7z"/>
	<path class="st5" d="M975.8,938.1h4.2v12l10-12h3.9v18.2h-4.2v-12l-10,12h-3.9V938.1z"/>
	<path class="st5" d="M1016.2,951.1c0,1.6-0.6,2.9-1.8,3.8s-3,1.3-5.4,1.3h-9.2v-18.2h8.9c2.2,0,4,0.4,5.2,1.2
		c1.2,0.8,1.9,2,1.9,3.5c0,0.9-0.2,1.7-0.7,2.4c-0.5,0.7-1.2,1.2-2.1,1.6C1015.1,947.4,1016.2,948.9,1016.2,951.1z M1003.7,945.6
		h4.5c2.2,0,3.3-0.8,3.3-2.3c0-1.5-1.1-2.2-3.3-2.2h-4.5V945.6z M1012.1,950.8c0-0.8-0.3-1.4-0.8-1.8c-0.5-0.4-1.4-0.6-2.5-0.6h-5
		v4.7h4.9C1010.9,953.1,1012.1,952.4,1012.1,950.8z"/>
	<path class="st5" d="M1020.7,938.1h4.2v7.4h9.1v-7.4h4.2v18.2h-4.2V949h-9.1v7.2h-4.2V938.1z"/>
	<path class="st5" d="M1057,939.8c1.4,1.3,2.1,3.2,2.1,5.8v10.6h-4V954c-0.5,0.8-1.3,1.4-2.2,1.8c-1,0.4-2.1,0.6-3.5,0.6
		c-1.4,0-2.5-0.2-3.6-0.7c-1-0.5-1.8-1.1-2.4-1.9c-0.6-0.8-0.8-1.8-0.8-2.8c0-1.6,0.6-2.9,1.8-3.9s3.1-1.5,5.7-1.5h4.7v-0.3
		c0-1.3-0.4-2.2-1.1-2.9c-0.8-0.7-1.9-1-3.4-1c-1,0-2,0.2-3,0.5c-1,0.3-1.8,0.8-2.5,1.3l-1.7-3.1c1-0.7,2.1-1.3,3.4-1.7
		c1.3-0.4,2.8-0.6,4.2-0.6C1053.5,937.9,1055.6,938.5,1057,939.8z M1053.1,952.6c0.8-0.5,1.4-1.2,1.8-2.1v-2.1h-4.4
		c-2.4,0-3.7,0.8-3.7,2.4c0,0.8,0.3,1.4,0.9,1.8c0.6,0.5,1.5,0.7,2.5,0.7C1051.4,953.4,1052.3,953.1,1053.1,952.6z"/>
	<path class="st5" d="M1079.7,938.1v18.2h-3.8v-5.5h-4.8l-3.7,5.5h-4.6l4.3-6.1c-1.3-0.5-2.3-1.2-3-2.1s-1-2.1-1-3.5
		c0-2.1,0.7-3.7,2.2-4.8c1.5-1.1,3.5-1.7,6.1-1.7H1079.7z M1067.4,944.7c0,2,1.3,3.1,4,3.1h4.5v-6.2h-4.4
		C1068.8,941.6,1067.4,942.7,1067.4,944.7z"/>
	<path class="st5" d="M916.1,978.9V997h-4.2v-14.6h-8.9V997h-4.2v-18.2H916.1z"/>
	<path class="st5" d="M934.7,980.6c1.4,1.3,2.1,3.2,2.1,5.8V997h-4v-2.2c-0.5,0.8-1.3,1.4-2.2,1.8c-1,0.4-2.1,0.6-3.5,0.6
		c-1.4,0-2.6-0.2-3.6-0.7s-1.8-1.1-2.4-1.9c-0.6-0.8-0.8-1.8-0.8-2.8c0-1.6,0.6-2.9,1.8-3.9c1.2-1,3.1-1.5,5.7-1.5h4.7v-0.3
		c0-1.3-0.4-2.2-1.1-2.9c-0.8-0.7-1.9-1-3.4-1c-1,0-2,0.2-3,0.5s-1.8,0.8-2.5,1.3l-1.7-3.1c1-0.7,2.1-1.3,3.4-1.7
		c1.3-0.4,2.8-0.6,4.2-0.6C931.2,978.7,933.3,979.3,934.7,980.6z M930.8,993.4c0.8-0.5,1.4-1.2,1.8-2.1v-2.1h-4.4
		c-2.4,0-3.7,0.8-3.7,2.4c0,0.8,0.3,1.4,0.9,1.8c0.6,0.5,1.5,0.7,2.5,0.7C929.1,994.2,930,993.9,930.8,993.4z"/>
	<path class="st5" d="M960,997v-12l-6.1,10.1H952l-6-10.2V997h-3.9v-18.2h4.5l6.5,11.4l6.8-11.4h4l0,18.2H960z"/>
	<path class="st5" d="M984.8,978.9V997H981v-5.5h-4.8l-3.7,5.5H968l4.3-6.1c-1.3-0.5-2.3-1.2-3-2.1s-1-2.1-1-3.5
		c0-2.1,0.7-3.7,2.2-4.8c1.5-1.1,3.5-1.7,6.1-1.7H984.8z M972.5,985.5c0,2,1.3,3.1,4,3.1h4.5v-6.2h-4.4
		C973.9,982.4,972.5,983.5,972.5,985.5z"/>
	<path class="st5" d="M1004.9,982.5h-6.4V997h-4.2v-14.6h-6.4v-3.6h17V982.5z"/>
	<path class="st5" d="M1022.5,986.4c1.2,1,1.9,2.5,1.9,4.4c0,2-0.7,3.5-2,4.6c-1.4,1.1-3.3,1.6-5.7,1.6l-8.5,0v-18.2h4.2v6l4.9,0
		C1019.5,984.8,1021.2,985.4,1022.5,986.4z M1019,993.1c0.7-0.5,1-1.3,1-2.4c0-1-0.3-1.8-1-2.2c-0.6-0.5-1.6-0.7-2.9-0.7l-3.9,0v6.2
		l3.9,0C1017.4,993.9,1018.4,993.7,1019,993.1z"/>
</g>
</svg>
