<?xml version="1.0" encoding="utf-8"?>
<!-- Generator: Adobe Illustrator 24.3.0, SVG Export Plug-In . SVG Version: 6.00 Build 0)  -->
<svg version="1.1" id="Слой_1" xmlns="http://www.w3.org/2000/svg" xmlns:xlink="http://www.w3.org/1999/xlink" x="0px" y="0px"
	 viewBox="0 0 1920 1080" style="enable-background:new 0 0 1920 1080;" xml:space="preserve">
<style type="text/css">
	.st0{fill:#0D1117;}
	.st1{fill:#FFFFFF;}
	.st2{fill:#3398FF;}
	.st3{fill:#3398FF;stroke:#FFFFFF;stroke-width:5;stroke-miterlimit:10;}
	.st4{stroke:#FFFFFF;stroke-width:5;stroke-miterlimit:10;}
	.st5{fill:#4AA4FF;}
</style>
<rect class="st0" width="1920" height="1080"/>
<g>
	<path class="st1" d="M404.7,441.2c0-5.3,0-9.8,0-14.3c0-16.9,0-33.8,0-50.6c0-7.4,0.2-7.5,7.7-7.5c82.3,0,164.6,0,246.9-0.1
		c3.1,0,6.1-1.9,9.2-2.7c1.4-0.4,2.9-0.8,4.3-0.8c10.4-0.1,20.9,0.1,31.3-0.1c4.3-0.1,6.2,1.6,6.2,6c-0.1,22.6-0.1,45.1,0,67.7
		c0,4.4-1.9,5.5-5.9,5.4c-10.6-0.2-21.5,1.6-31.8-0.4c-28.5-5.3-57.1-1.6-85.7-2.4c-28.8-0.8-57.6-0.2-86.5-0.2
		c-28.8,0-57.7,0-86.5,0C411.3,441.2,408.5,441.2,404.7,441.2z M666.3,376.1c-1.1-0.2-1.5-0.4-1.8-0.4c-83.3,0-166.5,0-249.8-0.1
		c-4.1,0-4.6,1.8-4.6,5.2c0.1,15.7,0.2,31.5-0.1,47.2c-0.1,5.1,1.2,6.7,6.6,6.7c81.2-0.2,162.4-0.1,243.5-0.1c2,0,4-0.2,6.1-0.3
		C666.3,414.4,666.3,395.4,666.3,376.1z M672.7,371.9c0,21.5-0.1,42.2,0.2,62.8c0,1.1,2.5,3.2,3.9,3.2c7.7,0.3,15.5,0.1,23.3,0.2
		c2.8,0,4.2-0.8,4.2-3.8c-0.1-19.5,0-39-0.2-58.5c0-1.3-1.8-3.6-2.8-3.7C692,371.8,682.8,371.9,672.7,371.9z"/>
	<path class="st1" d="M1443.4,368.7c40.6,0,81.2,0,121.7-0.1c3.5,0,7.7,1.6,10-3.1c0.3-0.7,2.4-0.6,3.7-0.6
		c10.8,0,21.6,0.1,32.4-0.1c4.6-0.1,6.5,1.7,6.4,6.3c-0.1,22-0.1,44,0,66c0,4.9-2.2,6.8-6.9,6.8c-10.4-0.1-21.2,1.6-31.2-0.3
		c-28.5-5.4-57.1-1.6-85.6-2.4c-29-0.8-58-0.2-87-0.2c-28.8,0-57.6,0-86.5,0c-9.2,0-9.2,0-9.2-9.2c0-18.6,0-37.2,0-55.7
		c0-6.9,0.6-7.5,7.5-7.5C1360.4,368.7,1401.9,368.7,1443.4,368.7z M1317.5,434.1c2.1,0.2,3.6,0.4,5.1,0.4c81.9,0,163.8,0,245.7,0.1
		c4.3,0,5.5-1.3,5.5-5.5c-0.2-15.9-0.3-31.9,0-47.8c0.1-4.6-1.3-5.8-5.8-5.8c-22.2,0.2-44.4,0.1-66.5,0.1
		c-59.1,0-118.3,0.1-177.4-0.1c-5.4,0-6.8,1.6-6.6,6.7c0.4,10.2,0.1,20.5,0.1,30.7C1317.5,419.9,1317.5,426.9,1317.5,434.1z
		 M1578.9,372c0,21.1-0.1,41.6,0.2,62c0,1.4,3.1,3.8,4.9,3.9c7.4,0.4,14.8,0.2,22.2,0.2c3.4,0,5.4-1.4,5.4-5.1
		c0-19.2,0-38.3-0.1-57.5c0-1.2-1.7-3.3-2.6-3.4C1599.1,371.9,1589.3,372,1578.9,372z"/>
	<path class="st1" d="M1399.8,647.9c0-22.8,0-44.7,0-67.5c2.8-0.3,5.5-0.9,8.2-0.9c67.1-0.1,134.2,0,201.3,0c7.1,0,8.4,1.2,8.4,8.2
		c0,17.6,0,35.3,0,52.9c0,7.4-0.5,7.9-7.6,7.9c-67.1,0-134.2,0-201.3,0C1405.9,648.3,1403.1,648,1399.8,647.9z M1611.6,585.4
		c-36.3,0-71.5,0-106.8,0c-3.5,0-5.1,1.8-5.1,5.3c0,15.5,0.1,31.1,0,46.6c0,3.3,1.3,4.4,4.4,4.3c6.8-0.1,13.6,0,20.5,0
		c27.1,0,54.2,0,81.3,0c3.7,0,6.2-0.3,5.9-5.1c-0.4-5.5-0.1-11-0.1-16.5C1611.6,608.7,1611.6,597.4,1611.6,585.4z M1405.8,641.3
		c29.4,0,58.3,0,87.4,0c0-18.6,0-36.8,0-55.4c-29.3,0-58.2,0-87.4,0C1405.8,604.4,1405.8,622.5,1405.8,641.3z"/>
	<path class="st1" d="M859.5,648.4c-33.2,0-66.4,0-99.6,0c-8.1,0-8.7-0.6-8.7-8.8c0-17.4,0-34.9,0-52.3c0-6.7,1.2-7.9,8-7.9
		c66.6,0,133.1,0,199.7,0c6.7,0,7.4,0.7,7.4,7.6c0,18-0.1,36,0.1,54.1c0.1,5.4-1.4,7.6-7.4,7.5C925.9,648.3,892.7,648.4,859.5,648.4
		z M849.2,640.9c1.9,0.3,3.2,0.6,4.4,0.6c34.1,0,68.3,0,102.4,0.1c3.8,0,4.9-1.4,4.8-5c-0.1-14.6,0-29.2-0.1-43.8
		c0-7-0.4-7.4-7.5-7.4c-32.2,0-64.5,0-96.7,0c-0.8,0-1.5,0.1-2.3,0c-3.9-0.3-5.2,1.5-5.2,5.4c0.2,11.6,0.1,23.1,0.1,34.7
		C849.2,630.6,849.2,635.7,849.2,640.9z M757.3,641c28.9,0,57.1,0,85.4,0c0-18.6,0-36.7,0-55.4c-3,0-5.6,0-8.3,0
		c-20.7,0-41.3-0.1-62,0c-17.4,0.1-15-2.2-15.1,15C757.3,614,757.3,627.4,757.3,641z"/>
	<path class="st1" d="M773.7,549.1c-20.5,0-41,0-61.4,0c-7.1,0-8-0.9-8-7.8c0-18.6,0-37.2,0-55.7c0-7.6,1.1-8.6,8.3-8.6
		c40.4,0,80.8,0,121.2,0c7.1,0,10,0.9,9.7,9.7c-0.4,18.2-0.1,36.4-0.1,54.6c0,7.4-0.4,7.9-7.7,7.9
		C815,549.1,794.4,549.1,773.7,549.1z M710.4,543.5c2.6,0.1,4.1,0.3,5.5,0.3c37.4,0,74.7,0,112.1,0c1.3,0,2.6-0.1,4-0.2
		c3.7-0.2,5.3-1.8,5.3-5.7c-0.2-16.3-0.2-32.6,0-48.9c0-3.9-1.2-5.3-5.2-5.3c-38.9,0.1-77.7,0.1-116.6,0c-4.2,0-5.2,1.6-5.1,5.4
		c0.2,8.1,0,16.3,0,24.5C710.4,523.3,710.4,533.1,710.4,543.5z"/>
	<path class="st1" d="M1680.5,549.1c-21.1,0-42.1-0.1-63.2,0.1c-4.4,0-5.9-1.3-5.8-5.8c0.2-19.5,0.1-39.1,0.1-58.6
		c0-7.1,0.8-7.8,7.9-7.8c40.8,0,81.6,0,122.4,0c7.1,0,7.6,0.5,7.6,7.3c0,19.7-0.1,39.5,0.1,59.2c0,4.5-1.4,5.8-5.9,5.7
		C1722.7,548.9,1701.6,549.1,1680.5,549.1z M1743.5,484.1c-1.8-0.2-2.6-0.4-3.3-0.4c-39.3,0-78.5,0-117.8-0.1
		c-3.9,0-4.8,1.6-4.8,5.1c0.1,15.6,0,31.1,0,46.7c0,8.2,0,8.3,8.1,8.3c37.4,0,74.8-0.1,112.1,0.1c4.7,0,5.8-1.7,5.7-6
		c-0.2-9.5-0.1-19-0.1-28.5C1743.5,501.1,1743.5,492.8,1743.5,484.1z"/>
	<path class="st1" d="M363.7,341.9c0-15.9,0-30.4,0-45c0-6.2,0.1-12.5,0-18.7c-0.1-3.3,1.1-5,4.6-4.9c10.4,0.1,20.8,0.1,31.2,0
		c3.7,0,5,1.9,5,5.3c0,19.5,0.1,39-0.1,58.5c0,1.6-1.7,4.6-2.7,4.6C389.3,342,376.9,341.9,363.7,341.9z M370,335.5
		c8.9,0,17,0.2,25.1-0.2c1.3-0.1,3.6-2.3,3.6-3.6c0.3-15.9,0.3-31.8,0-47.7c0-1.5-2.7-4.1-4.3-4.2c-7-0.5-14-0.4-21,0
		c-1.2,0.1-3.3,2.1-3.3,3.2C369.9,300.2,370,317.4,370,335.5z"/>
	<path class="st1" d="M1497,712c0-9.3,0.1-18.6,0-27.9c-0.1-4.8,1.9-6.9,6.8-6.7c9.1,0.2,18.2,0.2,27.3,0c4.7-0.1,6.6,2.1,6.6,6.4
		c0,19.5,0,39,0,58.6c0,3.6-1.5,4.9-5.2,4.8c-9.9-0.2-19.7-0.2-29.6,0c-4.4,0.1-6.1-1.9-6-6.2C1497,731.3,1496.9,721.7,1497,712
		C1496.9,712,1497,712,1497,712z M1503.5,740.6c8.7,0,16.8,0.2,24.8-0.2c1.3-0.1,3.6-2.3,3.6-3.6c0.2-15.9,0.3-31.8,0-47.7
		c0-1.7-2.1-4.7-3.3-4.8c-8.2-0.4-16.5-0.2-25.1-0.2C1503.5,703.2,1503.5,721.5,1503.5,740.6z"/>
	<path class="st1" d="M1007.7,713.2c0,9.5-0.1,19,0,28.4c0.1,4-1.3,5.7-5.7,5.6c-9.7-0.3-19.3-0.2-29,0c-4.3,0.1-6.2-1.6-6.2-6
		c0.1-19,0.1-37.9,0-56.9c0-5.2,2.2-7.1,7.2-6.9c8.9,0.2,17.8,0.2,26.7,0c5.1-0.1,6.8,2.3,6.8,6.9
		C1007.7,693.9,1007.7,703.6,1007.7,713.2z M973.4,740.7c8.7,0,16.9,0.2,25-0.2c1.3-0.1,3.6-2.3,3.6-3.5c0.2-16.1,0.2-32.2,0-48.3
		c0-1.5-2.1-4.2-3.3-4.3c-8.3-0.4-16.5-0.2-25.3-0.2C973.4,703.2,973.4,721.5,973.4,740.7z"/>
	<path class="st1" d="M1311.5,307.4c0,9.5-0.1,19,0.1,28.4c0.1,4.3-1.6,6.2-6,6.1c-9.9-0.2-19.7-0.1-29.6,0c-4.1,0-5.9-1.6-5.9-5.7
		c0-19,0.1-37.9,0-56.9c0-4.1,2-6,5.8-6c10.2-0.1,20.5,0,30.7-0.1c3.5,0,5.1,1.4,5,5.1C1311.4,288.1,1311.5,297.8,1311.5,307.4z
		 M1305.1,335.4c0-19.2,0-37.5,0-56.3c-8.6,0-16.7-0.2-24.8,0.2c-1.5,0.1-4,2.7-4.1,4.2c-0.3,16.1-0.3,32.2-0.1,48.3
		c0,1.2,2,3.3,3.1,3.4C1287.8,335.6,1296.3,335.4,1305.1,335.4z"/>
	<path d="M666.3,376.1c0,19.3,0,38.4,0,58.2c-2.1,0.1-4.1,0.3-6.1,0.3c-81.2,0-162.4,0-243.5,0.1c-5.4,0-6.7-1.6-6.6-6.7
		c0.3-15.7,0.2-31.5,0.1-47.2c0-3.4,0.5-5.2,4.6-5.2c83.3,0.1,166.5,0.1,249.8,0.1C664.8,375.7,665.2,375.8,666.3,376.1z"/>
	<path class="st2" d="M672.7,371.9c10.1,0,19.3-0.1,28.6,0.2c1,0,2.8,2.4,2.8,3.7c0.2,19.5,0.1,39,0.2,58.5c0,3-1.4,3.9-4.2,3.8
		c-7.8-0.1-15.5,0.1-23.3-0.2c-1.4-0.1-3.8-2.1-3.9-3.2C672.6,414.1,672.7,393.5,672.7,371.9z"/>
	<path d="M1317.5,434.1c0-7.2,0-14.2,0-21.1c0-10.2,0.3-20.5-0.1-30.7c-0.2-5.1,1.2-6.7,6.6-6.7c59.1,0.2,118.3,0.1,177.4,0.1
		c22.2,0,44.4,0.1,66.5-0.1c4.5,0,5.9,1.2,5.8,5.8c-0.3,15.9-0.2,31.8,0,47.8c0.1,4.2-1.2,5.5-5.5,5.5
		c-81.9-0.1-163.8-0.1-245.7-0.1C1321,434.5,1319.6,434.3,1317.5,434.1z"/>
	<path class="st2" d="M1578.9,372c10.4,0,20.2-0.1,30,0.2c0.9,0,2.6,2.2,2.6,3.4c0.2,19.2,0.1,38.3,0.1,57.5c0,3.6-2,5.1-5.4,5.1
		c-7.4,0-14.8,0.3-22.2-0.2c-1.8-0.1-4.9-2.5-4.9-3.9C1578.8,413.6,1578.9,393.1,1578.9,372z"/>
	<path class="st2" d="M1611.6,585.4c0,12,0,23.4,0,34.7c0,5.5-0.3,11,0.1,16.5c0.3,4.8-2.1,5.1-5.9,5.1c-27.1-0.1-54.2,0-81.3,0
		c-6.8,0-13.6-0.1-20.5,0c-3.1,0-4.4-1.1-4.4-4.3c0.1-15.5,0.1-31.1,0-46.6c0-3.5,1.6-5.3,5.1-5.3
		C1540.1,585.4,1575.3,585.4,1611.6,585.4z"/>
	<path d="M1405.8,641.3c0-18.7,0-36.9,0-55.4c29.2,0,58.1,0,87.4,0c0,18.5,0,36.8,0,55.4C1464.1,641.3,1435.2,641.3,1405.8,641.3z"
		/>
	<path class="st2" d="M849.2,640.9c0-5.2,0-10.3,0-15.4c0-11.6,0.1-23.1-0.1-34.7c-0.1-3.9,1.3-5.7,5.2-5.4c0.8,0.1,1.5,0,2.3,0
		c32.2,0,64.5,0,96.7,0c7.1,0,7.5,0.4,7.5,7.4c0,14.6-0.1,29.2,0.1,43.8c0,3.6-1,5-4.8,5c-34.1-0.1-68.3-0.1-102.4-0.1
		C852.4,641.5,851.1,641.2,849.2,640.9z"/>
	<path d="M757.3,641c0-13.6-0.1-27,0-40.4c0.1-17.2-2.3-14.9,15.1-15c20.7-0.1,41.3,0,62,0c2.6,0,5.2,0,8.3,0c0,18.7,0,36.8,0,55.4
		C814.5,641,786.2,641,757.3,641z"/>
	<path class="st2" d="M710.4,543.5c0-10.3,0-20.2,0-30c0-8.2,0.1-16.3,0-24.5c-0.1-3.7,0.9-5.4,5.1-5.4c38.9,0.1,77.7,0.1,116.6,0
		c4,0,5.2,1.4,5.2,5.3c-0.1,16.3-0.1,32.6,0,48.9c0,3.9-1.6,5.6-5.3,5.7c-1.3,0.1-2.6,0.2-4,0.2c-37.4,0-74.7,0-112.1,0
		C714.5,543.7,713,543.6,710.4,543.5z"/>
	<path class="st2" d="M1743.5,484.1c0,8.6,0,16.9,0,25.2c0,9.5-0.2,19,0.1,28.5c0.1,4.3-1,6-5.7,6c-37.4-0.2-74.8-0.1-112.1-0.1
		c-8.1,0-8.1-0.1-8.1-8.3c0-15.6,0.1-31.1,0-46.7c0-3.5,0.9-5.1,4.8-5.1c39.3,0.1,78.5,0.1,117.8,0.1
		C1740.9,483.7,1741.7,483.9,1743.5,484.1z"/>
	<path class="st2" d="M370,335.5c0-18.1-0.1-35.2,0.1-52.4c0-1.1,2.1-3.2,3.3-3.2c7-0.3,14-0.4,21,0c1.6,0.1,4.3,2.7,4.3,4.2
		c0.3,15.9,0.3,31.8,0,47.7c0,1.3-2.3,3.5-3.6,3.6C387,335.6,378.9,335.5,370,335.5z"/>
	<path class="st2" d="M1503.5,740.6c0-19.1,0-37.4,0-56.4c8.6,0,16.9-0.2,25.1,0.2c1.2,0.1,3.3,3.1,3.3,4.8
		c0.3,15.9,0.2,31.8,0,47.7c0,1.3-2.3,3.5-3.6,3.6C1520.2,740.8,1512.1,740.6,1503.5,740.6z"/>
	<path class="st2" d="M973.4,740.7c0-19.2,0-37.5,0-56.4c8.7,0,17-0.2,25.3,0.2c1.2,0.1,3.3,2.8,3.3,4.3c0.2,16.1,0.2,32.2,0,48.3
		c0,1.3-2.3,3.5-3.6,3.5C990.2,740.8,982.1,740.7,973.4,740.7z"/>
	<path class="st2" d="M1305.1,335.4c-8.8,0-17.3,0.1-25.8-0.2c-1.1,0-3.1-2.2-3.1-3.4c-0.2-16.1-0.2-32.2,0.1-48.3
		c0-1.5,2.6-4.1,4.1-4.2c8.1-0.4,16.2-0.2,24.8-0.2C1305.1,298,1305.1,316.2,1305.1,335.4z"/>
</g>
<rect x="580.8" y="934.8" class="st3" width="43" height="43"/>
<rect x="538.2" y="1021.3" class="st4" width="129" height="46"/>
<g>
	<g>
		<g>
			<polygon class="st5" points="162.7,286.8 161.7,738.4 168.3,735.6 158.5,758.8 148.8,735.6 155.4,738.4 156.3,286.8 			"/>
		</g>
	</g>
</g>
<g>
	<path class="st2" d="M448.4,391.4v28.7h-5.2v-24.2h-14.9v24.2H423v-28.7H448.4z"/>
	<path class="st2" d="M473.8,399.4c1.7,0.9,3,2.2,4,3.9c1,1.7,1.4,3.6,1.4,5.9c0,2.2-0.5,4.2-1.4,5.9c-1,1.7-2.3,3-4,4
		c-1.7,0.9-3.6,1.4-5.7,1.4c-3,0-5.3-1-7-3v10.6h-5.1v-29.8h4.9v2.9c0.8-1,1.9-1.8,3.1-2.3c1.2-0.5,2.6-0.8,4.1-0.8
		C470.2,398,472.1,398.4,473.8,399.4z M472.1,414.1c1.2-1.3,1.8-2.9,1.8-5c0-2.1-0.6-3.7-1.8-5c-1.2-1.3-2.8-1.9-4.7-1.9
		c-1.2,0-2.3,0.3-3.3,0.8c-1,0.6-1.8,1.4-2.3,2.4c-0.6,1-0.9,2.2-0.9,3.6s0.3,2.6,0.9,3.6c0.6,1,1.4,1.8,2.3,2.4
		c1,0.6,2.1,0.8,3.3,0.8C469.4,416,470.9,415.4,472.1,414.1z"/>
	<path class="st2" d="M488,419c-1.8-1-3.2-2.3-4.2-4c-1-1.7-1.5-3.6-1.5-5.8s0.5-4.1,1.5-5.8c1-1.7,2.4-3,4.2-4c1.8-1,3.8-1.4,6-1.4
		c2.2,0,4.2,0.5,6,1.4c1.8,1,3.2,2.3,4.2,4c1,1.7,1.5,3.6,1.5,5.8s-0.5,4.1-1.5,5.8c-1,1.7-2.4,3-4.2,4c-1.8,1-3.8,1.4-6,1.4
		C491.8,420.4,489.8,419.9,488,419z M498.7,414.1c1.2-1.3,1.8-2.9,1.8-5c0-2.1-0.6-3.7-1.8-5c-1.2-1.3-2.8-1.9-4.7-1.9
		c-1.9,0-3.4,0.6-4.7,1.9c-1.2,1.3-1.8,2.9-1.8,5c0,2,0.6,3.7,1.8,5c1.2,1.3,2.8,1.9,4.7,1.9C495.9,416,497.4,415.4,498.7,414.1z"/>
	<path class="st2" d="M531.7,398.2v21.9h-5.1v-17.5h-10.8v17.5h-5.1v-21.9H531.7z"/>
	<path class="st2" d="M559.3,398.2l-10.2,23.7c-1,2.4-2.1,4.1-3.5,5c-1.4,1-3,1.5-5,1.5c-1.1,0-2.2-0.2-3.2-0.5
		c-1.1-0.4-1.9-0.8-2.6-1.5l2.1-3.8c0.5,0.5,1.1,0.8,1.7,1.1c0.7,0.3,1.3,0.4,2,0.4c0.9,0,1.6-0.2,2.2-0.7c0.6-0.5,1.1-1.2,1.6-2.3
		l0.4-0.9l-9.6-22h5.3l6.9,16.2l6.9-16.2H559.3z"/>
	<path class="st2" d="M566.1,419c-1.8-1-3.2-2.3-4.2-4c-1-1.7-1.5-3.6-1.5-5.8s0.5-4.1,1.5-5.8c1-1.7,2.4-3,4.2-4
		c1.8-1,3.8-1.4,6.1-1.4c2.2,0,4.1,0.4,5.7,1.3c1.6,0.9,2.8,2.1,3.7,3.8l-3.9,2.3c-0.6-1-1.4-1.8-2.4-2.3c-0.9-0.5-2-0.8-3.1-0.8
		c-1.9,0-3.5,0.6-4.8,1.9c-1.3,1.2-1.9,2.9-1.9,5s0.6,3.7,1.9,5c1.2,1.2,2.8,1.9,4.8,1.9c1.1,0,2.2-0.3,3.1-0.8
		c0.9-0.5,1.7-1.3,2.4-2.3l3.9,2.3c-0.8,1.6-2.1,2.9-3.7,3.8c-1.6,0.9-3.5,1.3-5.6,1.3C570,420.4,567.9,419.9,566.1,419z"/>
	<path class="st2" d="M595.2,411.3h-4v8.8h-5.1v-21.9h5.1v8.9h4.1l6.5-8.9h5.5l-8,10.5l8.5,11.4h-6L595.2,411.3z"/>
	<path class="st2" d="M623.1,391.4h5.3v24.2h15v4.5h-20.3V391.4z"/>
	<path class="st2" d="M654.1,391.4v28.7h-5.3v-24.2h-6.1v-4.5H654.1z"/>
</g>
<g>
	<path class="st2" d="M1355.1,391.8v28.7h-5.2v-24.2H1335v24.2h-5.2v-28.7H1355.1z"/>
	<path class="st2" d="M1380.5,399.7c1.7,0.9,3,2.2,4,3.9c1,1.7,1.4,3.6,1.4,5.9c0,2.2-0.5,4.2-1.4,5.9c-1,1.7-2.3,3-4,4
		c-1.7,0.9-3.6,1.4-5.7,1.4c-3,0-5.3-1-7-3v10.6h-5.1v-29.8h4.9v2.9c0.8-1,1.9-1.8,3.1-2.3c1.2-0.5,2.6-0.8,4.1-0.8
		C1376.9,398.3,1378.8,398.8,1380.5,399.7z M1378.9,414.5c1.2-1.3,1.8-2.9,1.8-5c0-2.1-0.6-3.7-1.8-5c-1.2-1.3-2.8-1.9-4.7-1.9
		c-1.2,0-2.3,0.3-3.3,0.8c-1,0.6-1.8,1.4-2.3,2.4c-0.6,1-0.9,2.2-0.9,3.6s0.3,2.6,0.9,3.6c0.6,1,1.4,1.8,2.3,2.4
		c1,0.6,2.1,0.8,3.3,0.8C1376.1,416.4,1377.6,415.7,1378.9,414.5z"/>
	<path class="st2" d="M1394.8,419.3c-1.8-1-3.2-2.3-4.2-4c-1-1.7-1.5-3.6-1.5-5.8s0.5-4.1,1.5-5.8c1-1.7,2.4-3,4.2-4
		c1.8-1,3.8-1.4,6-1.4c2.2,0,4.2,0.5,6,1.4c1.8,1,3.2,2.3,4.2,4c1,1.7,1.5,3.6,1.5,5.8s-0.5,4.1-1.5,5.8c-1,1.7-2.4,3-4.2,4
		c-1.8,1-3.8,1.4-6,1.4C1398.5,420.7,1396.5,420.3,1394.8,419.3z M1405.4,414.5c1.2-1.3,1.8-2.9,1.8-5c0-2.1-0.6-3.7-1.8-5
		c-1.2-1.3-2.8-1.9-4.7-1.9c-1.9,0-3.4,0.6-4.7,1.9c-1.2,1.3-1.8,2.9-1.8,5c0,2,0.6,3.7,1.8,5c1.2,1.3,2.8,1.9,4.7,1.9
		C1402.6,416.4,1404.2,415.7,1405.4,414.5z"/>
	<path class="st2" d="M1438.5,398.6v21.9h-5.1v-17.5h-10.8v17.5h-5.1v-21.9H1438.5z"/>
	<path class="st2" d="M1466.1,398.6l-10.2,23.7c-1,2.4-2.1,4.1-3.5,5c-1.4,1-3,1.5-5,1.5c-1.1,0-2.2-0.2-3.2-0.5
		c-1.1-0.4-1.9-0.8-2.6-1.5l2.1-3.8c0.5,0.5,1.1,0.8,1.7,1.1c0.7,0.3,1.3,0.4,2,0.4c0.9,0,1.6-0.2,2.2-0.7s1.1-1.2,1.6-2.3l0.4-0.9
		l-9.6-22h5.3l6.9,16.2l6.9-16.2H1466.1z"/>
	<path class="st2" d="M1472.9,419.3c-1.8-1-3.2-2.3-4.2-4c-1-1.7-1.5-3.6-1.5-5.8s0.5-4.1,1.5-5.8c1-1.7,2.4-3,4.2-4
		c1.8-1,3.8-1.4,6.1-1.4c2.2,0,4.1,0.4,5.7,1.3c1.6,0.9,2.8,2.1,3.7,3.8l-3.9,2.3c-0.6-1-1.4-1.8-2.4-2.3c-0.9-0.5-2-0.8-3.1-0.8
		c-1.9,0-3.5,0.6-4.8,1.9c-1.3,1.2-1.9,2.9-1.9,5s0.6,3.7,1.9,5c1.2,1.2,2.8,1.9,4.8,1.9c1.1,0,2.2-0.3,3.1-0.8
		c0.9-0.5,1.7-1.3,2.4-2.3l3.9,2.3c-0.8,1.6-2.1,2.9-3.7,3.8c-1.6,0.9-3.5,1.3-5.6,1.3C1476.7,420.7,1474.7,420.3,1472.9,419.3z"/>
	<path class="st2" d="M1501.9,411.7h-4v8.8h-5.1v-21.9h5.1v8.9h4.1l6.5-8.9h5.5l-8,10.5l8.5,11.4h-6L1501.9,411.7z"/>
	<path class="st2" d="M1529.9,391.8h5.3V416h15v4.5h-20.3V391.8z"/>
	<path class="st2" d="M1560.9,391.8v28.7h-5.3v-24.2h-6.1v-4.5H1560.9z"/>
</g>
<g>
	<path class="st2" d="M11.4,231.3h6v23.4L35,231.3h5.7v32.9h-6v-23.3L17,264.2h-5.7V231.3z"/>
	<path class="st2" d="M49.3,239.1h5.9v10.2h12.6v-10.2h5.9v25.1h-5.9v-9.9H55.2v9.9h-5.9V239.1z"/>
	<path class="st2" d="M86,262.9c-2.1-1.1-3.7-2.6-4.8-4.6c-1.2-2-1.7-4.2-1.7-6.7c0-2.5,0.6-4.7,1.7-6.6c1.2-1.9,2.8-3.5,4.8-4.6
		c2.1-1.1,4.4-1.6,7-1.6c2.5,0,4.6,0.5,6.5,1.5c1.9,1,3.3,2.4,4.2,4.3l-4.5,2.6c-0.7-1.2-1.6-2-2.7-2.6c-1.1-0.6-2.3-0.9-3.5-0.9
		c-2.2,0-4,0.7-5.5,2.1c-1.4,1.4-2.2,3.3-2.2,5.7c0,2.4,0.7,4.3,2.1,5.7c1.4,1.4,3.2,2.1,5.5,2.1c1.3,0,2.5-0.3,3.5-0.9
		c1.1-0.6,2-1.4,2.7-2.6l4.5,2.6c-1,1.9-2.4,3.3-4.3,4.3c-1.9,1-4,1.5-6.5,1.5C90.4,264.5,88.1,264,86,262.9z"/>
	<path class="st2" d="M128.5,244.1h-8.8v20.1h-5.9v-20.1H105v-5h23.5V244.1z"/>
	<path class="st2" d="M153.3,240.4c1.9,1.1,3.4,2.6,4.5,4.5c1.1,1.9,1.6,4.2,1.6,6.7c0,2.5-0.5,4.8-1.6,6.7c-1.1,2-2.6,3.5-4.5,4.5
		c-1.9,1.1-4.1,1.6-6.6,1.6c-3.4,0-6.1-1.1-8-3.4v12.2h-5.9v-34.2h5.6v3.3c1-1.2,2.2-2.1,3.6-2.7c1.4-0.6,3-0.9,4.7-0.9
		C149.2,238.8,151.3,239.4,153.3,240.4z M151.4,257.3c1.4-1.4,2.1-3.3,2.1-5.7c0-2.4-0.7-4.2-2.1-5.7c-1.4-1.4-3.2-2.2-5.3-2.2
		c-1.4,0-2.7,0.3-3.8,1c-1.1,0.6-2,1.6-2.7,2.7c-0.7,1.2-1,2.6-1,4.1c0,1.6,0.3,2.9,1,4.1c0.7,1.2,1.6,2.1,2.7,2.7
		c1.1,0.6,2.4,1,3.8,1C148.2,259.5,150,258.8,151.4,257.3z"/>
	<path class="st2" d="M188.3,239.1l-11.8,27.1c-1.1,2.7-2.4,4.6-4,5.8c-1.6,1.1-3.5,1.7-5.7,1.7c-1.3,0-2.5-0.2-3.7-0.6
		c-1.2-0.4-2.2-1-3-1.7l2.4-4.3c0.6,0.5,1.2,1,2,1.3c0.8,0.3,1.5,0.5,2.3,0.5c1,0,1.9-0.3,2.6-0.8s1.3-1.4,1.9-2.7l0.4-1l-11-25.2
		h6.1l7.9,18.6l7.9-18.6H188.3z"/>
	<path class="st2" d="M202.8,254.1h-4.6v10.1h-5.9v-25.1h5.9v10.2h4.7l7.4-10.2h6.3l-9.1,12.1l9.7,13h-6.9L202.8,254.1z"/>
	<path class="st2" d="M248.9,259.2V270h-5.5v-5.8h-22v-25.1h5.9v20.1h12v-20.1h5.9v20.1H248.9z"/>
	<path class="st2" d="M254.2,239.1h5.9v16.5l13.9-16.5h5.4v25.1h-5.9v-16.5l-13.8,16.5h-5.4V239.1z"/>
	<path class="st2" d="M308.3,239.1v25.1h-5.3v-7.6h-6.6l-5.1,7.6H285l5.9-8.4c-1.8-0.6-3.2-1.6-4.2-2.9c-1-1.3-1.4-2.9-1.4-4.8
		c0-2.9,1-5.1,3.1-6.7c2-1.6,4.8-2.4,8.4-2.4H308.3z M291.3,248.3c0,2.8,1.8,4.2,5.5,4.2h6.3V244H297
		C293.2,244,291.3,245.5,291.3,248.3z"/>
</g>
<g>
	<path class="st2" d="M194.9,291.7h-0.1l-7.7,4.1l-1.2-4.6l9.7-5.2h5.1v44.2h-5.8V291.7z"/>
	<path class="st2" d="M182,426.3v-3.7l4.7-4.6c11.3-10.7,16.4-16.5,16.5-23.1c0-4.5-2.2-8.6-8.8-8.6c-4,0-7.3,2-9.4,3.7l-1.9-4.2
		c3.1-2.6,7.4-4.5,12.5-4.5c9.5,0,13.5,6.5,13.5,12.9c0,8.2-5.9,14.8-15.2,23.7l-3.5,3.3v0.1h19.9v5H182z"/>
	<path class="st2" d="M183.4,521.4c1.7,1.1,5.6,2.8,9.8,2.8c7.7,0,10.1-4.9,10-8.6c-0.1-6.2-5.6-8.8-11.4-8.8h-3.3v-4.5h3.3
		c4.4,0,9.9-2.2,9.9-7.5c0-3.5-2.2-6.7-7.8-6.7c-3.5,0-6.9,1.6-8.8,2.9l-1.6-4.4c2.3-1.7,6.8-3.4,11.6-3.4c8.7,0,12.6,5.2,12.6,10.5
		c0,4.6-2.7,8.4-8.2,10.4v0.1c5.4,1.1,9.9,5.2,9.9,11.4c0,7.1-5.5,13.3-16.1,13.3c-5,0-9.3-1.6-11.5-3L183.4,521.4z"/>
	<path class="st2" d="M200.4,629.3v-12h-20.5v-3.9l19.7-28.2h6.5v27.5h6.2v4.7h-6.2v12H200.4z M200.4,612.6v-14.8
		c0-2.3,0.1-4.6,0.2-6.9h-0.2c-1.4,2.6-2.4,4.5-3.7,6.5l-10.8,15v0.1H200.4z"/>
	<path class="st2" d="M208.3,686.1h-16.9l-1.7,11.4c1-0.1,2-0.3,3.6-0.3c3.4,0,6.8,0.7,9.5,2.4c3.5,2,6.3,5.8,6.3,11.4
		c0,8.6-6.9,15.1-16.5,15.1c-4.8,0-8.9-1.4-11-2.7l1.5-4.6c1.8,1.1,5.4,2.4,9.5,2.4c5.6,0,10.5-3.7,10.5-9.6
		c-0.1-5.7-3.9-9.8-12.7-9.8c-2.5,0-4.5,0.3-6.1,0.5l2.9-21.2h21.1V686.1z"/>
</g>
<g>
	<g>
		<g>
			<polygon class="st5" points="363.5,789.1 987.1,789.1 984.3,782.5 1007.5,792.3 984.3,802.1 987.1,795.5 363.5,795.5 			"/>
		</g>
	</g>
</g>
<g>
	<g>
		<path class="st2" d="M625.6,825.7c1.3,1.6,1.9,3.6,1.9,6c0,3.4-1.2,6-3.7,7.9c-2.5,1.9-6.1,2.8-10.8,2.8h-18.3v-38.5h17.2
			c4.3,0,7.7,0.9,10.1,2.6c2.4,1.7,3.6,4.2,3.6,7.3c0,2-0.5,3.8-1.5,5.2c-1,1.5-2.4,2.6-4.2,3.4C622.5,823,624.3,824.1,625.6,825.7z
			 M601.8,820.3h9.6c2.3,0,4.1-0.5,5.3-1.4c1.2-0.9,1.8-2.3,1.8-4.1c0-1.8-0.6-3.2-1.8-4.1c-1.2-0.9-3-1.4-5.3-1.4h-9.6V820.3z
			 M620.4,831.1c0-3.7-2.5-5.6-7.6-5.6h-11v11.3h11C617.8,836.9,620.4,835,620.4,831.1z"/>
		<path class="st2" d="M658.9,814.5c2.3,1.2,4,3,5.3,5.3c1.3,2.3,1.9,4.9,1.9,7.9c0,3-0.6,5.6-1.9,7.9c-1.3,2.3-3.1,4.1-5.3,5.3
			c-2.3,1.2-4.8,1.9-7.7,1.9c-4,0-7.1-1.3-9.4-4V853h-6.9v-40h6.5v3.9c1.1-1.4,2.5-2.4,4.2-3.1c1.7-0.7,3.5-1,5.5-1
			C654.1,812.7,656.6,813.3,658.9,814.5z M656.7,834.3c1.6-1.7,2.4-3.9,2.4-6.7s-0.8-5-2.4-6.7c-1.6-1.7-3.7-2.5-6.2-2.5
			c-1.6,0-3.1,0.4-4.5,1.1c-1.3,0.8-2.4,1.8-3.1,3.2c-0.8,1.4-1.2,3-1.2,4.8s0.4,3.4,1.2,4.8s1.8,2.5,3.1,3.2
			c1.3,0.8,2.8,1.1,4.5,1.1C653,836.9,655,836,656.7,834.3z"/>
		<path class="st2" d="M700.3,829.9h-23c0.4,2.2,1.5,3.9,3.2,5.1c1.7,1.3,3.8,1.9,6.4,1.9c3.2,0,5.9-1.1,8-3.2l3.7,4.2
			c-1.3,1.6-3,2.8-5,3.6c-2,0.8-4.3,1.2-6.8,1.2c-3.2,0-6.1-0.6-8.5-1.9c-2.5-1.3-4.4-3.1-5.7-5.4c-1.3-2.3-2-4.9-2-7.8
			c0-2.9,0.7-5.4,2-7.7c1.3-2.3,3.1-4.1,5.4-5.4c2.3-1.3,4.9-1.9,7.8-1.9c2.9,0,5.4,0.6,7.7,1.9c2.3,1.3,4,3,5.3,5.3
			c1.3,2.3,1.9,4.9,1.9,7.9C700.4,828.3,700.4,829,700.3,829.9z M680,820.1c-1.5,1.3-2.4,3-2.8,5.2h16.7c-0.3-2.1-1.2-3.9-2.7-5.2
			c-1.5-1.3-3.4-2-5.6-2C683.4,818.2,681.5,818.8,680,820.1z"/>
		<path class="st2" d="M736.8,842.4v-19.5l-9.9,16.4h-3l-9.7-16.4v19.5H708V813h7.2l10.4,18.4l10.9-18.4h6.4l0.1,29.4H736.8z"/>
		<path class="st2" d="M777.1,813v29.4h-6.2v-8.9h-7.8l-6,8.9h-7.4l6.9-9.8c-2.1-0.7-3.7-1.9-4.9-3.4c-1.1-1.5-1.7-3.4-1.7-5.6
			c0-3.4,1.2-6,3.6-7.8c2.4-1.8,5.7-2.8,9.8-2.8H777.1z M757.2,823.8c0,3.3,2.1,5,6.4,5h7.3v-10h-7.1
			C759.4,818.8,757.2,820.4,757.2,823.8z"/>
	</g>
</g>
<g>
	<g>
		<g>
			<polygon class="st5" points="1270,794.1 1734.6,794.1 1731.8,787.5 1755,797.3 1731.8,807.1 1734.6,800.5 1270,800.5 			"/>
		</g>
	</g>
</g>
<g>
	<g>
		<path class="st2" d="M1455.9,830.7c1.3,1.6,1.9,3.6,1.9,6c0,3.4-1.2,6-3.7,7.9c-2.5,1.9-6.1,2.8-10.8,2.8H1425v-38.5h17.2
			c4.3,0,7.7,0.9,10.1,2.6c2.4,1.7,3.6,4.2,3.6,7.3c0,2-0.5,3.8-1.5,5.2c-1,1.5-2.4,2.6-4.2,3.4
			C1452.7,828,1454.6,829.1,1455.9,830.7z M1432,825.3h9.6c2.3,0,4.1-0.5,5.3-1.4c1.2-0.9,1.8-2.3,1.8-4.1c0-1.8-0.6-3.2-1.8-4.1
			c-1.2-0.9-3-1.4-5.3-1.4h-9.6V825.3z M1450.6,836.1c0-3.7-2.5-5.6-7.6-5.6h-11v11.3h11C1448.1,841.9,1450.6,840,1450.6,836.1z"/>
		<path class="st2" d="M1489.1,819.5c2.3,1.2,4,3,5.3,5.3s1.9,4.9,1.9,7.9c0,3-0.6,5.6-1.9,7.9c-1.3,2.3-3.1,4.1-5.3,5.3
			c-2.3,1.2-4.8,1.9-7.7,1.9c-4,0-7.1-1.3-9.4-4V858h-6.9v-40h6.5v3.9c1.1-1.4,2.5-2.4,4.2-3.1c1.7-0.7,3.5-1,5.5-1
			C1484.3,817.7,1486.9,818.3,1489.1,819.5z M1486.9,839.3c1.6-1.7,2.4-3.9,2.4-6.7s-0.8-5-2.4-6.7s-3.7-2.5-6.2-2.5
			c-1.7,0-3.1,0.4-4.5,1.1c-1.3,0.8-2.4,1.8-3.1,3.2c-0.8,1.4-1.2,3-1.2,4.8s0.4,3.4,1.2,4.8s1.8,2.5,3.1,3.2
			c1.3,0.8,2.8,1.1,4.5,1.1C1483.2,841.9,1485.3,841,1486.9,839.3z"/>
		<path class="st2" d="M1530.6,834.9h-23c0.4,2.2,1.5,3.9,3.2,5.1c1.7,1.3,3.8,1.9,6.4,1.9c3.2,0,5.9-1.1,8-3.2l3.7,4.2
			c-1.3,1.6-3,2.8-5,3.6c-2,0.8-4.3,1.2-6.8,1.2c-3.2,0-6.1-0.6-8.5-1.9c-2.5-1.3-4.4-3.1-5.7-5.4c-1.3-2.3-2-4.9-2-7.8
			c0-2.9,0.7-5.4,2-7.7c1.3-2.3,3.1-4.1,5.4-5.4c2.3-1.3,4.9-1.9,7.8-1.9c2.9,0,5.4,0.6,7.7,1.9c2.3,1.3,4,3,5.3,5.3
			c1.3,2.3,1.9,4.9,1.9,7.9C1530.7,833.3,1530.6,834,1530.6,834.9z M1510.2,825.1c-1.5,1.3-2.4,3-2.8,5.2h16.7
			c-0.3-2.1-1.2-3.9-2.7-5.2c-1.5-1.3-3.4-2-5.6-2C1513.6,823.2,1511.8,823.8,1510.2,825.1z"/>
		<path class="st2" d="M1567.1,847.4v-19.5l-9.9,16.4h-3l-9.7-16.4v19.5h-6.3V818h7.2l10.5,18.4l10.9-18.4h6.4l0.1,29.4H1567.1z"/>
		<path class="st2" d="M1607.4,818v29.4h-6.2v-8.9h-7.8l-6,8.9h-7.4l6.9-9.8c-2.1-0.7-3.7-1.9-4.9-3.4c-1.1-1.5-1.7-3.4-1.7-5.6
			c0-3.4,1.2-6,3.6-7.8c2.4-1.8,5.7-2.8,9.8-2.8H1607.4z M1587.4,828.8c0,3.3,2.1,5,6.4,5h7.3v-10h-7.1
			C1589.7,823.8,1587.4,825.4,1587.4,828.8z"/>
	</g>
</g>
<g>
	<path class="st2" d="M704.4,1046.7c0.9,1.2,1.4,2.6,1.4,4.3c0,2.5-0.9,4.4-2.7,5.7s-4.4,2-7.9,2H682v-28h12.5
		c3.1,0,5.6,0.6,7.4,1.9c1.8,1.3,2.6,3,2.6,5.3c0,1.5-0.4,2.7-1.1,3.8c-0.7,1.1-1.7,1.9-3.1,2.4
		C702.1,1044.8,703.5,1045.6,704.4,1046.7z M687.1,1042.8h7c1.7,0,3-0.3,3.8-1c0.9-0.7,1.3-1.7,1.3-3s-0.4-2.3-1.3-3
		c-0.9-0.7-2.2-1-3.8-1h-7V1042.8z M700.6,1050.7c0-2.7-1.8-4.1-5.5-4.1h-8v8.2h8C698.8,1054.8,700.6,1053.5,700.6,1050.7z"/>
	<path class="st2" d="M727.1,1049.5c0.7,0.8,1.1,1.8,1.1,3c0,1.3-0.4,2.5-1.3,3.5s-2.1,1.8-3.6,2.3c-1.5,0.6-3.3,0.8-5.3,0.8
		c-1.7,0-3.3-0.2-4.8-0.6c-1.6-0.4-3-0.9-4.3-1.7l1.4-3.7c1,0.6,2.2,1,3.5,1.4c1.3,0.3,2.6,0.5,3.9,0.5c1.7,0,3-0.3,3.9-0.8
		c0.9-0.5,1.4-1.2,1.4-2.1c0-0.8-0.4-1.5-1.1-1.9s-1.8-0.7-3.1-0.7h-4.2v-3.4h3.8c1.3,0,2.2-0.2,2.9-0.6c0.7-0.4,1.1-1,1.1-1.8
		s-0.4-1.4-1.3-1.8c-0.9-0.5-2-0.7-3.5-0.7c-2.1,0-4.4,0.5-6.8,1.6l-1.3-3.7c2.8-1.3,5.6-2,8.5-2c1.8,0,3.4,0.2,4.9,0.7
		c1.4,0.5,2.6,1.2,3.4,2.1c0.8,0.9,1.2,1.9,1.2,3.1c0,1-0.3,2-1,2.8c-0.6,0.8-1.5,1.4-2.6,1.9
		C725.3,1048.1,726.3,1048.7,727.1,1049.5z"/>
	<path class="st2" d="M748.5,1039.5c1.7,1.5,2.5,3.8,2.5,6.8v12.5h-4.7v-2.6c-0.6,0.9-1.5,1.6-2.6,2.1c-1.1,0.5-2.5,0.7-4.1,0.7
		c-1.6,0-3-0.3-4.2-0.8c-1.2-0.5-2.1-1.3-2.8-2.3c-0.7-1-1-2.1-1-3.3c0-1.9,0.7-3.5,2.1-4.6c1.4-1.2,3.7-1.7,6.7-1.7h5.5v-0.3
		c0-1.5-0.4-2.6-1.3-3.4c-0.9-0.8-2.2-1.2-4-1.2c-1.2,0-2.4,0.2-3.5,0.6c-1.2,0.4-2.1,0.9-2.9,1.6l-2-3.6c1.1-0.9,2.5-1.5,4-2
		c1.6-0.5,3.2-0.7,5-0.7C744.5,1037.2,746.9,1038,748.5,1039.5z M744,1054.6c1-0.6,1.7-1.4,2.1-2.5v-2.5h-5.2
		c-2.9,0-4.3,0.9-4.3,2.8c0,0.9,0.4,1.6,1.1,2.2c0.7,0.5,1.7,0.8,3,0.8C741.9,1055.5,743,1055.2,744,1054.6z"/>
	<path class="st2" d="M757.2,1037.5h5v14.1l11.8-14.1h4.6v21.4h-5v-14.1l-11.8,14.1h-4.6V1037.5z"/>
	<path class="st2" d="M806.3,1058.8v-14.2l-7.2,11.9H797l-7.1-12v14.2h-4.6v-21.4h5.2l7.6,13.4l8-13.4h4.7l0,21.4H806.3z"/>
	<path class="st2" d="M821.2,1057.7c-1.7-0.9-3.1-2.2-4.1-3.9c-1-1.7-1.5-3.6-1.5-5.7s0.5-4,1.5-5.6c1-1.7,2.3-2.9,4.1-3.9
		c1.7-0.9,3.7-1.4,5.8-1.4c2.2,0,4.1,0.5,5.9,1.4c1.7,0.9,3.1,2.2,4.1,3.9c1,1.7,1.5,3.5,1.5,5.6s-0.5,4-1.5,5.7
		c-1,1.7-2.3,3-4.1,3.9c-1.7,0.9-3.7,1.4-5.9,1.4C824.9,1059.1,823,1058.7,821.2,1057.7z M831.6,1053c1.2-1.2,1.8-2.8,1.8-4.8
		s-0.6-3.6-1.8-4.8c-1.2-1.2-2.7-1.8-4.6-1.8s-3.4,0.6-4.5,1.8s-1.8,2.8-1.8,4.8s0.6,3.6,1.8,4.8s2.7,1.8,4.5,1.8
		S830.4,1054.2,831.6,1053z"/>
	<path class="st2" d="M866,1054.6v9h-4.7v-4.8h-16.5v4.8h-4.6v-9h1c1.4-0.1,2.3-0.9,2.8-2.6c0.5-1.7,0.8-4.1,1-7.2l0.3-7.3h17.6
		v17.1H866z M848.9,1051.2c-0.3,1.5-0.8,2.7-1.6,3.4h10.5v-12.9h-8.2l-0.1,3.4C849.4,1047.6,849.2,1049.6,848.9,1051.2z"/>
	<path class="st2" d="M890.4,1049.8h-16.8c0.3,1.6,1.1,2.8,2.3,3.7c1.2,0.9,2.8,1.4,4.6,1.4c2.3,0,4.3-0.8,5.8-2.3l2.7,3.1
		c-1,1.1-2.2,2-3.6,2.6c-1.5,0.6-3.1,0.9-5,0.9c-2.3,0-4.4-0.5-6.2-1.4c-1.8-0.9-3.2-2.2-4.1-3.9c-1-1.7-1.5-3.6-1.5-5.7
		c0-2.1,0.5-4,1.4-5.6c0.9-1.7,2.3-3,3.9-3.9c1.7-0.9,3.6-1.4,5.7-1.4c2.1,0,3.9,0.5,5.6,1.4c1.6,0.9,2.9,2.2,3.8,3.9
		c0.9,1.7,1.4,3.6,1.4,5.8C890.4,1048.6,890.4,1049.1,890.4,1049.8z M875.6,1042.7c-1.1,0.9-1.8,2.2-2,3.8h12.1
		c-0.2-1.5-0.9-2.8-2-3.8s-2.5-1.4-4.1-1.4C878,1041.2,876.7,1041.7,875.6,1042.7z"/>
	<path class="st2" d="M895.9,1037.5h5v14.1l11.8-14.1h4.6v21.4h-5v-14.1l-11.8,14.1h-4.6V1037.5z M901.3,1033.5
		c-1.1-1-1.7-2.5-1.7-4.4h3.3c0,1,0.3,1.7,0.9,2.3c0.6,0.6,1.4,0.8,2.4,0.8c1,0,1.8-0.3,2.4-0.8c0.6-0.6,0.9-1.3,0.9-2.3h3.4
		c0,1.9-0.6,3.4-1.8,4.4s-2.8,1.5-5,1.5S902.5,1034.5,901.3,1033.5z"/>
	<path class="st2" d="M927.8,1057.7c-1.8-0.9-3.1-2.2-4.1-3.9c-1-1.7-1.5-3.6-1.5-5.7s0.5-4,1.5-5.6c1-1.7,2.4-2.9,4.1-3.9
		c1.7-0.9,3.7-1.4,6-1.4c2.1,0,4,0.4,5.5,1.3c1.6,0.9,2.8,2.1,3.6,3.7l-3.8,2.2c-0.6-1-1.4-1.7-2.3-2.2c-0.9-0.5-1.9-0.7-3-0.7
		c-1.9,0-3.4,0.6-4.6,1.8c-1.2,1.2-1.8,2.8-1.8,4.9s0.6,3.6,1.8,4.9c1.2,1.2,2.8,1.8,4.7,1.8c1.1,0,2.1-0.2,3-0.7
		c0.9-0.5,1.7-1.2,2.3-2.2l3.8,2.2c-0.8,1.6-2,2.8-3.6,3.7c-1.6,0.9-3.4,1.3-5.5,1.3C931.5,1059.1,929.5,1058.7,927.8,1057.7z"/>
	<path class="st2" d="M964,1041.7h-7.5v17.1h-5v-17.1H944v-4.2h20V1041.7z"/>
	<path class="st2" d="M987,1052.8c0,1.9-0.7,3.4-2.2,4.4c-1.4,1-3.6,1.6-6.4,1.6h-10.9v-21.4H978c2.6,0,4.7,0.5,6.1,1.4
		s2.2,2.3,2.2,4.1c0,1.1-0.3,2-0.9,2.8s-1.4,1.4-2.4,1.9C985.7,1048.5,987,1050.2,987,1052.8z M972.4,1046.4h5.2
		c2.6,0,3.9-0.9,3.9-2.7c0-1.7-1.3-2.6-3.9-2.6h-5.2V1046.4z M982.2,1052.5c0-0.9-0.3-1.6-1-2.1s-1.6-0.7-3-0.7h-5.9v5.5h5.7
		C980.8,1055.2,982.2,1054.3,982.2,1052.5z"/>
	<path class="st2" d="M992.4,1037.5h5v14.1l11.8-14.1h4.6v21.4h-5v-14.1l-11.8,14.1h-4.6V1037.5z"/>
	<path class="st2" d="M1040.4,1049.8h-16.8c0.3,1.6,1.1,2.8,2.3,3.7c1.2,0.9,2.8,1.4,4.6,1.4c2.3,0,4.3-0.8,5.8-2.3l2.7,3.1
		c-1,1.1-2.2,2-3.6,2.6c-1.5,0.6-3.1,0.9-5,0.9c-2.3,0-4.4-0.5-6.2-1.4c-1.8-0.9-3.2-2.2-4.1-3.9c-1-1.7-1.5-3.6-1.5-5.7
		c0-2.1,0.5-4,1.4-5.6c0.9-1.7,2.3-3,3.9-3.9c1.7-0.9,3.6-1.4,5.7-1.4c2.1,0,3.9,0.5,5.6,1.4c1.6,0.9,2.9,2.2,3.8,3.9
		c0.9,1.7,1.4,3.6,1.4,5.8C1040.4,1048.6,1040.4,1049.1,1040.4,1049.8z M1025.6,1042.7c-1.1,0.9-1.8,2.2-2,3.8h12.1
		c-0.2-1.5-0.9-2.8-2-3.8s-2.5-1.4-4.1-1.4C1028,1041.2,1026.7,1041.7,1025.6,1042.7z"/>
	<path class="st2" d="M1060.7,1057.7c-1.8-0.9-3.1-2.2-4.1-3.9c-1-1.7-1.5-3.6-1.5-5.7s0.5-4,1.5-5.6c1-1.7,2.4-2.9,4.1-3.9
		c1.7-0.9,3.7-1.4,6-1.4c2.1,0,4,0.4,5.5,1.3c1.6,0.9,2.8,2.1,3.6,3.7l-3.8,2.2c-0.6-1-1.4-1.7-2.3-2.2c-0.9-0.5-1.9-0.7-3-0.7
		c-1.9,0-3.4,0.6-4.6,1.8c-1.2,1.2-1.8,2.8-1.8,4.9s0.6,3.6,1.8,4.9c1.2,1.2,2.8,1.8,4.7,1.8c1.1,0,2.1-0.2,3-0.7
		c0.9-0.5,1.7-1.2,2.3-2.2l3.8,2.2c-0.8,1.6-2,2.8-3.6,3.7c-1.6,0.9-3.4,1.3-5.5,1.3C1064.5,1059.1,1062.5,1058.7,1060.7,1057.7z"/>
	<path class="st2" d="M1114,1054.6v9h-4.7v-4.8h-16.5v4.8h-4.6v-9h1c1.4-0.1,2.3-0.9,2.8-2.6c0.5-1.7,0.8-4.1,1-7.2l0.3-7.3h17.6
		v17.1H1114z M1097,1051.2c-0.3,1.5-0.8,2.7-1.6,3.4h10.5v-12.9h-8.2l-0.1,3.4C1097.4,1047.6,1097.2,1049.6,1097,1051.2z"/>
	<path class="st2" d="M1133.7,1039.5c1.7,1.5,2.5,3.8,2.5,6.8v12.5h-4.7v-2.6c-0.6,0.9-1.5,1.6-2.6,2.1c-1.1,0.5-2.5,0.7-4.1,0.7
		c-1.6,0-3-0.3-4.2-0.8c-1.2-0.5-2.1-1.3-2.8-2.3c-0.7-1-1-2.1-1-3.3c0-1.9,0.7-3.5,2.1-4.6c1.4-1.2,3.7-1.7,6.7-1.7h5.5v-0.3
		c0-1.5-0.4-2.6-1.3-3.4c-0.9-0.8-2.2-1.2-4-1.2c-1.2,0-2.4,0.2-3.5,0.6c-1.2,0.4-2.1,0.9-2.9,1.6l-2-3.6c1.1-0.9,2.5-1.5,4-2
		c1.6-0.5,3.2-0.7,5-0.7C1129.6,1037.2,1132,1038,1133.7,1039.5z M1129.1,1054.6c1-0.6,1.7-1.4,2.1-2.5v-2.5h-5.2
		c-2.9,0-4.3,0.9-4.3,2.8c0,0.9,0.4,1.6,1.1,2.2c0.7,0.5,1.7,0.8,3,0.8C1127,1055.5,1128.2,1055.2,1129.1,1054.6z"/>
	<path class="st2" d="M1142.4,1037.5h5v8.7h10.8v-8.7h5v21.4h-5v-8.4h-10.8v8.4h-5V1037.5z"/>
	<path class="st2" d="M1169.9,1037.5h5v8.7h10.8v-8.7h5v21.4h-5v-8.4h-10.8v8.4h-5V1037.5z"/>
	<path class="st2" d="M1214,1046.4c1.4,1.2,2.2,3,2.2,5.2c0,2.3-0.8,4.2-2.4,5.4c-1.6,1.3-3.8,1.9-6.7,1.9l-9.7,0v-21.4h5v7l5.4,0
		C1210.5,1044.5,1212.6,1045.1,1214,1046.4z M1210,1054.3c0.8-0.6,1.2-1.6,1.2-2.8c0-1.2-0.4-2.1-1.1-2.6c-0.7-0.6-1.9-0.9-3.4-0.9
		l-4.2,0v7.2l4.2,0C1208.1,1055.2,1209.2,1054.9,1210,1054.3z M1218.9,1037.5h5v21.4h-5V1037.5z"/>
	<path class="st2" d="M1251.6,1058.8v-14.2l-7.2,11.9h-2.2l-7.1-12v14.2h-4.6v-21.4h5.2l7.6,13.4l8-13.4h4.7l0,21.4H1251.6z"/>
	<path class="st2" d="M1262.9,1037.5h5v14.1l11.8-14.1h4.6v21.4h-5v-14.1l-11.8,14.1h-4.6V1037.5z"/>
</g>
<g>
	<path class="st2" d="M647,942h5.1v19.9l15-19.9h4.8v28h-5.1v-19.8l-15,19.8H647V942z"/>
	<path class="st2" d="M682.9,968.9c-1.8-0.9-3.1-2.2-4.1-3.9c-1-1.7-1.5-3.6-1.5-5.7s0.5-4,1.5-5.6c1-1.7,2.3-2.9,4.1-3.9
		c1.7-0.9,3.7-1.4,6-1.4c2.1,0,3.9,0.4,5.5,1.3c1.6,0.9,2.8,2.1,3.6,3.7l-3.8,2.2c-0.6-1-1.4-1.7-2.3-2.2c-0.9-0.5-1.9-0.7-3-0.7
		c-1.9,0-3.4,0.6-4.6,1.8c-1.2,1.2-1.8,2.8-1.8,4.9s0.6,3.6,1.8,4.9c1.2,1.2,2.8,1.8,4.7,1.8c1.1,0,2.1-0.2,3-0.7
		c0.9-0.5,1.7-1.2,2.3-2.2l3.8,2.2c-0.8,1.6-2,2.8-3.6,3.7c-1.6,0.9-3.4,1.3-5.5,1.3C686.7,970.3,684.7,969.8,682.9,968.9z"/>
	<path class="st2" d="M722.8,948.6V970h-5v-17.1h-10.5V970h-5v-21.4H722.8z"/>
	<path class="st2" d="M733.3,968.9c-1.7-0.9-3.1-2.2-4.1-3.9c-1-1.7-1.5-3.6-1.5-5.7s0.5-4,1.5-5.6c1-1.7,2.3-2.9,4.1-3.9
		c1.7-0.9,3.7-1.4,5.8-1.4c2.2,0,4.1,0.5,5.9,1.4c1.7,0.9,3.1,2.2,4.1,3.9c1,1.7,1.5,3.5,1.5,5.6s-0.5,4-1.5,5.7
		c-1,1.7-2.3,3-4.1,3.9c-1.7,0.9-3.7,1.4-5.9,1.4C736.9,970.3,735,969.8,733.3,968.9z M743.7,964.1c1.2-1.2,1.8-2.8,1.8-4.8
		s-0.6-3.6-1.8-4.8s-2.7-1.8-4.6-1.8s-3.3,0.6-4.5,1.8c-1.2,1.2-1.8,2.8-1.8,4.8s0.6,3.6,1.8,4.8c1.2,1.2,2.7,1.8,4.5,1.8
		S742.5,965.4,743.7,964.1z"/>
	<path class="st2" d="M774.5,948.6V970h-5v-17.1h-8l-0.2,4.2c-0.1,2.8-0.4,5.2-0.8,7.1c-0.4,1.9-1,3.4-2,4.5s-2.2,1.7-3.8,1.7
		c-0.7,0-1.7-0.1-2.8-0.4l0.2-4.2c0.4,0.1,0.7,0.1,1,0.1c1,0,1.8-0.4,2.3-1.2s0.8-1.8,1-2.9c0.1-1.1,0.3-2.8,0.4-4.9l0.4-8.2H774.5z
		"/>
	<path class="st2" d="M781.2,948.6h5v8.7h10.7v-8.7h5V970h-5v-8.4h-10.7v8.4h-5V948.6z"/>
	<path class="st2" d="M828.5,960.9h-16.7c0.3,1.6,1.1,2.8,2.3,3.7c1.2,0.9,2.8,1.4,4.6,1.4c2.3,0,4.3-0.8,5.8-2.3l2.7,3.1
		c-1,1.1-2.2,2-3.6,2.6c-1.5,0.6-3.1,0.9-5,0.9c-2.3,0-4.4-0.5-6.2-1.4c-1.8-0.9-3.2-2.2-4.1-3.9c-1-1.7-1.5-3.6-1.5-5.7
		c0-2.1,0.5-4,1.4-5.6c0.9-1.7,2.3-3,3.9-3.9c1.7-0.9,3.6-1.4,5.7-1.4c2.1,0,3.9,0.5,5.6,1.4c1.6,0.9,2.9,2.2,3.8,3.9
		c0.9,1.7,1.4,3.6,1.4,5.8C828.6,959.8,828.6,960.3,828.5,960.9z M813.8,953.8c-1.1,0.9-1.8,2.2-2,3.8h12.1c-0.2-1.5-0.9-2.8-2-3.8
		s-2.5-1.4-4.1-1.4C816.2,952.4,814.9,952.9,813.8,953.8z"/>
	<path class="st2" d="M834.1,948.6h5v8.7h10.7v-8.7h5V970h-5v-8.4h-10.7v8.4h-5V948.6z"/>
	<path class="st2" d="M861.5,948.6h5v14.1l11.8-14.1h4.6V970h-5v-14.1L866.1,970h-4.6V948.6z"/>
	<path class="st2" d="M909.4,960.9h-16.7c0.3,1.6,1.1,2.8,2.3,3.7c1.2,0.9,2.8,1.4,4.6,1.4c2.3,0,4.3-0.8,5.8-2.3l2.7,3.1
		c-1,1.1-2.2,2-3.6,2.6c-1.5,0.6-3.1,0.9-5,0.9c-2.3,0-4.4-0.5-6.2-1.4c-1.8-0.9-3.2-2.2-4.1-3.9c-1-1.7-1.5-3.6-1.5-5.7
		c0-2.1,0.5-4,1.4-5.6c0.9-1.7,2.3-3,3.9-3.9c1.7-0.9,3.6-1.4,5.7-1.4c2.1,0,3.9,0.5,5.6,1.4c1.6,0.9,2.9,2.2,3.8,3.9
		c0.9,1.7,1.4,3.6,1.4,5.8C909.5,959.8,909.5,960.3,909.4,960.9z M894.7,953.8c-1.1,0.9-1.8,2.2-2,3.8h12.1c-0.2-1.5-0.9-2.8-2-3.8
		s-2.5-1.4-4.1-1.4C897.1,952.4,895.8,952.9,894.7,953.8z"/>
</g>
<g>
	<path class="st2" d="M1286.6,92.3c1.6,2,2.5,4.6,2.5,7.6c0,4.3-1.6,7.6-4.8,10c-3.2,2.4-7.8,3.6-13.8,3.6h-23.2v-49h21.9
		c5.5,0,9.8,1.1,12.9,3.3c3.1,2.2,4.6,5.3,4.6,9.3c0,2.6-0.6,4.8-1.9,6.6c-1.2,1.9-3,3.3-5.4,4.3C1282.6,88.8,1285,90.3,1286.6,92.3
		z M1256.2,85.4h12.2c2.9,0,5.2-0.6,6.7-1.8c1.5-1.2,2.3-2.9,2.3-5.2c0-2.3-0.8-4-2.3-5.2s-3.8-1.8-6.7-1.8h-12.2V85.4z
		 M1279.9,99.2c0-4.8-3.2-7.1-9.7-7.1h-14v14.4h14C1276.7,106.5,1279.9,104,1279.9,99.2z"/>
	<path class="st2" d="M1298.5,76.1h8.8v15.2h18.8V76.1h8.8v37.4h-8.8V98.7h-18.8v14.8h-8.8V76.1z"/>
	<path class="st2" d="M1381.4,97.6h-29.3c0.5,2.8,1.9,4.9,4,6.5c2.2,1.6,4.9,2.4,8.1,2.4c4.1,0,7.5-1.4,10.2-4.1l4.7,5.4
		c-1.7,2-3.8,3.5-6.4,4.6c-2.6,1-5.5,1.5-8.7,1.5c-4.1,0-7.7-0.8-10.8-2.5c-3.1-1.6-5.5-3.9-7.2-6.8c-1.7-2.9-2.6-6.2-2.6-9.9
		c0-3.6,0.8-6.9,2.5-9.8c1.7-2.9,4-5.2,6.9-6.8c2.9-1.6,6.3-2.4,9.9-2.4c3.6,0,6.9,0.8,9.8,2.4c2.9,1.6,5.1,3.9,6.7,6.8
		c1.6,2.9,2.4,6.3,2.4,10.1C1381.5,95.6,1381.5,96.5,1381.4,97.6z M1355.5,85.2c-1.9,1.7-3.1,3.9-3.5,6.6h21.2
		c-0.4-2.7-1.5-4.9-3.4-6.6c-1.9-1.7-4.3-2.5-7.1-2.5C1359.8,82.7,1357.5,83.5,1355.5,85.2z"/>
	<path class="st2" d="M1397.6,111.5c-3-1.6-5.4-3.9-7.1-6.8c-1.7-2.9-2.6-6.2-2.6-9.9c0-3.7,0.9-7,2.6-9.9c1.7-2.9,4.1-5.2,7.1-6.8
		c3-1.6,6.4-2.4,10.2-2.4c3.8,0,7.3,0.8,10.3,2.4c3,1.6,5.4,3.9,7.1,6.8c1.7,2.9,2.6,6.2,2.6,9.9c0,3.7-0.9,7-2.6,9.9
		c-1.7,2.9-4.1,5.2-7.1,6.8c-3,1.6-6.5,2.5-10.3,2.5C1404,114,1400.6,113.1,1397.6,111.5z M1415.8,103.2c2.1-2.1,3.2-5,3.2-8.5
		s-1-6.3-3.2-8.5c-2.1-2.1-4.8-3.2-8-3.2s-5.9,1.1-7.9,3.2c-2.1,2.1-3.1,5-3.1,8.5s1,6.3,3.1,8.5c2.1,2.1,4.7,3.2,7.9,3.2
		S1413.7,105.4,1415.8,103.2z"/>
	<path class="st2" d="M1468.1,76.1v37.4h-8.8V99c-3.6,1.7-7.3,2.6-11.3,2.6c-4.8,0-8.5-1.1-11.1-3.3c-2.6-2.2-3.8-5.6-3.8-10.2v-12
		h8.8v11.4c0,2.4,0.7,4.2,2.1,5.3c1.4,1.2,3.4,1.8,6,1.8c3.3,0,6.4-0.7,9.4-2.1V76.1H1468.1z"/>
	<path class="st2" d="M1514.7,97.6h-29.3c0.5,2.8,1.9,4.9,4,6.5c2.2,1.6,4.9,2.4,8.1,2.4c4.1,0,7.5-1.4,10.2-4.1l4.7,5.4
		c-1.7,2-3.8,3.5-6.4,4.6c-2.6,1-5.5,1.5-8.7,1.5c-4.1,0-7.7-0.8-10.8-2.5c-3.1-1.6-5.5-3.9-7.2-6.8c-1.7-2.9-2.6-6.2-2.6-9.9
		c0-3.6,0.8-6.9,2.5-9.8c1.7-2.9,4-5.2,6.9-6.8c2.9-1.6,6.3-2.4,9.9-2.4c3.6,0,6.9,0.8,9.8,2.4c2.9,1.6,5.1,3.9,6.7,6.8
		c1.6,2.9,2.4,6.3,2.4,10.1C1514.8,95.6,1514.8,96.5,1514.7,97.6z M1488.8,85.2c-1.9,1.7-3.1,3.9-3.5,6.6h21.2
		c-0.4-2.7-1.5-4.9-3.4-6.6c-1.9-1.7-4.3-2.5-7.1-2.5C1493.1,82.7,1490.8,83.5,1488.8,85.2z"/>
	<path class="st2" d="M1554.9,78c2.9,1.6,5.1,3.8,6.8,6.7c1.6,2.9,2.5,6.2,2.5,10c0,3.8-0.8,7.1-2.5,10c-1.6,2.9-3.9,5.2-6.8,6.8
		c-2.9,1.6-6.1,2.4-9.8,2.4c-5,0-9-1.7-12-5V127h-8.8v-51h8.3V81c1.4-1.8,3.2-3.1,5.4-4c2.1-0.9,4.5-1.3,7-1.3
		C1548.8,75.7,1552,76.5,1554.9,78z M1552.1,103.2c2.1-2.1,3.1-5,3.1-8.5s-1-6.3-3.1-8.5c-2.1-2.1-4.7-3.2-7.9-3.2
		c-2.1,0-4,0.5-5.7,1.4c-1.7,1-3,2.3-4,4.1c-1,1.8-1.5,3.8-1.5,6.2c0,2.3,0.5,4.4,1.5,6.2c1,1.8,2.3,3.1,4,4.1
		c1.7,1,3.6,1.4,5.7,1.4C1547.4,106.5,1550,105.4,1552.1,103.2z"/>
	<path class="st2" d="M1607.6,97.6h-29.3c0.5,2.8,1.9,4.9,4,6.5c2.2,1.6,4.9,2.4,8.1,2.4c4.1,0,7.5-1.4,10.2-4.1l4.7,5.4
		c-1.7,2-3.8,3.5-6.4,4.6c-2.6,1-5.5,1.5-8.7,1.5c-4.1,0-7.7-0.8-10.8-2.5c-3.1-1.6-5.5-3.9-7.2-6.8c-1.7-2.9-2.6-6.2-2.6-9.9
		c0-3.6,0.8-6.9,2.5-9.8c1.7-2.9,4-5.2,6.9-6.8c2.9-1.6,6.3-2.4,9.9-2.4c3.6,0,6.9,0.8,9.8,2.4c2.9,1.6,5.1,3.9,6.7,6.8
		c1.6,2.9,2.4,6.3,2.4,10.1C1607.8,95.6,1607.7,96.5,1607.6,97.6z M1581.8,85.2c-1.9,1.7-3.1,3.9-3.5,6.6h21.2
		c-0.4-2.7-1.5-4.9-3.4-6.6c-1.9-1.7-4.3-2.5-7.1-2.5C1586.1,82.7,1583.7,83.5,1581.8,85.2z"/>
	<path class="st2" d="M1656.8,106v15.8h-8.2v-8.3h-28.8v8.3h-8.1V106h1.8c2.4-0.1,4-1.6,4.9-4.6c0.9-3,1.4-7.2,1.7-12.6l0.5-12.8
		h30.8v30H1656.8z M1626.9,100c-0.5,2.7-1.4,4.7-2.8,6h18.4V83.5h-14.3l-0.2,6C1627.8,93.8,1627.4,97.3,1626.9,100z"/>
	<path class="st2" d="M1664.6,76.1h8.8v15.2h18.8V76.1h8.8v37.4h-8.8V98.7h-18.8v14.8h-8.8V76.1z"/>
	<path class="st2" d="M1719.2,111.5c-3-1.6-5.4-3.9-7.1-6.8c-1.7-2.9-2.6-6.2-2.6-9.9c0-3.7,0.9-7,2.6-9.9c1.7-2.9,4.1-5.2,7.1-6.8
		c3-1.6,6.4-2.4,10.2-2.4c3.8,0,7.3,0.8,10.3,2.4c3,1.6,5.4,3.9,7.1,6.8c1.7,2.9,2.6,6.2,2.6,9.9c0,3.7-0.9,7-2.6,9.9
		c-1.7,2.9-4.1,5.2-7.1,6.8c-3,1.6-6.5,2.5-10.3,2.5C1725.6,114,1722.2,113.1,1719.2,111.5z M1737.4,103.2c2.1-2.1,3.2-5,3.2-8.5
		s-1-6.3-3.2-8.5c-2.1-2.1-4.8-3.2-8-3.2s-5.9,1.1-7.9,3.2c-2.1,2.1-3.1,5-3.1,8.5s1,6.3,3.1,8.5c2.1,2.1,4.7,3.2,7.9,3.2
		S1735.3,105.4,1737.4,103.2z"/>
	<path class="st2" d="M1792.8,97.6h-29.3c0.5,2.8,1.9,4.9,4,6.5c2.2,1.6,4.9,2.4,8.1,2.4c4.1,0,7.5-1.4,10.2-4.1l4.7,5.4
		c-1.7,2-3.8,3.5-6.4,4.6c-2.6,1-5.5,1.5-8.7,1.5c-4.1,0-7.7-0.8-10.8-2.5c-3.1-1.6-5.5-3.9-7.2-6.8c-1.7-2.9-2.6-6.2-2.6-9.9
		c0-3.6,0.8-6.9,2.5-9.8c1.7-2.9,4-5.2,6.9-6.8c2.9-1.6,6.3-2.4,9.9-2.4c3.6,0,6.9,0.8,9.8,2.4c2.9,1.6,5.1,3.9,6.7,6.8
		c1.6,2.9,2.4,6.3,2.4,10.1C1792.9,95.6,1792.9,96.5,1792.8,97.6z M1766.9,85.2c-1.9,1.7-3.1,3.9-3.5,6.6h21.2
		c-0.4-2.7-1.5-4.9-3.4-6.6c-1.9-1.7-4.3-2.5-7.1-2.5C1771.2,82.7,1768.9,83.5,1766.9,85.2z"/>
	<path class="st2" d="M1293.2,160.1h8.8v24.6l20.7-24.6h8v37.4h-8.8v-24.6l-20.6,24.6h-8V160.1z"/>
	<path class="st2" d="M1348.9,195.5c-3.1-1.6-5.5-3.9-7.2-6.8c-1.7-2.9-2.6-6.2-2.6-9.9c0-3.7,0.9-7,2.6-9.9
		c1.7-2.9,4.1-5.2,7.2-6.8c3.1-1.6,6.5-2.4,10.5-2.4c3.7,0,6.9,0.7,9.7,2.2c2.8,1.5,4.9,3.6,6.3,6.4l-6.7,3.9c-1.1-1.7-2.4-3-4-3.9
		c-1.6-0.9-3.4-1.3-5.3-1.3c-3.3,0-6,1.1-8.1,3.2c-2.1,2.1-3.2,5-3.2,8.5c0,3.5,1.1,6.4,3.2,8.5c2.1,2.1,4.8,3.2,8.2,3.2
		c1.9,0,3.7-0.4,5.3-1.3c1.6-0.9,3-2.2,4-3.9l6.7,3.9c-1.4,2.8-3.6,5-6.3,6.5c-2.8,1.5-6,2.3-9.6,2.3
		C1355.4,198,1352,197.1,1348.9,195.5z"/>
	<path class="st2" d="M1418.8,160.1v37.4h-8.7v-30h-18.4v30h-8.8v-37.4H1418.8z"/>
	<path class="st2" d="M1437.1,195.5c-3-1.6-5.4-3.9-7.1-6.8c-1.7-2.9-2.6-6.2-2.6-9.9c0-3.7,0.9-7,2.6-9.9c1.7-2.9,4.1-5.2,7.1-6.8
		c3-1.6,6.4-2.4,10.2-2.4c3.8,0,7.3,0.8,10.3,2.4c3,1.6,5.4,3.9,7.1,6.8c1.7,2.9,2.6,6.2,2.6,9.9c0,3.7-0.9,7-2.6,9.9
		c-1.7,2.9-4.1,5.2-7.1,6.8c-3,1.6-6.5,2.5-10.3,2.5C1443.5,198,1440.1,197.1,1437.1,195.5z M1455.3,187.2c2.1-2.1,3.2-5,3.2-8.5
		s-1-6.3-3.2-8.5c-2.1-2.1-4.8-3.2-8-3.2s-5.9,1.1-7.9,3.2c-2.1,2.1-3.1,5-3.1,8.5s1,6.3,3.1,8.5c2.1,2.1,4.7,3.2,7.9,3.2
		S1453.2,189.4,1455.3,187.2z"/>
	<path class="st2" d="M1509.3,160.1v37.4h-8.8v-30h-14l-0.3,7.4c-0.2,4.9-0.7,9.1-1.4,12.4c-0.7,3.3-1.8,6-3.4,7.9
		c-1.6,1.9-3.8,2.9-6.6,2.9c-1.3,0-2.9-0.3-4.8-0.8l0.4-7.4c0.7,0.1,1.2,0.2,1.7,0.2c1.8,0,3.1-0.7,4-2.1c0.9-1.4,1.5-3.1,1.7-5.1
		c0.3-2,0.5-4.8,0.7-8.5l0.6-14.4H1509.3z"/>
	<path class="st2" d="M1521.1,160.1h8.8v15.2h18.8v-15.2h8.8v37.4h-8.8v-14.8h-18.8v14.8h-8.8V160.1z"/>
	<path class="st2" d="M1604,181.6h-29.3c0.5,2.8,1.9,4.9,4,6.5c2.2,1.6,4.9,2.4,8.1,2.4c4.1,0,7.5-1.4,10.2-4.1l4.7,5.4
		c-1.7,2-3.8,3.5-6.4,4.6c-2.6,1-5.5,1.5-8.7,1.5c-4.1,0-7.7-0.8-10.8-2.5c-3.1-1.6-5.5-3.9-7.2-6.8c-1.7-2.9-2.6-6.2-2.6-9.9
		c0-3.6,0.8-6.9,2.5-9.8c1.7-2.9,4-5.2,6.9-6.8c2.9-1.6,6.3-2.4,9.9-2.4c3.6,0,6.9,0.8,9.8,2.4c2.9,1.6,5.1,3.9,6.7,6.8
		c1.6,2.9,2.4,6.3,2.4,10.1C1604.2,179.6,1604.1,180.5,1604,181.6z M1578.2,169.2c-1.9,1.7-3.1,3.9-3.5,6.6h21.2
		c-0.4-2.7-1.5-4.9-3.4-6.6c-1.9-1.7-4.3-2.5-7.1-2.5C1582.5,166.7,1580.1,167.5,1578.2,169.2z"/>
	<path class="st2" d="M1613.8,160.1h8.8v15.2h18.8v-15.2h8.8v37.4h-8.8v-14.8h-18.8v14.8h-8.8V160.1z"/>
	<path class="st2" d="M1661.9,160.1h8.8v24.6l20.7-24.6h8v37.4h-8.8v-24.6l-20.6,24.6h-8V160.1z"/>
	<path class="st2" d="M1745.9,181.6h-29.3c0.5,2.8,1.9,4.9,4,6.5c2.2,1.6,4.9,2.4,8.1,2.4c4.1,0,7.5-1.4,10.2-4.1l4.7,5.4
		c-1.7,2-3.8,3.5-6.4,4.6c-2.6,1-5.5,1.5-8.7,1.5c-4.1,0-7.7-0.8-10.8-2.5c-3.1-1.6-5.5-3.9-7.2-6.8c-1.7-2.9-2.6-6.2-2.6-9.9
		c0-3.6,0.8-6.9,2.5-9.8c1.7-2.9,4-5.2,6.9-6.8c2.9-1.6,6.3-2.4,9.9-2.4c3.6,0,6.9,0.8,9.8,2.4c2.9,1.6,5.1,3.9,6.7,6.8
		c1.6,2.9,2.4,6.3,2.4,10.1C1746,179.6,1746,180.5,1745.9,181.6z M1720,169.2c-1.9,1.7-3.1,3.9-3.5,6.6h21.2
		c-0.4-2.7-1.5-4.9-3.4-6.6c-1.9-1.7-4.3-2.5-7.1-2.5C1724.3,166.7,1721.9,167.5,1720,169.2z"/>
</g>
<g>
	<path class="st2" d="M490.4,110.9c-4-2.2-7.2-5.2-9.5-9c-2.3-3.9-3.4-8.2-3.4-12.9s1.1-9.1,3.4-12.9c2.3-3.9,5.4-6.9,9.5-9
		c4-2.2,8.5-3.3,13.5-3.3c5,0,9.5,1.1,13.5,3.3c4,2.2,7.2,5.2,9.5,9c2.3,3.8,3.4,8.1,3.4,13c0,4.8-1.1,9.1-3.4,13
		c-2.3,3.8-5.4,6.8-9.5,9c-4,2.2-8.5,3.3-13.5,3.3C498.9,114.2,494.4,113.1,490.4,110.9z M512.7,104c2.6-1.5,4.7-3.5,6.2-6.2
		c1.5-2.6,2.2-5.6,2.2-8.9c0-3.3-0.7-6.2-2.2-8.9c-1.5-2.6-3.5-4.7-6.2-6.2c-2.6-1.5-5.6-2.2-8.8-2.2c-3.3,0-6.2,0.7-8.8,2.2
		c-2.6,1.5-4.7,3.5-6.2,6.2c-1.5,2.6-2.2,5.6-2.2,8.9c0,3.3,0.7,6.2,2.2,8.9c1.5,2.6,3.5,4.7,6.2,6.2c2.6,1.5,5.6,2.2,8.8,2.2
		C507.1,106.2,510.1,105.5,512.7,104z"/>
	<path class="st2" d="M571.1,76.1v37.4h-8.8V99c-3.6,1.7-7.3,2.6-11.3,2.6c-4.8,0-8.5-1.1-11.1-3.3c-2.6-2.2-3.8-5.6-3.8-10.2v-12
		h8.8v11.4c0,2.4,0.7,4.2,2.1,5.3c1.4,1.2,3.4,1.8,6,1.8c3.3,0,6.4-0.7,9.4-2.1V76.1H571.1z"/>
	<path class="st2" d="M617.7,97.6h-29.3c0.5,2.8,1.9,4.9,4,6.5c2.2,1.6,4.9,2.4,8.1,2.4c4.1,0,7.5-1.4,10.2-4.1l4.7,5.4
		c-1.7,2-3.8,3.5-6.4,4.6c-2.6,1-5.5,1.5-8.7,1.5c-4.1,0-7.7-0.8-10.8-2.5c-3.1-1.6-5.5-3.9-7.2-6.8c-1.7-2.9-2.6-6.2-2.6-9.9
		c0-3.6,0.8-6.9,2.5-9.8c1.7-2.9,4-5.2,6.9-6.8c2.9-1.6,6.3-2.4,9.9-2.4c3.6,0,6.9,0.8,9.8,2.4c2.9,1.6,5.1,3.9,6.7,6.8
		c1.6,2.9,2.4,6.3,2.4,10.1C617.8,95.6,617.8,96.5,617.7,97.6z M591.8,85.2c-1.9,1.7-3.1,3.9-3.5,6.6h21.2c-0.4-2.7-1.5-4.9-3.4-6.6
		c-1.9-1.7-4.3-2.5-7.1-2.5C596.1,82.7,593.8,83.5,591.8,85.2z"/>
	<path class="st2" d="M657.9,78c2.9,1.6,5.1,3.8,6.8,6.7c1.6,2.9,2.5,6.2,2.5,10c0,3.8-0.8,7.1-2.5,10c-1.6,2.9-3.9,5.2-6.8,6.8
		c-2.9,1.6-6.1,2.4-9.8,2.4c-5,0-9-1.7-12-5V127h-8.8v-51h8.3V81c1.4-1.8,3.2-3.1,5.4-4c2.1-0.9,4.5-1.3,7-1.3
		C651.8,75.7,655,76.5,657.9,78z M655.1,103.2c2.1-2.1,3.1-5,3.1-8.5s-1-6.3-3.1-8.5c-2.1-2.1-4.7-3.2-7.9-3.2c-2.1,0-4,0.5-5.7,1.4
		c-1.7,1-3,2.3-4,4.1c-1,1.8-1.5,3.8-1.5,6.2c0,2.3,0.5,4.4,1.5,6.2c1,1.8,2.3,3.1,4,4.1c1.7,1,3.6,1.4,5.7,1.4
		C650.4,106.5,653,105.4,655.1,103.2z"/>
	<path class="st2" d="M710.6,97.6h-29.3c0.5,2.8,1.9,4.9,4,6.5c2.2,1.6,4.9,2.4,8.1,2.4c4.1,0,7.5-1.4,10.2-4.1l4.7,5.4
		c-1.7,2-3.8,3.5-6.4,4.6c-2.6,1-5.5,1.5-8.7,1.5c-4.1,0-7.7-0.8-10.8-2.5c-3.1-1.6-5.5-3.9-7.2-6.8c-1.7-2.9-2.6-6.2-2.6-9.9
		c0-3.6,0.8-6.9,2.5-9.8c1.7-2.9,4-5.2,6.9-6.8c2.9-1.6,6.3-2.4,9.9-2.4c3.6,0,6.9,0.8,9.8,2.4c2.9,1.6,5.1,3.9,6.7,6.8
		c1.6,2.9,2.4,6.3,2.4,10.1C710.8,95.6,710.7,96.5,710.6,97.6z M684.8,85.2c-1.9,1.7-3.1,3.9-3.5,6.6h21.2c-0.4-2.7-1.5-4.9-3.4-6.6
		c-1.9-1.7-4.3-2.5-7.1-2.5C689.1,82.7,686.7,83.5,684.8,85.2z"/>
	<path class="st2" d="M759.8,106v15.8h-8.2v-8.3h-28.8v8.3h-8.1V106h1.8c2.4-0.1,4-1.6,4.9-4.6c0.9-3,1.4-7.2,1.7-12.6l0.5-12.8
		h30.8v30H759.8z M729.9,100c-0.5,2.7-1.4,4.7-2.8,6h18.4V83.5h-14.3l-0.2,6C730.8,93.8,730.4,97.3,729.9,100z"/>
	<path class="st2" d="M767.6,76.1h8.8v15.2h18.8V76.1h8.8v37.4h-8.8V98.7h-18.8v14.8h-8.8V76.1z"/>
	<path class="st2" d="M822.2,111.5c-3-1.6-5.4-3.9-7.1-6.8c-1.7-2.9-2.6-6.2-2.6-9.9c0-3.7,0.9-7,2.6-9.9c1.7-2.9,4.1-5.2,7.1-6.8
		c3-1.6,6.4-2.4,10.2-2.4c3.8,0,7.3,0.8,10.3,2.4c3,1.6,5.4,3.9,7.1,6.8c1.7,2.9,2.6,6.2,2.6,9.9c0,3.7-0.9,7-2.6,9.9
		c-1.7,2.9-4.1,5.2-7.1,6.8c-3,1.6-6.5,2.5-10.3,2.5C828.6,114,825.2,113.1,822.2,111.5z M840.4,103.2c2.1-2.1,3.2-5,3.2-8.5
		s-1-6.3-3.2-8.5c-2.1-2.1-4.8-3.2-8-3.2s-5.9,1.1-7.9,3.2c-2.1,2.1-3.1,5-3.1,8.5s1,6.3,3.1,8.5c2.1,2.1,4.7,3.2,7.9,3.2
		S838.3,105.4,840.4,103.2z"/>
	<path class="st2" d="M895.8,97.6h-29.3c0.5,2.8,1.9,4.9,4,6.5c2.2,1.6,4.9,2.4,8.1,2.4c4.1,0,7.5-1.4,10.2-4.1l4.7,5.4
		c-1.7,2-3.8,3.5-6.4,4.6c-2.6,1-5.5,1.5-8.7,1.5c-4.1,0-7.7-0.8-10.8-2.5c-3.1-1.6-5.5-3.9-7.2-6.8c-1.7-2.9-2.6-6.2-2.6-9.9
		c0-3.6,0.8-6.9,2.5-9.8c1.7-2.9,4-5.2,6.9-6.8c2.9-1.6,6.3-2.4,9.9-2.4c3.6,0,6.9,0.8,9.8,2.4c2.9,1.6,5.1,3.9,6.7,6.8
		c1.6,2.9,2.4,6.3,2.4,10.1C895.9,95.6,895.9,96.5,895.8,97.6z M869.9,85.2c-1.9,1.7-3.1,3.9-3.5,6.6h21.2c-0.4-2.7-1.5-4.9-3.4-6.6
		c-1.9-1.7-4.3-2.5-7.1-2.5C874.2,82.7,871.9,83.5,869.9,85.2z"/>
	<path class="st2" d="M461.7,160.1h8.8v24.6l20.7-24.6h8v37.4h-8.8v-24.6l-20.6,24.6h-8V160.1z"/>
	<path class="st2" d="M517.4,195.5c-3.1-1.6-5.5-3.9-7.2-6.8c-1.7-2.9-2.6-6.2-2.6-9.9c0-3.7,0.9-7,2.6-9.9c1.7-2.9,4.1-5.2,7.2-6.8
		c3.1-1.6,6.5-2.4,10.5-2.4c3.7,0,6.9,0.7,9.7,2.2c2.8,1.5,4.9,3.6,6.3,6.4l-6.7,3.9c-1.1-1.7-2.4-3-4-3.9c-1.6-0.9-3.4-1.3-5.3-1.3
		c-3.3,0-6,1.1-8.1,3.2c-2.1,2.1-3.2,5-3.2,8.5c0,3.5,1.1,6.4,3.2,8.5c2.1,2.1,4.8,3.2,8.2,3.2c1.9,0,3.7-0.4,5.3-1.3
		c1.6-0.9,3-2.2,4-3.9l6.7,3.9c-1.4,2.8-3.6,5-6.3,6.5c-2.8,1.5-6,2.3-9.6,2.3C523.9,198,520.5,197.1,517.4,195.5z"/>
	<path class="st2" d="M587.3,160.1v37.4h-8.7v-30h-18.4v30h-8.8v-37.4H587.3z"/>
	<path class="st2" d="M605.6,195.5c-3-1.6-5.4-3.9-7.1-6.8c-1.7-2.9-2.6-6.2-2.6-9.9c0-3.7,0.9-7,2.6-9.9c1.7-2.9,4.1-5.2,7.1-6.8
		c3-1.6,6.4-2.4,10.2-2.4c3.8,0,7.3,0.8,10.3,2.4c3,1.6,5.4,3.9,7.1,6.8c1.7,2.9,2.6,6.2,2.6,9.9c0,3.7-0.9,7-2.6,9.9
		c-1.7,2.9-4.1,5.2-7.1,6.8c-3,1.6-6.5,2.5-10.3,2.5C612,198,608.6,197.1,605.6,195.5z M623.8,187.2c2.1-2.1,3.2-5,3.2-8.5
		s-1-6.3-3.2-8.5c-2.1-2.1-4.8-3.2-8-3.2s-5.9,1.1-7.9,3.2c-2.1,2.1-3.1,5-3.1,8.5s1,6.3,3.1,8.5c2.1,2.1,4.7,3.2,7.9,3.2
		S621.7,189.4,623.8,187.2z"/>
	<path class="st2" d="M677.8,160.1v37.4h-8.8v-30h-14l-0.3,7.4c-0.2,4.9-0.7,9.1-1.4,12.4c-0.7,3.3-1.8,6-3.4,7.9
		c-1.6,1.9-3.8,2.9-6.6,2.9c-1.3,0-2.9-0.3-4.8-0.8l0.4-7.4c0.7,0.1,1.2,0.2,1.7,0.2c1.8,0,3.1-0.7,4-2.1c0.9-1.4,1.5-3.1,1.7-5.1
		c0.3-2,0.5-4.8,0.7-8.5l0.6-14.4H677.8z"/>
	<path class="st2" d="M689.6,160.1h8.8v15.2h18.8v-15.2h8.8v37.4h-8.8v-14.8h-18.8v14.8h-8.8V160.1z"/>
	<path class="st2" d="M772.5,181.6h-29.3c0.5,2.8,1.9,4.9,4,6.5c2.2,1.6,4.9,2.4,8.1,2.4c4.1,0,7.5-1.4,10.2-4.1l4.7,5.4
		c-1.7,2-3.8,3.5-6.4,4.6c-2.6,1-5.5,1.5-8.7,1.5c-4.1,0-7.7-0.8-10.8-2.5c-3.1-1.6-5.5-3.9-7.2-6.8c-1.7-2.9-2.6-6.2-2.6-9.9
		c0-3.6,0.8-6.9,2.5-9.8c1.7-2.9,4-5.2,6.9-6.8c2.9-1.6,6.3-2.4,9.9-2.4c3.6,0,6.9,0.8,9.8,2.4c2.9,1.6,5.1,3.9,6.7,6.8
		c1.6,2.9,2.4,6.3,2.4,10.1C772.7,179.6,772.6,180.5,772.5,181.6z M746.7,169.2c-1.9,1.7-3.1,3.9-3.5,6.6h21.2
		c-0.4-2.7-1.5-4.9-3.4-6.6c-1.9-1.7-4.3-2.5-7.1-2.5C751,166.7,748.6,167.5,746.7,169.2z"/>
	<path class="st2" d="M782.3,160.1h8.8v15.2h18.8v-15.2h8.8v37.4h-8.8v-14.8H791v14.8h-8.8V160.1z"/>
	<path class="st2" d="M830.4,160.1h8.8v24.6l20.7-24.6h8v37.4H859v-24.6l-20.6,24.6h-8V160.1z"/>
	<path class="st2" d="M914.4,181.6H885c0.5,2.8,1.9,4.9,4,6.5c2.2,1.6,4.9,2.4,8.1,2.4c4.1,0,7.5-1.4,10.2-4.1l4.7,5.4
		c-1.7,2-3.8,3.5-6.4,4.6c-2.6,1-5.5,1.5-8.7,1.5c-4.1,0-7.7-0.8-10.8-2.5c-3.1-1.6-5.5-3.9-7.2-6.8c-1.7-2.9-2.6-6.2-2.6-9.9
		c0-3.6,0.8-6.9,2.5-9.8c1.7-2.9,4-5.2,6.9-6.8c2.9-1.6,6.3-2.4,9.9-2.4c3.6,0,6.9,0.8,9.8,2.4c2.9,1.6,5.1,3.9,6.7,6.8
		c1.6,2.9,2.4,6.3,2.4,10.1C914.5,179.6,914.4,180.5,914.4,181.6z M888.5,169.2c-1.9,1.7-3.1,3.9-3.5,6.6h21.2
		c-0.4-2.7-1.5-4.9-3.4-6.6c-1.9-1.7-4.3-2.5-7.1-2.5C892.8,166.7,890.4,167.5,888.5,169.2z"/>
</g>
</svg>
