<?xml version="1.0" encoding="utf-8"?>
<!-- Generator: Adobe Illustrator 24.3.0, SVG Export Plug-In . SVG Version: 6.00 Build 0)  -->
<svg version="1.1" id="Слой_1" xmlns="http://www.w3.org/2000/svg" xmlns:xlink="http://www.w3.org/1999/xlink" x="0px" y="0px"
	 viewBox="0 0 1920 1080" style="enable-background:new 0 0 1920 1080;" xml:space="preserve">
<style type="text/css">
	.st0{fill:#0D1117;}
	.st1{fill:none;stroke:#3398FF;stroke-width:10;stroke-miterlimit:10;}
	.st2{fill:#3398FF;}
	.st3{fill:#4AA4FF;}
	.st4{fill:none;stroke:#3398FF;stroke-width:3.5;stroke-miterlimit:10;}
	.st5{fill:#FFFFFF;}
</style>
<rect y="0.3" class="st0" width="1920" height="1080"/>
<polygon class="st1" points="1187.9,703.4 989.7,609.6 989.7,442.3 1187.9,521.8 1190.9,521.8 1387.9,442.3 1387.9,609.6 
	1189.7,703.4 "/>
<g>
	<path class="st2" d="M1123.1,609.7h-39.9l-7.9,18.5h-15.3l35.9-79.8h14.6l36,79.8H1131L1123.1,609.7z M1118.2,598.1l-15-34.9
		l-14.9,34.9H1118.2z"/>
	<path class="st2" d="M1227.4,548.4v79.8h-14.6V561h-31.4l-0.7,19.9c-0.4,11.2-1.3,20.2-2.7,27.2c-1.4,6.9-3.8,12.2-7,15.8
		c-3.2,3.6-7.6,5.4-13.2,5.4c-2,0-4.7-0.4-8.1-1.1l1-12.9c1,0.3,2.1,0.5,3.4,0.5c4.6,0,7.9-2.8,9.9-8.3c1.9-5.5,3.1-14.2,3.6-26
		l1.1-33H1227.4z"/>
	<path class="st2" d="M1318.3,548.4l-34.6,64.4c-3,5.7-6.7,10-10.9,12.8c-4.2,2.8-8.8,4.3-13.7,4.3c-4,0-7.9-0.8-11.7-2.5l3.6-11.6
		c3.1,1,5.7,1.5,7.7,1.5c4.8,0,8.7-2.5,11.8-7.4l1.3-1.9l-31.8-59.5h15.8l23.6,46.8l24.3-46.8H1318.3z"/>
</g>
<g>
	<g>
		<g>
			<polygon class="st3" points="1050.6,181.2 1050.6,349.4 1016.7,349.4 1072.8,405.5 1128.9,349.4 1095,349.4 1095,181.2 			"/>
		</g>
	</g>
</g>
<g>
	<g>
		<g>
			<polygon class="st3" points="1286.7,181.2 1286.7,349.4 1252.9,349.4 1308.9,405.5 1365,349.4 1331.1,349.4 1331.1,181.2 			"/>
		</g>
	</g>
</g>
<line class="st4" x1="234.9" y1="36.4" x2="234.9" y2="447.1"/>
<line class="st4" x1="7.1" y1="119.5" x2="464" y2="119.5"/>
<g>
	<g>
		<path class="st5" d="M1082.9,272h-19.9l-3.9,9.2h-7.6l17.9-39.9h7.3l18,39.9h-7.7L1082.9,272z M1080.4,266.2l-7.5-17.4l-7.5,17.4
			H1080.4z"/>
	</g>
</g>
<g>
	<g>
		<path class="st5" d="M1293.6,241.4h31v6.1h-23.8v9.8h11.8c4.8,0,8.4,1,10.9,3c2.5,2,3.7,4.9,3.7,8.6c0,4-1.4,7-4.1,9.1
			s-6.6,3.2-11.7,3.2h-17.9V241.4z M1311.1,275.6c2.8,0,5-0.6,6.5-1.7c1.5-1.1,2.2-2.7,2.2-4.8c0-4.1-2.9-6.2-8.7-6.2h-10.3v12.6
			H1311.1z"/>
	</g>
</g>
<g>
	<g>
		<g>
			<polygon class="st3" points="1534.4,565.4 1856.9,565.4 1856.9,599.3 1913,543.2 1856.9,487.1 1856.9,521 1534.4,521 			"/>
		</g>
	</g>
</g>
<g>
	<path class="st5" d="M1557,556.4c-2.9-1.6-5.2-3.8-6.8-6.6c-1.7-2.8-2.5-5.9-2.5-9.4s0.8-6.7,2.5-9.4c1.7-2.8,4-5,6.9-6.6
		c2.9-1.6,6.2-2.4,9.8-2.4c2.9,0,5.6,0.5,8,1.5c2.4,1,4.5,2.5,6.1,4.4l-4.3,4c-2.6-2.8-5.8-4.2-9.5-4.2c-2.4,0-4.6,0.5-6.6,1.6
		c-1.9,1.1-3.5,2.6-4.5,4.5c-1.1,1.9-1.6,4.1-1.6,6.5s0.5,4.6,1.6,6.5s2.6,3.4,4.5,4.5c1.9,1.1,4.1,1.6,6.6,1.6c3.8,0,7-1.4,9.5-4.2
		l4.3,4.1c-1.7,1.9-3.7,3.4-6.1,4.4c-2.4,1-5.1,1.5-8,1.5C1563.1,558.8,1559.9,558,1557,556.4z"/>
	<path class="st5" d="M1590.1,556.8c-2.2-1.2-3.9-2.8-5.2-5c-1.2-2.1-1.9-4.5-1.9-7.2s0.6-5.1,1.9-7.2c1.2-2.1,3-3.8,5.2-5
		c2.2-1.2,4.7-1.8,7.5-1.8c2.8,0,5.3,0.6,7.5,1.8c2.2,1.2,3.9,2.8,5.2,5c1.2,2.1,1.9,4.5,1.9,7.2s-0.6,5.1-1.9,7.2
		c-1.2,2.1-3,3.8-5.2,5c-2.2,1.2-4.7,1.8-7.5,1.8C1594.8,558.6,1592.3,558,1590.1,556.8z M1603.3,550.8c1.5-1.6,2.3-3.6,2.3-6.2
		s-0.8-4.6-2.3-6.2c-1.5-1.6-3.5-2.3-5.8-2.3c-2.3,0-4.3,0.8-5.8,2.3c-1.5,1.6-2.3,3.6-2.3,6.2s0.8,4.6,2.3,6.2s3.4,2.3,5.8,2.3
		C1599.9,553.2,1601.8,552.4,1603.3,550.8z"/>
	<path class="st5" d="M1623.1,556.8c-2.2-1.2-4-2.8-5.3-5c-1.3-2.1-1.9-4.5-1.9-7.2s0.6-5.1,1.9-7.2s3-3.8,5.2-5
		c2.2-1.2,4.8-1.8,7.6-1.8c2.7,0,5,0.5,7.1,1.6c2,1.1,3.5,2.7,4.6,4.7l-4.9,2.9c-0.8-1.3-1.8-2.2-2.9-2.8c-1.2-0.6-2.5-0.9-3.9-0.9
		c-2.4,0-4.4,0.8-5.9,2.3c-1.6,1.5-2.3,3.6-2.3,6.2c0,2.6,0.8,4.7,2.3,6.2c1.5,1.5,3.5,2.3,5.9,2.3c1.4,0,2.7-0.3,3.9-0.9
		c1.2-0.6,2.2-1.6,2.9-2.8l4.9,2.9c-1.1,2-2.6,3.6-4.6,4.7c-2,1.1-4.4,1.7-7,1.7C1627.9,558.6,1625.4,558,1623.1,556.8z"/>
	<path class="st5" d="M1669.3,536.4h-9.5v21.8h-6.4v-21.8h-9.6V531h25.5V536.4z"/>
	<path class="st5" d="M1677.5,556.8c-2.2-1.2-3.9-2.8-5.2-5c-1.2-2.1-1.9-4.5-1.9-7.2s0.6-5.1,1.9-7.2c1.2-2.1,3-3.8,5.2-5
		c2.2-1.2,4.7-1.8,7.5-1.8c2.8,0,5.3,0.6,7.5,1.8c2.2,1.2,3.9,2.8,5.2,5c1.2,2.1,1.9,4.5,1.9,7.2s-0.6,5.1-1.9,7.2
		c-1.2,2.1-3,3.8-5.2,5c-2.2,1.2-4.7,1.8-7.5,1.8C1682.2,558.6,1679.7,558,1677.5,556.8z M1690.7,550.8c1.5-1.6,2.3-3.6,2.3-6.2
		s-0.8-4.6-2.3-6.2c-1.5-1.6-3.5-2.3-5.8-2.3c-2.3,0-4.3,0.8-5.8,2.3c-1.5,1.6-2.3,3.6-2.3,6.2s0.8,4.6,2.3,6.2s3.4,2.3,5.8,2.3
		C1687.3,553.2,1689.2,552.4,1690.7,550.8z"/>
	<path class="st5" d="M1727.8,531v27.2h-5.7V550h-7.2l-5.6,8.2h-6.8l6.4-9.1c-2-0.7-3.5-1.7-4.5-3.1c-1-1.4-1.6-3.2-1.6-5.2
		c0-3.1,1.1-5.5,3.3-7.2c2.2-1.7,5.3-2.6,9.1-2.6H1727.8z M1709.4,541c0,3.1,2,4.6,6,4.6h6.8v-9.2h-6.6
		C1711.4,536.4,1709.4,537.9,1709.4,541z"/>
	<path class="st5" d="M1736.4,531h6.4v11.1h13.7V531h6.4v27.2h-6.4v-10.8h-13.7v10.8h-6.4V531z"/>
	<path class="st5" d="M1771.5,531h6.4v18l15.1-18h5.8v27.2h-6.4v-18l-15,18h-5.9V531z"/>
	<path class="st5" d="M1832.7,546.7h-21.4c0.4,2,1.4,3.6,2.9,4.8s3.5,1.8,5.9,1.8c3,0,5.5-1,7.4-3l3.4,3.9c-1.2,1.5-2.8,2.6-4.6,3.3
		c-1.9,0.7-4,1.1-6.3,1.1c-3,0-5.6-0.6-7.9-1.8c-2.3-1.2-4-2.8-5.3-5c-1.2-2.1-1.9-4.5-1.9-7.2c0-2.7,0.6-5,1.8-7.2
		c1.2-2.1,2.9-3.8,5-5c2.1-1.2,4.6-1.8,7.2-1.8c2.7,0,5,0.6,7.1,1.8c2.1,1.2,3.7,2.8,4.9,5s1.8,4.6,1.8,7.4
		C1832.8,545.2,1832.8,545.9,1832.7,546.7z M1813.9,537.6c-1.4,1.2-2.3,2.8-2.6,4.8h15.5c-0.3-2-1.1-3.6-2.5-4.8
		c-1.4-1.2-3.1-1.8-5.2-1.8C1817,535.8,1815.3,536.4,1813.9,537.6z"/>
</g>
<g>
	<g>
		<g>
			<polygon class="st3" points="1166.9,749.7 1166.9,987.9 1133,987.9 1189.1,1044 1245.2,987.9 1211.3,987.9 1211.3,749.7 			"/>
		</g>
	</g>
</g>
<g>
	<g>
		<path class="st5" d="M1181.5,882.7c-3.2-1.8-5.8-4.2-7.6-7.3c-1.8-3.1-2.8-6.6-2.8-10.5c0-3.9,0.9-7.4,2.8-10.5
			c1.9-3.1,4.4-5.6,7.7-7.3s6.9-2.6,10.9-2.6c3.3,0,6.2,0.6,8.9,1.7c2.7,1.1,5,2.8,6.8,5l-4.8,4.5c-2.9-3.1-6.4-4.7-10.7-4.7
			c-2.7,0-5.2,0.6-7.3,1.8c-2.2,1.2-3.9,2.9-5.1,5c-1.2,2.1-1.8,4.5-1.8,7.2c0,2.7,0.6,5.1,1.8,7.2c1.2,2.1,2.9,3.8,5.1,5
			c2.2,1.2,4.6,1.8,7.3,1.8c4.2,0,7.8-1.6,10.7-4.7l4.8,4.6c-1.9,2.2-4.2,3.8-6.9,5c-2.7,1.1-5.7,1.7-9,1.7
			C1188.4,885.3,1184.8,884.4,1181.5,882.7z"/>
	</g>
</g>
<g>
	<g>
		<g>
			<polygon class="st3" points="465.2,565.4 787.6,565.4 787.6,599.3 843.7,543.2 787.6,487.1 787.6,521 465.2,521 			"/>
		</g>
	</g>
</g>
<g>
	<path class="st5" d="M640.1,555.1c-3.6,3-8.8,4.7-15.6,5v4.2h-6.8V560c-6.7-0.3-11.9-2-15.6-5c-3.7-3-5.5-7.1-5.5-12.4
		c0-5.2,1.8-9.4,5.5-12.4c3.7-3,8.9-4.7,15.6-5v-4h6.8v4c6.7,0.3,11.9,2,15.6,5c3.6,3,5.5,7.1,5.5,12.4
		C645.6,547.9,643.8,552,640.1,555.1z M607.5,550.8c2.4,1.9,5.8,3.1,10.3,3.5v-23.1c-9.2,0.7-13.8,4.5-13.8,11.6
		C603.9,546.1,605.1,548.8,607.5,550.8z M635,550.8c2.4-2,3.5-4.7,3.5-8.2c0-3.5-1.2-6.2-3.6-8.1c-2.4-1.9-5.8-3.1-10.3-3.4v23.1
		C629.1,553.9,632.6,552.7,635,550.8z"/>
</g>
<g>
	<path class="st5" d="M140,91.5c-3.6,3-8.8,4.7-15.6,5v4.2h-6.8v-4.2c-6.7-0.3-11.9-2-15.6-5c-3.7-3-5.5-7.1-5.5-12.4
		s1.8-9.4,5.5-12.4c3.7-3,8.9-4.7,15.6-5v-4h6.8v4c6.7,0.3,11.9,2,15.6,5s5.5,7.1,5.5,12.4S143.6,88.5,140,91.5z M107.3,87.2
		c2.4,1.9,5.8,3.1,10.3,3.5V67.6c-9.2,0.7-13.8,4.5-13.8,11.6C103.8,82.6,104.9,85.3,107.3,87.2z M134.8,87.2c2.4-2,3.5-4.7,3.5-8.2
		c0-3.5-1.2-6.2-3.6-8.1c-2.4-1.9-5.8-3.1-10.3-3.4v23.1C129,90.3,132.4,89.2,134.8,87.2z"/>
</g>
<g>
	<path class="st5" d="M342,97c-3.2-1.8-5.8-4.2-7.6-7.3c-1.8-3.1-2.8-6.6-2.8-10.5c0-3.9,0.9-7.4,2.8-10.5c1.9-3.1,4.4-5.6,7.7-7.3
		c3.2-1.8,6.9-2.6,10.9-2.6c3.3,0,6.2,0.6,8.9,1.7c2.7,1.1,5,2.8,6.8,5l-4.8,4.5c-2.9-3.1-6.4-4.7-10.7-4.7c-2.7,0-5.2,0.6-7.3,1.8
		c-2.2,1.2-3.9,2.9-5.1,5c-1.2,2.1-1.8,4.5-1.8,7.2c0,2.7,0.6,5.1,1.8,7.2c1.2,2.1,2.9,3.8,5.1,5c2.2,1.2,4.6,1.8,7.3,1.8
		c4.2,0,7.8-1.6,10.7-4.7l4.8,4.6c-1.9,2.2-4.1,3.8-6.9,5c-2.7,1.1-5.7,1.7-9,1.7C348.9,99.7,345.2,98.8,342,97z"/>
</g>
<g>
	<path class="st5" d="M112.6,161.8c-2-1.3-3.6-3.2-4.8-5.7c-1.2-2.5-1.8-5.5-1.8-9c0-3.5,0.6-6.4,1.8-9c1.2-2.5,2.8-4.4,4.8-5.7
		c2-1.3,4.4-2,6.9-2s4.9,0.7,7,2c2.1,1.3,3.7,3.2,4.8,5.7c1.2,2.5,1.8,5.5,1.8,9c0,3.5-0.6,6.4-1.8,9c-1.2,2.5-2.8,4.4-4.8,5.7
		c-2.1,1.3-4.4,2-7,2S114.7,163.2,112.6,161.8z M125.1,155.7c1.3-1.9,2-4.8,2-8.6s-0.7-6.6-2-8.6c-1.3-1.9-3.2-2.9-5.5-2.9
		c-2.3,0-4.1,1-5.4,2.9c-1.3,1.9-2,4.8-2,8.6s0.7,6.6,2,8.6c1.3,1.9,3.2,2.9,5.4,2.9C121.9,158.6,123.7,157.6,125.1,155.7z"/>
	<path class="st5" d="M124,186.5v32.4h-6v-27.4h-6.9v-5H124z"/>
	<path class="st5" d="M131.6,269.3v5.1h-23.9v-4l12.9-12.2c1.4-1.4,2.4-2.6,2.9-3.6c0.5-1,0.8-2.1,0.8-3.1c0-1.5-0.5-2.7-1.5-3.5
		c-1-0.8-2.5-1.2-4.5-1.2c-3.3,0-5.8,1.1-7.6,3.4l-4.2-3.2c1.3-1.7,3-3,5.1-4c2.1-0.9,4.5-1.4,7.2-1.4c3.5,0,6.3,0.8,8.4,2.5
		c2.1,1.7,3.1,3.9,3.1,6.8c0,1.8-0.4,3.4-1.1,5c-0.7,1.5-2.2,3.3-4.3,5.3l-8.7,8.2H131.6z"/>
	<path class="st5" d="M128.8,314c1.6,1.7,2.4,3.7,2.4,6.2c0,1.9-0.5,3.6-1.4,5.1c-1,1.5-2.4,2.8-4.3,3.7c-1.9,0.9-4.3,1.4-7.1,1.4
		c-2.3,0-4.5-0.3-6.7-1c-2.1-0.7-4-1.6-5.5-2.8l2.6-4.7c1.2,1,2.6,1.8,4.3,2.3c1.7,0.6,3.4,0.9,5.2,0.9c2.1,0,3.8-0.4,5-1.3
		c1.2-0.9,1.8-2.1,1.8-3.6c0-1.5-0.6-2.7-1.7-3.5c-1.2-0.8-2.9-1.3-5.3-1.3h-3v-4.1l7.4-8.7h-14.7v-5h22.1v4l-7.9,9.3
		C125,311.3,127.2,312.3,128.8,314z"/>
	<path class="st5" d="M134.8,378.2h-5.7v7.4h-5.8v-7.4h-17.8V374l16-20.9h6.4l-15,19.9h10.6v-6.5h5.6v6.5h5.7V378.2z"/>
	<path class="st5" d="M105.6,440.3c-0.7-0.7-1.1-1.6-1.1-2.8c0-1.1,0.4-2.1,1.1-2.8c0.7-0.7,1.6-1.1,2.7-1.1c1.1,0,2,0.4,2.7,1.1
		c0.7,0.7,1.1,1.6,1.1,2.8c0,1.1-0.4,2-1.1,2.8c-0.7,0.7-1.6,1.1-2.7,1.1C107.3,441.4,106.4,441,105.6,440.3z"/>
	<path class="st5" d="M116.9,440.3c-0.7-0.7-1.1-1.6-1.1-2.8c0-1.1,0.4-2.1,1.1-2.8c0.7-0.7,1.6-1.1,2.7-1.1c1.1,0,2,0.4,2.7,1.1
		c0.7,0.7,1.1,1.6,1.1,2.8c0,1.1-0.4,2-1.1,2.8c-0.7,0.7-1.6,1.1-2.7,1.1C118.6,441.4,117.7,441,116.9,440.3z"/>
	<path class="st5" d="M128.2,440.3c-0.7-0.7-1.1-1.6-1.1-2.8c0-1.1,0.4-2.1,1.1-2.8c0.7-0.7,1.6-1.1,2.7-1.1c1.1,0,2,0.4,2.7,1.1
		c0.7,0.7,1.1,1.6,1.1,2.8c0,1.1-0.4,2-1.1,2.8c-0.7,0.7-1.6,1.1-2.7,1.1C129.8,441.4,129,441,128.2,440.3z"/>
</g>
<g>
	<path class="st5" d="M327.2,155.9H311l-3.2,7.5h-6.2l14.6-32.4h5.9l14.6,32.4h-6.3L327.2,155.9z M325.2,151.1l-6.1-14.2l-6.1,14.2
		H325.2z"/>
	<path class="st5" d="M360.6,149.5h-8.2v8.1h-5v-8.1h-8.2v-4.6h8.2v-8.1h5v8.1h8.2V149.5z"/>
	<path class="st5" d="M368.1,131h25.2v5H374v8h9.6c3.9,0,6.8,0.8,8.9,2.4c2,1.6,3,4,3,7c0,3.2-1.1,5.7-3.3,7.4
		c-2.2,1.7-5.4,2.6-9.5,2.6h-14.6V131z M382.4,158.7c2.3,0,4.1-0.4,5.3-1.3c1.2-0.9,1.8-2.2,1.8-3.9c0-3.3-2.4-5-7.1-5H374v10.2
		H382.4z"/>
	<path class="st5" d="M332,211.4h-16.2l-3.2,7.5h-6.2l14.6-32.4h5.9l14.6,32.4h-6.3L332,211.4z M330,206.7l-6.1-14.2l-6.1,14.2H330z
		"/>
	<path class="st5" d="M343.5,203.6h12.7v4.8h-12.7V203.6z"/>
	<path class="st5" d="M363.4,186.5h25.2v5h-19.3v8h9.6c3.9,0,6.8,0.8,8.9,2.4c2,1.6,3,4,3,7c0,3.2-1.1,5.7-3.3,7.4
		c-2.2,1.7-5.4,2.6-9.5,2.6h-14.6V186.5z M377.6,214.3c2.3,0,4.1-0.4,5.3-1.3c1.2-0.9,1.8-2.2,1.8-3.9c0-3.3-2.4-5-7.1-5h-8.3v10.2
		H377.6z"/>
	<path class="st5" d="M333,266.9h-16.2l-3.2,7.5h-6.2L322,242h5.9l14.6,32.4h-6.3L333,266.9z M331,262.2l-6.1-14.2l-6.1,14.2H331z"
		/>
	<path class="st5" d="M351.8,249l5.3,2.9l-1.8,3.1l-5.4-3.1l0,6h-3.5l0-5.9l-5.3,3.1l-1.9-3.1l5.3-2.9l-5.3-2.9l1.9-3.2l5.3,3.1
		l0-5.9h3.5l0,6l5.4-3.2l1.8,3.2L351.8,249z"/>
	<path class="st5" d="M362.4,242h25.2v5h-19.3v8h9.6c3.9,0,6.8,0.8,8.9,2.4c2,1.6,3,4,3,7c0,3.2-1.1,5.7-3.3,7.4
		c-2.2,1.7-5.4,2.6-9.5,2.6h-14.6V242z M376.6,269.8c2.3,0,4.1-0.4,5.3-1.3c1.2-0.9,1.8-2.2,1.8-3.9c0-3.3-2.4-5-7.1-5h-8.3v10.2
		H376.6z"/>
	<path class="st5" d="M271.3,322.5h-16.2L252,330h-6.2l14.6-32.4h5.9l14.6,32.4h-6.3L271.3,322.5z M269.4,317.8l-6.1-14.2l-6.1,14.2
		H269.4z"/>
	<path class="st5" d="M298.6,297.6h5.9v23l17.4-23h5.6V330h-5.9v-23l-17.4,23h-5.6V297.6z"/>
	<path class="st5" d="M364,297.6V330h-5.9v-27.3h-12.8l-0.3,8.1c-0.2,4.5-0.5,8.2-1.1,11c-0.6,2.8-1.5,5-2.8,6.4
		c-1.3,1.5-3.1,2.2-5.4,2.2c-0.8,0-1.9-0.2-3.3-0.5l0.4-5.2c0.4,0.1,0.9,0.2,1.4,0.2c1.9,0,3.2-1.1,4-3.4c0.8-2.2,1.3-5.8,1.5-10.6
		l0.5-13.4H364z"/>
	<path class="st5" d="M373.2,297.6h5.9v23l17.4-23h5.6V330h-5.9v-23l-17.4,23h-5.6V297.6z"/>
	<path class="st5" d="M424,297.6h25.2v5h-19.3v8h9.6c3.9,0,6.8,0.8,8.9,2.4c2,1.6,3,4,3,7c0,3.2-1.1,5.7-3.3,7.4
		c-2.2,1.7-5.4,2.6-9.5,2.6H424V297.6z M438.2,325.3c2.3,0,4.1-0.4,5.3-1.3c1.2-0.9,1.8-2.2,1.8-3.9c0-3.3-2.4-5-7.1-5h-8.3v10.2
		H438.2z"/>
	<path class="st5" d="M275.8,378h-16.2l-3.2,7.5h-6.2l14.6-32.4h5.9l14.6,32.4H279L275.8,378z M273.8,373.3l-6.1-14.2l-6.1,14.2
		H273.8z"/>
	<path class="st5" d="M323.2,385.5l-8.8-12.3l-8.7,12.3h-6.9l12-16.5l-11.4-15.9h6.8l8.3,11.5l8.2-11.5h6.5L318,368.8l12.2,16.8
		H323.2z"/>
	<path class="st5" d="M340,383.8c-2.7-1.4-4.7-3.4-6.2-6c-1.5-2.5-2.3-5.4-2.3-8.5s0.8-6,2.3-8.5c1.5-2.5,3.6-4.5,6.2-6
		c2.7-1.4,5.6-2.2,8.9-2.2c3.3,0,6.3,0.7,8.9,2.2c2.7,1.4,4.7,3.4,6.2,5.9c1.5,2.5,2.3,5.4,2.3,8.6c0,3.2-0.8,6-2.3,8.6
		c-1.5,2.5-3.6,4.5-6.2,5.9c-2.7,1.4-5.6,2.2-8.9,2.2C345.6,386,342.6,385.3,340,383.8z M354.7,379.2c1.7-1,3.1-2.3,4.1-4.1
		c1-1.7,1.5-3.7,1.5-5.9c0-2.2-0.5-4.1-1.5-5.9c-1-1.7-2.3-3.1-4.1-4.1c-1.7-1-3.7-1.5-5.8-1.5c-2.2,0-4.1,0.5-5.8,1.5
		c-1.7,1-3.1,2.3-4.1,4.1c-1,1.7-1.5,3.7-1.5,5.9c0,2.2,0.5,4.1,1.5,5.9c1,1.7,2.3,3.1,4.1,4.1c1.7,1,3.7,1.5,5.8,1.5
		C351.1,380.7,353,380.2,354.7,379.2z"/>
	<path class="st5" d="M393.9,385.5l-6.6-9.5c-0.3,0-0.7,0-1.2,0h-7.3v9.4h-6v-32.4h13.3c2.8,0,5.3,0.5,7.3,1.4
		c2.1,0.9,3.7,2.3,4.8,4c1.1,1.7,1.7,3.8,1.7,6.2c0,2.4-0.6,4.5-1.8,6.3c-1.2,1.8-2.9,3.1-5.1,3.9l7.5,10.6H393.9z M391.7,359.9
		c-1.4-1.1-3.3-1.7-6-1.7h-7v12.9h7c2.6,0,4.6-0.6,6-1.7c1.4-1.1,2-2.7,2-4.8C393.8,362.6,393.1,361,391.7,359.9z"/>
	<path class="st5" d="M419.6,353.1h25.2v5h-19.3v8h9.6c3.9,0,6.8,0.8,8.9,2.4c2,1.6,3,4,3,7c0,3.2-1.1,5.7-3.3,7.4
		c-2.2,1.7-5.4,2.6-9.5,2.6h-14.6V353.1z M433.8,380.9c2.3,0,4.1-0.4,5.3-1.3c1.2-0.9,1.8-2.2,1.8-3.9c0-3.3-2.4-5-7.1-5h-8.3v10.2
		H433.8z"/>
	<path class="st5" d="M335.4,440.3c-0.7-0.7-1.1-1.6-1.1-2.8c0-1.1,0.4-2.1,1.1-2.8c0.7-0.7,1.6-1.1,2.7-1.1c1.1,0,2,0.4,2.7,1.1
		c0.7,0.7,1.1,1.6,1.1,2.8c0,1.1-0.4,2-1.1,2.8c-0.7,0.7-1.6,1.1-2.7,1.1C337,441.4,336.1,441,335.4,440.3z"/>
	<path class="st5" d="M346.7,440.3c-0.7-0.7-1.1-1.6-1.1-2.8c0-1.1,0.4-2.1,1.1-2.8c0.7-0.7,1.6-1.1,2.7-1.1c1.1,0,2,0.4,2.7,1.1
		c0.7,0.7,1.1,1.6,1.1,2.8c0,1.1-0.4,2-1.1,2.8c-0.7,0.7-1.6,1.1-2.7,1.1C348.3,441.4,347.4,441,346.7,440.3z"/>
	<path class="st5" d="M358,440.3c-0.7-0.7-1.1-1.6-1.1-2.8c0-1.1,0.4-2.1,1.1-2.8c0.7-0.7,1.6-1.1,2.7-1.1c1.1,0,2,0.4,2.7,1.1
		c0.7,0.7,1.1,1.6,1.1,2.8c0,1.1-0.4,2-1.1,2.8c-0.7,0.7-1.6,1.1-2.7,1.1C359.6,441.4,358.7,441,358,440.3z"/>
</g>
<image style="overflow:visible;" width="201" height="140" xlink:href="4897FF9B.jpg"  transform="matrix(1 0 0 1 2507 461)">
</image>
</svg>
