<?xml version="1.0" encoding="utf-8"?>
<!-- Generator: Adobe Illustrator 24.3.0, SVG Export Plug-In . SVG Version: 6.00 Build 0)  -->
<svg version="1.1" xmlns="http://www.w3.org/2000/svg" xmlns:xlink="http://www.w3.org/1999/xlink" x="0px" y="0px"
	 viewBox="0 0 30 50" style="enable-background:new 0 0 30 50;" xml:space="preserve">
<style type="text/css">
	.st0{fill:#0D1117;}
	.st1{fill:#3398FF;stroke:#FFFFFF;stroke-miterlimit:10;}
</style>
<g id="Слой_2">
	<rect x="-5.5" y="-11.5" class="st0" width="44" height="93"/>
</g>
<g id="Слой_1">
	<path class="st1" d="M14.75,21.47c-0.84-0.23-1.65-0.5-2.43-0.87c-0.84-0.4-1.63-0.89-2.27-1.57c-0.83-0.87-1.3-1.9-1.45-3.08
		c-0.17-1.31-0.08-2.61,0.4-3.85c0.71-1.79,2.06-2.91,3.88-3.5c0.59-0.19,1.22-0.31,1.85-0.48L14.75,21.47z M17.2,27.87
		c1.26,0.42,2.45,0.95,3.49,1.77c1.51,1.19,2.29,2.73,2.41,4.61c0.08,1.31-0.08,2.59-0.69,3.77c-0.99,1.93-2.6,3.11-4.73,3.63
		c-0.43,0.11-0.88,0.16-1.35,0.24V27.61C16.63,27.7,16.92,27.78,17.2,27.87z M28.51,31.67c-0.3-2.13-1.26-3.95-2.91-5.41
		c-1.5-1.31-3.28-2.2-5.13-2.98c-1.06-0.45-2.16-0.79-3.25-1.14C17.04,22.08,16.99,22,17,21.82c0.02-0.31,0.01-0.62,0.01-0.94
		c0.01-3.43,0.01-6.86,0.02-10.29c0-0.41,0-0.83,0.01-1.24V8.34c0-0.06,0.01-0.1,0.02-0.16c0.08,0,0.13-0.01,0.19,0.01
		c0.02,0,0.04,0.01,0.07,0.01c0.77,0.11,1.55,0.2,2.31,0.36c1.32,0.29,2.51,0.86,3.5,1.81c-0.22,0.42-0.46,0.84-0.61,1.28
		c-0.46,1.21-0.53,2.44-0.03,3.65c0.48,1.17,1.54,1.75,2.8,1.52c1.03-0.19,1.63-0.85,1.9-1.77c0.44-1.49,0.22-2.92-0.56-4.27
		c-0.7-1.23-1.77-2.11-3.01-2.82c-1.72-0.97-3.6-1.42-5.55-1.65c-0.26-0.04-0.53-0.07-0.8-0.08C17.17,6.22,17.08,6.21,17,6.2
		L17.04,1h-2.29l0.02,5.15c-0.06,0.01-0.11,0.02-0.16,0.02c-0.08,0.01-0.15,0.01-0.21,0.02c-1.56,0.11-3.09,0.38-4.55,0.91
		C7.81,7.84,6.1,9,4.84,10.74c-1.32,1.86-1.75,3.95-1.66,6.17c0.06,1.64,0.49,3.18,1.43,4.57c0.93,1.4,2.2,2.42,3.65,3.26
		c1.74,1,3.62,1.69,5.57,2.24c0.2,0.05,0.26,0.11,0.26,0.33c-0.01,4.77-0.01,9.53-0.01,14.3v0.29c-0.5-0.04-0.99-0.08-1.46-0.14
		c-1.45-0.2-2.82-0.61-4.06-1.38c-0.97-0.59-1.74-1.36-2.24-2.36c-0.14-0.26-0.11-0.43,0.07-0.65c1.35-1.69,1.57-3.62,0.59-5.68
		C6.6,30.91,5.7,30.5,4.86,30.7c-1.47,0.35-2.27,1.22-2.61,2.38C1.87,34.42,2,35.76,2.44,37.06c0.54,1.65,1.63,2.92,3.02,3.97
		c2.08,1.58,4.48,2.36,7.07,2.68c0.52,0.07,1.03,0.1,1.56,0.16v5.12h2.22v-0.25c0-1.54,0.01-3.09,0-4.63c0-0.14,0.02-0.21,0.2-0.23
		c0.95-0.13,1.9-0.23,2.84-0.42c1.81-0.37,3.52-1.01,5.05-2.04c1.85-1.24,3.17-2.86,3.81-4.96C28.68,34.89,28.75,33.28,28.51,31.67z
		"/>
</g>
</svg>
