<?xml version="1.0" encoding="utf-8"?>
<!-- Generator: Adobe Illustrator 24.3.0, SVG Export Plug-In . SVG Version: 6.00 Build 0)  -->
<svg version="1.1" xmlns="http://www.w3.org/2000/svg" xmlns:xlink="http://www.w3.org/1999/xlink" x="0px" y="0px"
	 viewBox="0 0 23 55" style="enable-background:new 0 0 23 55;" xml:space="preserve">
<style type="text/css">
	.st0{fill:#0D1117;}
	.st1{fill:#FBED21;stroke:#FFFFFF;stroke-width:0.25;stroke-miterlimit:10;}
</style>
<g id="Слой_2">
	<rect x="-10.33" y="-19.06" class="st0" width="44" height="93"/>
</g>
<g id="Слой_1">
	<g>
		<path class="st1" d="M22.69,0.63c-0.03,0.14-0.11,0.27-0.17,0.4c-2.58,5.51-5.16,11.03-7.74,16.54c-0.08,0.16-0.14,0.33-0.24,0.56
			c0.48-0.03,0.88-0.05,1.28-0.09c1.18-0.1,2.36-0.2,3.55-0.3c0.22-0.02,0.44-0.07,0.65-0.06c0.2,0.01,0.41,0.05,0.58,0.14
			c0.3,0.17,0.37,0.48,0.21,0.8c-0.06,0.12-0.14,0.23-0.21,0.34c-2.65,4.09-5.3,8.18-7.96,12.27c-0.06,0.09-0.12,0.18-0.17,0.27
			c-0.16,0.27-0.08,0.41,0.24,0.39c0.61-0.03,1.22-0.09,1.84-0.14c1.21-0.1,2.42-0.2,3.63-0.3c0.03,0,0.05,0,0.08,0
			c0.34-0.03,0.63,0.05,0.79,0.37c0.16,0.31,0.01,0.55-0.19,0.8c-2.98,3.66-5.95,7.32-8.92,10.98c-2.86,3.53-5.72,7.05-8.58,10.58
			c-0.09,0.1-0.16,0.23-0.27,0.3c-0.08,0.05-0.23,0.08-0.33,0.05c-0.14-0.05-0.14-0.18-0.08-0.3c0.05-0.1,0.09-0.2,0.14-0.29
			c2.96-5.99,5.91-11.97,8.87-17.96c0.07-0.14,0.13-0.28,0.22-0.47c-0.19,0-0.32-0.01-0.45,0c-1.44,0.12-2.88,0.25-4.32,0.37
			c-0.34,0.03-0.68,0.08-1.02,0.08c-0.21-0.01-0.43-0.08-0.61-0.18c-0.23-0.14-0.29-0.42-0.18-0.67c0.06-0.13,0.14-0.25,0.22-0.38
			c2.45-3.71,4.89-7.43,7.34-11.15c0.05-0.07,0.1-0.13,0.13-0.2c0.04-0.12,0.11-0.28,0.06-0.35c-0.06-0.08-0.24-0.1-0.36-0.1
			c-0.39,0.02-0.79,0.06-1.18,0.1c-1.21,0.1-2.42,0.2-3.63,0.3c-0.08,0.01-0.16,0.01-0.25,0.01c-0.28,0-0.5-0.12-0.63-0.37
			c-0.14-0.25-0.06-0.48,0.11-0.7C6.02,21.12,6.9,20,7.78,18.88c4.75-6.05,9.49-12.11,14.24-18.16c0.09-0.12,0.17-0.25,0.29-0.33
			c0.07-0.05,0.22-0.07,0.29-0.03C22.66,0.4,22.7,0.54,22.69,0.63z"/>
	</g>
</g>
</svg>
